SplineFontDB: 3.0
FontName: MedievalSharp-Book
FullName: Medieval Sharp Book
FamilyName: Medieval Sharp
Weight: Book
Copyright: Copyright (c) 2020-2024 by Wojciech Kalinowski "wmk69" with Reserved Font Name "MedievalSharp-Book".\nThis Font Software is licensed under the SIL Open Font License, Version 1.1.
Version: 3.1.0; 2021-05-14
ItalicAngle: 0
UnderlinePosition: -80
UnderlineWidth: 180
Ascent: 1638
Descent: 410
InvalidEm: 0
LayerCount: 2
Layer: 0 1 "Warstwa t+AUIA-a" 1
Layer: 1 1 "Plan pierwszy" 0
XUID: [1021 783 23647091 8578152]
StyleMap: 0x0040
FSType: 0
OS2Version: 3
OS2_WeightWidthSlopeOnly: 0
OS2_UseTypoMetrics: 1
CreationTime: 1260698820
ModificationTime: 1621004014
PfmFamily: 17
TTFWeight: 400
TTFWidth: 5
LineGap: 200
VLineGap: 0
Panose: 2 14 5 2 5 2 3 1 2 4
OS2TypoAscent: 2020
OS2TypoAOffset: 0
OS2TypoDescent: -450
OS2TypoDOffset: 0
OS2TypoLinegap: 200
OS2WinAscent: 2020
OS2WinAOffset: 0
OS2WinDescent: 450
OS2WinDOffset: 0
HheadAscent: 2020
HheadAOffset: 0
HheadDescent: -450
HheadDOffset: 0
OS2SubXSize: 1434
OS2SubYSize: 1331
OS2SubXOff: 0
OS2SubYOff: 287
OS2SupXSize: 1434
OS2SupYSize: 1331
OS2SupXOff: 0
OS2SupYOff: 977
OS2StrikeYSize: 102
OS2StrikeYPos: 512
OS2CapHeight: 1510
OS2XHeight: 1130
OS2Vendor: '    '
OS2CodePages: 20000093.00000000
OS2UnicodeRanges: 8000002f.4000204b.00000000.00000000
Lookup: 258 0 0 "'kern' Horizontal Kerning lookup 0" { "'kern' Horizontal Kerning lookup 0-1 subtable" [307,0,4] } ['kern' ('DFLT' <'dflt' > 'latn' <'dflt' > ) ]
MarkAttachClasses: 1
DEI: 91125
KernClass2: 67 56 "'kern' Horizontal Kerning lookup 0-1 subtable"
 84 A Agrave Aacute Acircumflex Atilde Adieresis Aring Amacron Abreve Aogonek Aringacute
 17 B uni1E02 uni1E9E
 47 C Ccedilla Cacute Ccircumflex Cdotaccent Ccaron
 19 D Eth Dcaron Dcroat
 92 E AE Egrave Eacute Ecircumflex Edieresis Emacron Ebreve Edotaccent Eogonek Ecaron OE AEacute
 9 F uni1E1E
 44 G Gcircumflex Gbreve Gdotaccent Gcommaaccent

StartChar: .notdef
Encoding: 65536 -1 0
Width: 994
Flags: W
HStem: 0 68<260 734> 1442 68<260 734>
VStem: 150 110<68 1442> 734 110<68 1442>
LayerCount: 2
Fore
SplineSet
150 0 m 1,0,-1
 150 1510 l 1,1,-1
 844 1510 l 1,2,-1
 844 0 l 1,3,-1
 150 0 l 1,0,-1
260 68 m 1,4,-1
 734 68 l 1,5,-1
 734 1442 l 1,6,-1
 260 1442 l 1,7,-1
 260 68 l 1,4,-1
EndSplineSet
Validated: 1
EndChar

StartChar: exclam
Encoding: 33 33 4
Width: 612
GlyphClass: 2
Flags: W
HStem: 0 297<229.006 382.994> 1490 20G<365 442>
VStem: 177 258<51.2668 246.991> 258 96<369.25 782.179>
LayerCount: 2
Fore
SplineSet
432 1510 m 1,0,-1
 442 1504 l 1,1,2
 397 1217 397 1217 375 918 c 0,3,4
 354 633 354 633 354 387 c 1,5,6
 308 375 308 375 269 340 c 1,7,-1
 258 346 l 1,8,9
 258 632 258 632 236 915 c 0,10,11
 213 1205 213 1205 170 1418 c 1,12,13
 298 1431 298 1431 432 1510 c 1,0,-1
309 0 m 1,14,-1
 303 0 l 1,15,16
 261 17 261 17 229 44 c 0,17,18
 177 89 177 89 177 149 c 0,19,20
 177 205 177 205 222 247 c 0,21,22
 256 281 256 281 303 297 c 1,23,-1
 309 297 l 1,24,25
 356 281 356 281 390 247 c 0,26,27
 435 204 435 204 435 149 c 0,28,29
 435 90 435 90 383 44 c 0,30,31
 351 17 351 17 309 0 c 1,14,-1
EndSplineSet
Validated: 1
EndChar

StartChar: quotedbl
Encoding: 34 34 5
Width: 530
GlyphClass: 2
Flags: W
HStem: 1108 442
VStem: 106 132<1191.11 1490.9> 348 132<1191.11 1490.9>
LayerCount: 2
Fore
SplineSet
448 1550 m 1,0,-1
 458 1544 l 1,1,2
 480 1459 480 1459 480 1365 c 0,3,4
 480 1264 480 1264 422 1166 c 1,5,6
 366 1151 366 1151 304 1108 c 1,7,-1
 294 1114 l 1,8,9
 348 1210 348 1210 348 1304 c 0,10,11
 348 1406 348 1406 292 1478 c 1,12,13
 364 1502 364 1502 448 1550 c 1,0,-1
206 1550 m 1,14,-1
 216 1544 l 1,15,16
 238 1459 238 1459 238 1365 c 0,17,18
 238 1264 238 1264 180 1166 c 1,19,20
 124 1151 124 1151 62 1108 c 1,21,-1
 52 1114 l 1,22,23
 106 1210 106 1210 106 1304 c 0,24,25
 106 1406 106 1406 50 1478 c 1,26,27
 122 1502 122 1502 206 1550 c 1,14,-1
EndSplineSet
Validated: 1
EndChar

StartChar: numbersign
Encoding: 35 35 6
Width: 1390
GlyphClass: 2
Flags: W
HStem: 481 173<199.594 490.149 900.284 1190.3> 529 77<588 803> 789 173<199.594 489.716 899.882 1190.3> 837 77<587 802>
VStem: 454 174<226.402 516.118 927.283 1216.41> 502 78<614 829> 762 174<226.402 515.686 926.82 1216.41> 810 78<614 829>
LayerCount: 2
Fore
SplineSet
762 1206 m 1,0,1
 838 1220 838 1220 926 1266 c 1,2,-1
 936 1260 l 1,3,4
 908 1076 908 1076 895 922 c 1,5,6
 1051 934 1051 934 1234 962 c 1,7,-1
 1240 952 l 1,8,9
 1192 862 1192 862 1180 789 c 1,10,11
 1030 817 1030 817 890 829 c 1,12,13
 888 774 888 774 888 722 c 0,14,15
 888 668 888 668 890 614 c 1,16,17
 1048 625 1048 625 1234 654 c 1,18,-1
 1240 644 l 1,19,20
 1192 554 1192 554 1180 481 c 1,21,22
 1033 508 1033 508 896 520 c 1,23,24
 908 382 908 382 936 236 c 1,25,26
 862 224 862 224 772 176 c 1,27,-1
 762 182 l 1,28,29
 791 368 791 368 803 526 c 1,30,31
 748 529 748 529 694 529 c 0,32,33
 643 529 643 529 588 527 c 1,34,35
 600 386 600 386 628 236 c 1,36,37
 554 224 554 224 464 176 c 1,38,-1
 454 182 l 1,39,40
 482 365 482 365 495 521 c 1,41,42
 340 509 340 509 156 481 c 1,43,-1
 150 491 l 1,44,45
 196 579 196 579 210 654 c 1,46,47
 360 626 360 626 500 614 c 1,48,49
 502 670 502 670 502 722 c 0,50,51
 502 775 502 775 500 829 c 1,52,53
 343 818 343 818 156 789 c 1,54,-1
 150 799 l 1,55,56
 196 887 196 887 210 962 c 1,57,58
 357 935 357 935 494 923 c 1,59,60
 482 1060 482 1060 454 1206 c 1,61,62
 530 1220 530 1220 618 1266 c 1,63,-1
 628 1260 l 1,64,65
 599 1073 599 1073 587 917 c 1,66,67
 642 914 642 914 695 914 c 0,68,69
 747 914 747 914 802 916 c 1,70,71
 790 1056 790 1056 762 1206 c 1,0,1
808 834 m 1,72,73
 750 837 750 837 694 837 c 0,74,75
 640 837 640 837 582 834 c 1,76,77
 580 776 580 776 580 722 c 0,78,79
 580 666 580 666 582 609 c 1,80,81
 639 606 639 606 695 606 c 0,82,83
 749 606 749 606 808 609 c 1,84,85
 810 668 810 668 810 722 c 0,86,87
 810 778 810 778 808 834 c 1,72,73
EndSplineSet
Validated: 1
EndChar

StartChar: percent
Encoding: 37 37 7
Width: 1547
GlyphClass: 2
Flags: W
HStem: 0 21G<434.5 495 1058.5 1161.5> 1490 20G<380 494 1093 1153.5>
VStem: 150 77<1143.2 1319.81> 648 76<1039.52 1213.96> 823 77<296.196 472.811> 1321 76<192.522 366.957>
LayerCount: 2
Fore
SplineSet
1115 0 m 1,0,-1
 1105 0 l 1,1,2
 1012 38 1012 38 940 99 c 0,3,4
 823 198 823 198 823 332 c 0,5,6
 823 456 823 456 923 551 c 0,7,8
 1001 626 1001 626 1105 663 c 1,9,-1
 1115 663 l 1,10,11
 1219 626 1219 626 1297 551 c 0,12,13
 1397 456 1397 456 1397 332 c 0,14,15
 1397 200 1397 200 1280 99 c 0,16,17
 1208 38 1208 38 1115 0 c 1,0,-1
1271 122 m 1,18,19
 1321 174 1321 174 1321 269 c 0,20,21
 1321 377 1321 377 1155 473 c 24,22,23
 1073 521 1073 521 950 543 c 1,24,25
 900 491 900 491 900 396 c 0,26,27
 900 288 900 288 1066 192 c 24,28,29
 1148 144 1148 144 1271 122 c 1,18,19
442 1510 m 1,30,31
 546 1473 546 1473 624 1398 c 0,32,33
 724 1303 724 1303 724 1179 c 0,34,35
 724 1047 724 1047 607 946 c 0,36,37
 535 885 535 885 442 847 c 1,38,-1
 432 847 l 1,39,40
 339 885 339 885 267 946 c 0,41,42
 150 1045 150 1045 150 1179 c 0,43,44
 150 1303 150 1303 250 1398 c 0,45,46
 328 1473 328 1473 432 1510 c 1,47,-1
 442 1510 l 1,30,31
277 1390 m 1,48,49
 227 1338 227 1338 227 1243 c 0,50,51
 227 1135 227 1135 393 1039 c 24,52,53
 475 991 475 991 598 969 c 1,54,55
 648 1021 648 1021 648 1116 c 0,56,57
 648 1224 648 1224 482 1320 c 24,58,59
 400 1368 400 1368 277 1390 c 1,48,49
495 6 m 1,60,-1
 485 0 l 1,61,62
 384 58 384 58 295 82 c 1,63,64
 509 390 509 390 757 830 c 0,65,66
 943 1160 943 1160 1093 1504 c 1,67,-1
 1103 1510 l 1,68,69
 1204 1452 1204 1452 1293 1428 c 1,70,71
 1032 1063 1032 1063 867 772 c 0,72,73
 617 331 617 331 495 6 c 1,60,-1
EndSplineSet
Validated: 1
EndChar

StartChar: ampersand
Encoding: 38 38 8
Width: 1318
VWidth: 0
GlyphClass: 2
Flags: W
HStem: 0 21G<471 678.5 966 1044.5> 1490 20G<512 653.5>
VStem: 120 164<389.451 654.046> 217 138<1052.72 1263.73> 987 161<479.104 770.474>
LayerCount: 2
Fore
SplineSet
856 221 m 1,0,1
 670 562 670 562 446 825 c 1,2,3
 284 724 284 724 284 573 c 0,4,5
 284 411 284 411 387 315 c 0,6,7
 551 161 551 161 796 124 c 1,8,9
 833 170 833 170 856 221 c 1,0,1
587 0 m 1,10,11
 355 87 355 87 223 253 c 0,12,13
 120 383 120 383 120 496 c 0,14,15
 120 731 120 731 423 837 c 1,16,-1
 397 850 l 2,17,18
 217 940 217 940 217 1096 c 0,19,20
 217 1236 217 1236 318 1337 c 0,21,22
 437 1456 437 1456 587 1510 c 1,23,-1
 597 1510 l 1,24,25
 710 1472 710 1472 822 1381 c 0,26,27
 897 1319 897 1319 924 1247 c 1,28,-1
 921 1235 l 1,29,30
 818 1219 818 1219 751 1172 c 1,31,32
 723 1233 723 1233 653 1281 c 0,33,34
 529 1365 529 1365 405 1387 c 1,35,36
 355 1312 355 1312 355 1196 c 0,37,38
 355 1063 355 1063 470 987 c 0,39,40
 525 951 525 951 604 925 c 1,41,42
 762 605 762 605 947 358 c 1,43,44
 987 461 987 461 987 573 c 0,45,46
 987 716 987 716 903 840 c 1,47,48
 997 859 997 859 1115 927 c 1,49,-1
 1125 921 l 1,50,51
 1148 818 1148 818 1148 707 c 0,52,53
 1148 482 1148 482 997 305 c 1,54,55
 1100 192 1100 192 1218 92 c 1,56,57
 1113 79 1113 79 976 0 c 1,58,-1
 966 6 l 1,59,60
 925 107 925 107 882 170 c 1,61,62
 760 61 760 61 597 0 c 1,63,-1
 587 0 l 1,10,11
EndSplineSet
Validated: 1
EndChar

StartChar: quotesingle
Encoding: 39 39 9
Width: 288
GlyphClass: 2
Flags: W
HStem: 1108 442
VStem: 106 132<1191.11 1490.9>
LayerCount: 2
Fore
SplineSet
206 1550 m 1,0,-1
 216 1544 l 1,1,2
 238 1459 238 1459 238 1365 c 0,3,4
 238 1264 238 1264 180 1166 c 1,5,6
 124 1151 124 1151 62 1108 c 1,7,-1
 52 1114 l 1,8,9
 106 1210 106 1210 106 1304 c 0,10,11
 106 1406 106 1406 50 1478 c 1,12,13
 122 1502 122 1502 206 1550 c 1,0,-1
EndSplineSet
Validated: 1
EndChar

StartChar: parenleft
Encoding: 40 40 10
Width: 866
GlyphClass: 2
Flags: W
VStem: 150 158<408.487 1025.72>
LayerCount: 2
Fore
SplineSet
856 1771 m 1,0,-1
 856 1761 l 1,1,2
 543 1559 543 1559 414 1253 c 0,3,4
 308 1002 308 1002 308 713 c 0,5,6
 308 423 308 423 442 219 c 0,7,8
 580 7 580 7 824 -162 c 1,9,-1
 638 -273 l 1,10,11
 428 -107 428 -107 300 111 c 0,12,13
 150 366 150 366 150 690 c 0,14,15
 150 1010 150 1010 298 1281 c 0,16,17
 491 1635 491 1635 856 1771 c 1,0,-1
EndSplineSet
Validated: 1
EndChar

StartChar: parenright
Encoding: 41 41 11
Width: 866
GlyphClass: 2
Flags: W
VStem: 558 158<471.533 1089.51>
LayerCount: 2
Fore
SplineSet
228 1771 m 1,0,1
 438 1605 438 1605 566 1387 c 0,2,3
 716 1132 716 1132 716 808 c 0,4,5
 716 485 716 485 568 217 c 0,6,7
 375 -137 375 -137 10 -273 c 1,8,-1
 10 -263 l 1,9,10
 323 -61 323 -61 452 245 c 0,11,12
 558 496 558 496 558 785 c 0,13,14
 558 1075 558 1075 424 1279 c 0,15,16
 286 1491 286 1491 42 1660 c 1,17,-1
 228 1771 l 1,0,1
EndSplineSet
Validated: 1
EndChar

StartChar: asterisk
Encoding: 42 42 12
Width: 950
GlyphClass: 2
Flags: W
VStem: 386 178<835.478 1080.37 1247.63 1492.52>
LayerCount: 2
Fore
SplineSet
556 1550 m 1,0,-1
 564 1546 l 1,1,2
 527 1378 527 1378 519 1242 c 1,3,4
 616 1309 616 1309 705 1399 c 1,5,6
 756 1341 756 1341 850 1287 c 1,7,-1
 849 1278 l 1,8,9
 684 1226 684 1226 563 1164 c 1,10,11
 685 1102 685 1102 849 1050 c 1,12,-1
 850 1041 l 1,13,14
 756 987 756 987 705 929 c 1,15,16
 617 1018 617 1018 521 1084 c 1,17,18
 531 968 531 968 564 847 c 1,19,20
 489 832 489 832 394 778 c 1,21,-1
 386 782 l 1,22,23
 423 950 423 950 430 1086 c 1,24,25
 333 1019 333 1019 245 929 c 1,26,27
 195 987 195 987 100 1041 c 1,28,-1
 100 1050 l 1,29,30
 265 1102 265 1102 386 1164 c 1,31,32
 264 1226 264 1226 100 1278 c 1,33,-1
 100 1287 l 1,34,35
 194 1341 194 1341 245 1399 c 1,36,37
 333 1310 333 1310 429 1244 c 1,38,39
 419 1360 419 1360 386 1481 c 1,40,41
 462 1496 462 1496 556 1550 c 1,0,-1
EndSplineSet
Validated: 1
EndChar

StartChar: plus
Encoding: 43 43 13
Width: 1266
GlyphClass: 2
Flags: W
HStem: 635 222<226.343 413.473 852.527 1039.66>
VStem: 522 222<339.343 526.473 965.527 1152.66>
LayerCount: 2
Fore
SplineSet
734 1229 m 9,0,-1
 744 1223 l 1,1,2
 692 985 692 985 687 800 c 1,3,4
 872 805 872 805 1110 857 c 1,5,-1
 1116 847 l 1,6,7
 1048 729 1048 729 1029 635 c 1,8,9
 855 683 855 683 688 691 c 1,10,11
 696 524 696 524 744 350 c 1,12,13
 650 331 650 331 532 263 c 1,14,-1
 522 269 l 1,15,16
 574 507 574 507 579 692 c 1,17,18
 394 687 394 687 156 635 c 1,19,-1
 150 645 l 1,20,21
 218 763 218 763 237 857 c 1,22,23
 411 809 411 809 578 801 c 1,24,25
 570 968 570 968 522 1142 c 1,26,27
 616 1161 616 1161 734 1229 c 9,0,-1
EndSplineSet
Validated: 1
EndChar

StartChar: comma
Encoding: 44 44 14
Width: 367
GlyphClass: 2
Flags: W
HStem: -222 519
VStem: 176 141<-50.48 22.2891>
LayerCount: 2
Fore
SplineSet
176 297 m 1,0,-1
 182 297 l 1,1,2
 229 281 229 281 263 247 c 0,3,4
 317 193 317 193 317 104 c 0,5,6
 317 -116 317 -116 40 -222 c 1,7,-1
 40 -206 l 1,8,9
 176 -102 176 -102 176 0 c 1,10,11
 134 17 134 17 102 44 c 0,12,13
 50 89 50 89 50 149 c 0,14,15
 50 205 50 205 95 247 c 0,16,17
 133 282 133 282 176 297 c 1,0,-1
EndSplineSet
Validated: 1
EndChar

StartChar: hyphen
Encoding: 45 45 15
Width: 1266
GlyphClass: 2
Flags: W
HStem: 635 222<226.343 411.101 854.899 1039.66> 693 106<291.699 974.301>
LayerCount: 2
Fore
SplineSet
237 857 m 1,0,1
 447 799 447 799 646.5 799 c 128,-1,2
 846 799 846 799 1110 857 c 1,3,-1
 1116 847 l 1,4,5
 1048 729 1048 729 1029 635 c 1,6,7
 819 693 819 693 619.5 693 c 128,-1,8
 420 693 420 693 156 635 c 1,9,-1
 150 645 l 1,10,11
 218 763 218 763 237 857 c 1,0,1
EndSplineSet
Validated: 1
EndChar

StartChar: period
Encoding: 46 46 16
Width: 358
GlyphClass: 2
Flags: W
HStem: 0 297<102.006 255.994>
VStem: 50 258<51.2668 246.991>
LayerCount: 2
Fore
SplineSet
182 0 m 1,0,-1
 176 0 l 1,1,2
 134 17 134 17 102 44 c 0,3,4
 50 89 50 89 50 149 c 0,5,6
 50 205 50 205 95 247 c 0,7,8
 129 281 129 281 176 297 c 1,9,-1
 182 297 l 1,10,11
 229 281 229 281 263 247 c 0,12,13
 308 204 308 204 308 149 c 0,14,15
 308 90 308 90 256 44 c 0,16,17
 224 17 224 17 182 0 c 1,0,-1
EndSplineSet
Validated: 1
EndChar

StartChar: slash
Encoding: 47 47 17
Width: 1076
GlyphClass: 2
Flags: W
LayerCount: 2
Fore
SplineSet
210 -144 m 1,0,-1
 200 -150 l 1,1,2
 99 -92 99 -92 10 -68 c 1,3,4
 287 369 287 369 518 835 c 0,5,6
 745 1293 745 1293 866 1654 c 1,7,-1
 876 1660 l 1,8,9
 977 1602 977 1602 1066 1578 c 1,10,11
 836 1195 836 1195 628 777 c 0,12,13
 384 288 384 288 210 -144 c 1,0,-1
EndSplineSet
Validated: 1
EndChar

StartChar: zero
Encoding: 48 48 18
Width: 1354
VWidth: 0
GlyphClass: 2
Flags: W
HStem: 0 21G<557.5 798> 1490 20G<557.5 795.5>
VStem: 120 168<579.046 1003.62> 1066 168<506.879 930.954>
LayerCount: 2
Fore
SplineSet
911 145 m 1,0,1
 1066 399 1066 399 1066 699 c 0,2,3
 1066 975 1066 975 852 1174 c 0,4,5
 689 1326 689 1326 443 1365 c 1,6,7
 288 1111 288 1111 288 811 c 0,8,9
 288 535 288 535 502 336 c 24,10,11
 665 184 665 184 911 145 c 1,0,1
672 0 m 1,12,13
 443 90 443 90 298 260 c 0,14,15
 120 469 120 469 120 750 c 0,16,17
 120 1021 120 1021 308 1257 c 0,18,19
 443 1427 443 1427 672 1510 c 1,20,-1
 682 1510 l 1,21,22
 909 1422 909 1422 1056 1250 c 0,23,24
 1234 1041 1234 1041 1234 760 c 0,25,26
 1234 491 1234 491 1046 253 c 0,27,28
 914 86 914 86 682 0 c 1,29,-1
 672 0 l 1,12,13
EndSplineSet
Validated: 1
EndChar

StartChar: one
Encoding: 49 49 19
Width: 773
GlyphClass: 2
Flags: W
HStem: 0 21G<326 401> 1490 20G<496 573>
VStem: 370 158<284.445 1226.24>
LayerCount: 2
Fore
SplineSet
336 0 m 1,0,-1
 326 6 l 1,1,2
 370 387 370 387 370 730 c 0,3,4
 370 995 370 995 348 1269 c 1,5,6
 224 1137 224 1137 166 946 c 1,7,8
 111 994 111 994 10 1013 c 1,9,10
 10 1023 l 1,11,12
 223 1192 223 1192 329 1418 c 1,13,14
 429 1432 429 1432 563 1510 c 1,15,-1
 573 1504 l 1,16,17
 528 1142 528 1142 528 782 c 0,18,19
 528 433 528 433 570 92 c 1,20,21
 466 76 466 76 336 0 c 1,0,-1
EndSplineSet
Validated: 1
EndChar

StartChar: four
Encoding: 52 52 20
Width: 1140
GlyphClass: 2
Flags: W
HStem: 0 21G<693 768> 377 70<196.853 720.741> 1490 20G<861 940>
VStem: 725 170<469.839 988.901>
LayerCount: 2
Fore
SplineSet
703 0 m 1,0,-1
 693 6 l 1,1,2
 721 217 721 217 725 354 c 1,3,4
 589 377 589 377 415 377 c 0,5,6
 231 377 231 377 48 331 c 1,7,-1
 39 338 l 1,8,9
 30 400 30 400 10 439 c 1,10,11
 390 871 390 871 696 1418 c 1,12,13
 792 1430 792 1430 930 1510 c 1,14,-1
 940 1504 l 1,15,16
 895 1125 895 1125 895 782 c 0,17,18
 895 438 895 438 937 92 c 1,19,20
 833 77 833 77 703 0 c 1,0,-1
732 480 m 1,21,22
 732 872 732 872 716 1251 c 1,23,24
 394 862 394 862 192 471 c 1,25,26
 328 447 328 447 472 447 c 0,27,28
 606 447 606 447 732 480 c 1,21,22
EndSplineSet
Validated: 1
EndChar

StartChar: six
Encoding: 54 54 21
Width: 1288
VWidth: 0
GlyphClass: 2
Flags: W
HStem: 0 21G<558.5 797> 779 183<669.458 833.75> 1490 20G<557.5 795.5>
VStem: 120 168<579.046 1003.12> 1008 160<383.87 629.769>
LayerCount: 2
Fore
SplineSet
682 0 m 1,0,-1
 672 0 l 1,1,2
 445 88 445 88 298 260 c 0,3,4
 120 469 120 469 120 750 c 0,5,6
 120 1019 120 1019 308 1257 c 0,7,8
 443 1427 443 1427 672 1510 c 1,9,-1
 682 1510 l 1,10,11
 909 1422 909 1422 1058 1249 c 1,12,-1
 1054 1238 l 1,13,14
 929 1226 929 1226 852 1174 c 1,15,16
 689 1326 689 1326 443 1365 c 1,17,18
 288 1111 288 1111 288 811 c 0,19,20
 288 535 288 535 502 336 c 0,21,22
 665 184 665 184 911 145 c 1,23,24
 1008 284 1008 284 1008 474 c 0,25,26
 1008 612 1008 612 901 697 c 0,27,28
 816 765 816 765 613 779 c 1,29,-1
 607 789 l 1,30,31
 652 866 652 866 686 962 c 1,32,33
 898 960 898 960 1030 864 c 0,34,35
 1168 765 1168 765 1168 606 c 0,36,37
 1168 407 1168 407 1046 253 c 0,38,39
 912 84 912 84 682 0 c 1,0,-1
EndSplineSet
Validated: 1
EndChar

StartChar: seven
Encoding: 55 55 22
Width: 988
GlyphClass: 2
Flags: W
HStem: 0 21G<172 251> 1383 71<234.332 684.273> 1490 20G<103.5 202 840 968>
LayerCount: 2
Fore
SplineSet
182 0 m 1,0,-1
 172 6 l 1,1,2
 557 853 557 853 689 1365 c 1,3,4
 589 1383 589 1383 465 1383 c 0,5,6
 242 1383 242 1383 26 1258 c 1,7,-1
 20 1268 l 1,8,9
 95 1394 95 1394 112 1510 c 1,10,11
 292 1454 292 1454 460 1454 c 0,12,13
 722 1454 722 1454 958 1510 c 1,14,-1
 968 1504 l 1,15,16
 632 832 632 832 442 95 c 1,17,18
 320 80 320 80 182 0 c 1,0,-1
EndSplineSet
Validated: 1
EndChar

StartChar: eight
Encoding: 56 56 23
Width: 1144
VWidth: 0
GlyphClass: 2
Flags: W
HStem: 0 21G<451 693> 1490 20G<492 633.5>
VStem: 100 164<389.451 654.046> 197 138<1082.68 1263.05> 767 150<1032.62 1230.98> 875 169<343.442 557.035>
DStem2: 487 1003 377 850 0.893249 -0.449563<-171.564 -0.405488 3.32113 226.961 231.657 483.999>
LayerCount: 2
Fore
SplineSet
567 0 m 1,0,1
 335 87 335 87 203 253 c 0,2,3
 100 383 100 383 100 496 c 0,4,5
 100 731 100 731 403 837 c 1,6,-1
 377 850 l 2,7,8
 197 941 197 941 197 1096 c 0,9,10
 197 1236 197 1236 298 1337 c 0,11,12
 417 1456 417 1456 567 1510 c 1,13,-1
 577 1510 l 1,14,15
 690 1472 690 1472 802 1381 c 0,16,17
 917 1288 917 1288 917 1170 c 0,18,19
 917 1055 917 1055 815 970 c 0,20,21
 764 927 764 927 694 899 c 1,22,-1
 791 850 l 2,23,24
 1044 723 1044 723 1044 514 c 0,25,26
 1044 383 1044 383 941 253 c 0,27,28
 809 87 809 87 577 0 c 1,29,-1
 567 0 l 1,0,1
677 907 m 1,30,31
 767 988 767 988 767 1094 c 0,32,33
 767 1218 767 1218 654 1296 c 0,34,35
 530 1380 530 1380 406 1402 c 1,36,37
 335 1298 335 1298 335 1196 c 0,38,39
 335 1080 335 1080 487 1003 c 2,40,-1
 677 907 l 1,30,31
426 825 m 1,41,42
 264 724 264 724 264 573 c 0,43,44
 264 411 264 411 367 315 c 0,45,46
 531 161 531 161 776 124 c 1,47,48
 875 258 875 258 875 396 c 0,49,50
 874 598 874 598 655 709 c 2,51,-1
 426 825 l 1,41,42
EndSplineSet
Validated: 1
EndChar

StartChar: nine
Encoding: 57 57 24
Width: 1288
VWidth: 0
GlyphClass: 2
Flags: W
HStem: 0 21G<492.5 730.5> 548 183<454.25 618.542> 1490 20G<491 729.5>
VStem: 120 160<880.231 1126.13> 1000 168<506.879 930.954>
LayerCount: 2
Fore
SplineSet
606 0 m 1,0,1
 379 88 379 88 230 261 c 1,2,-1
 234 272 l 1,3,4
 359 284 359 284 436 336 c 1,5,6
 599 184 599 184 845 145 c 1,7,8
 1000 399 1000 399 1000 699 c 0,9,10
 1000 975 1000 975 786 1174 c 0,11,12
 623 1326 623 1326 377 1365 c 1,13,14
 280 1226 280 1226 280 1036 c 0,15,16
 280 898 280 898 387 813 c 0,17,18
 472 745 472 745 675 731 c 1,19,-1
 681 721 l 1,20,21
 636 644 636 644 602 548 c 1,22,23
 390 550 390 550 258 646 c 0,24,25
 120 745 120 745 120 904 c 0,26,27
 120 1103 120 1103 242 1257 c 0,28,29
 376 1426 376 1426 606 1510 c 1,30,-1
 616 1510 l 1,31,32
 843 1422 843 1422 990 1250 c 0,33,34
 1168 1041 1168 1041 1168 760 c 0,35,36
 1168 491 1168 491 980 253 c 0,37,38
 845 83 845 83 616 0 c 1,39,-1
 606 0 l 1,0,1
EndSplineSet
Validated: 1
EndChar

StartChar: colon
Encoding: 58 58 25
Width: 358
GlyphClass: 2
Flags: W
HStem: 0 297<102.006 255.994> 607 297<102.006 255.994>
VStem: 50 258<51.2668 246.991 658.267 853.991>
LayerCount: 2
Fore
SplineSet
182 904 m 1,0,1
 229 888 229 888 263 854 c 0,2,3
 308 811 308 811 308 756 c 0,4,5
 308 697 308 697 256 651 c 0,6,7
 224 624 224 624 182 607 c 1,8,-1
 176 607 l 1,9,10
 134 624 134 624 102 651 c 0,11,12
 50 696 50 696 50 756 c 0,13,14
 50 812 50 812 95 854 c 0,15,16
 129 888 129 888 176 904 c 1,17,-1
 182 904 l 1,0,1
182 0 m 1,18,-1
 176 0 l 1,19,20
 134 17 134 17 102 44 c 0,21,22
 50 89 50 89 50 149 c 0,23,24
 50 205 50 205 95 247 c 0,25,26
 129 281 129 281 176 297 c 1,27,-1
 182 297 l 1,28,29
 229 281 229 281 263 247 c 0,30,31
 308 204 308 204 308 149 c 0,32,33
 308 90 308 90 256 44 c 0,34,35
 224 17 224 17 182 0 c 1,18,-1
EndSplineSet
Validated: 1
EndChar

StartChar: semicolon
Encoding: 59 59 26
Width: 367
GlyphClass: 2
Flags: W
HStem: 607 297<102.006 255.994>
VStem: 50 267<51.1228 236.281 666.912 844.061> 176 141<-50.48 22.2891>
LayerCount: 2
Fore
SplineSet
176 297 m 1,0,-1
 182 297 l 1,1,2
 229 281 229 281 263 247 c 0,3,4
 317 193 317 193 317 104 c 0,5,6
 317 -116 317 -116 40 -222 c 1,7,-1
 40 -206 l 1,8,9
 176 -102 176 -102 176 0 c 1,10,11
 134 17 134 17 102 44 c 0,12,13
 50 89 50 89 50 149 c 0,14,15
 50 205 50 205 95 247 c 0,16,17
 133 282 133 282 176 297 c 1,0,-1
182 904 m 1,18,19
 229 888 229 888 263 854 c 0,20,21
 308 811 308 811 308 756 c 0,22,23
 308 695 308 695 256 651 c 0,24,25
 224 624 224 624 182 607 c 1,26,-1
 176 607 l 1,27,28
 134 624 134 624 102 651 c 0,29,30
 50 696 50 696 50 756 c 0,31,32
 50 809 50 809 95 854 c 0,33,34
 129 888 129 888 176 904 c 1,35,-1
 182 904 l 1,18,19
EndSplineSet
Validated: 1
EndChar

StartChar: less
Encoding: 60 60 27
Width: 1316
GlyphClass: 2
Flags: W
LayerCount: 2
Fore
SplineSet
1110 1254 m 1,0,-1
 1116 1244 l 1,1,2
 1072 1169 1072 1169 1044 1088 c 1,3,4
 658 968 658 968 353 777 c 1,5,6
 648 534 648 534 1110 459 c 1,7,-1
 1116 449 l 1,8,9
 1047 337 1047 337 1029 237 c 1,10,11
 642 525 642 525 156 635 c 1,12,-1
 150 645 l 1,13,14
 218 763 218 763 237 857 c 1,15,16
 674 981 674 981 1110 1254 c 1,0,-1
EndSplineSet
Validated: 1
EndChar

StartChar: equal
Encoding: 61 61 28
Width: 1266
GlyphClass: 2
Flags: W
HStem: 460 222<226.343 411.101 854.899 1039.66> 518 106<291.699 974.301> 810 222<226.343 411.101 854.899 1039.66> 868 106<291.699 974.301>
LayerCount: 2
Fore
SplineSet
156 460 m 1,0,-1
 150 470 l 1,1,2
 218 588 218 588 237 682 c 1,3,4
 447 624 447 624 646.5 624 c 128,-1,5
 846 624 846 624 1110 682 c 1,6,-1
 1116 672 l 1,7,8
 1048 554 1048 554 1029 460 c 1,9,10
 819 518 819 518 619.5 518 c 128,-1,11
 420 518 420 518 156 460 c 1,0,-1
156 810 m 1,12,-1
 150 820 l 1,13,14
 218 938 218 938 237 1032 c 1,15,16
 447 974 447 974 646.5 974 c 128,-1,17
 846 974 846 974 1110 1032 c 1,18,-1
 1116 1022 l 1,19,20
 1048 904 1048 904 1029 810 c 1,21,22
 819 868 819 868 619.5 868 c 128,-1,23
 420 868 420 868 156 810 c 1,12,-1
EndSplineSet
Validated: 1
EndChar

StartChar: greater
Encoding: 62 62 29
Width: 1316
GlyphClass: 2
Flags: W
LayerCount: 2
Fore
SplineSet
287 1254 m 1,0,1
 674 966 674 966 1160 856 c 1,2,-1
 1166 846 l 1,3,4
 1098 728 1098 728 1079 634 c 1,5,6
 642 510 642 510 206 237 c 1,7,-1
 200 247 l 1,8,9
 244 322 244 322 272 403 c 1,10,11
 658 523 658 523 963 714 c 1,12,13
 668 957 668 957 206 1032 c 1,14,-1
 200 1042 l 1,15,16
 269 1154 269 1154 287 1254 c 1,0,1
EndSplineSet
Validated: 1
EndChar

StartChar: question
Encoding: 63 63 30
Width: 1229
GlyphClass: 2
Flags: W
HStem: 0 297<474.006 627.994> 1490 20G<479.5 724.5>
VStem: 150 149<1026.35 1206.13> 422 258<51.2668 246.991> 484 81<386.777 515.306> 891 188<877.727 1129.86>
LayerCount: 2
Fore
SplineSet
554 0 m 1,0,-1
 548 0 l 1,1,2
 506 17 506 17 474 44 c 0,3,4
 422 89 422 89 422 149 c 0,5,6
 422 205 422 205 467 247 c 0,7,8
 501 281 501 281 548 297 c 1,9,-1
 554 297 l 1,10,11
 601 281 601 281 635 247 c 0,12,13
 680 204 680 204 680 149 c 0,14,15
 680 90 680 90 628 44 c 0,16,17
 596 17 596 17 554 0 c 1,0,-1
585 1510 m 1,18,-1
 595 1510 l 1,19,20
 854 1423 854 1423 996 1257 c 0,21,22
 1079 1160 1079 1160 1079 1028 c 0,23,24
 1079 853 1079 853 883 717 c 2,25,-1
 674 572 l 2,26,27
 566 497 566 497 565 445 c 0,28,29
 565 424 565 424 582 403 c 1,30,31
 549 390 549 390 516 362 c 1,32,-1
 505 366 l 1,33,34
 484 397 484 397 484 434 c 0,35,36
 484 515 484 515 582 610 c 2,37,-1
 788 810 l 2,38,39
 891 910 891 910 891 1004 c 128,-1,40
 891 1098 891 1098 802 1180 c 0,41,42
 661 1310 661 1310 380 1365 c 1,43,44
 299 1266 299 1266 299 1141 c 0,45,46
 299 1019 299 1019 432 974 c 1,47,48
 339 957 339 957 207 883 c 1,49,-1
 197 889 l 1,50,51
 150 962 150 962 150 1052 c 0,52,53
 150 1165 150 1165 237 1263 c 0,54,55
 374 1415 374 1415 585 1510 c 1,18,-1
EndSplineSet
Validated: 1
EndChar

StartChar: at
Encoding: 64 64 31
Width: 1259
GlyphClass: 2
Flags: W
HStem: -380 21G<557.5 744.5> 0 167<628.57 748.945> 662 10<699.33 717> 1110 20G<595 776>
VStem: 120 136<200.684 646.907> 393 131<273.363 534.401> 902 227<76.6846 197.03> 946 141<255.155 761.777>
LayerCount: 2
Fore
SplineSet
912 0 m 1,0,-1
 902 6 l 1,1,2
 919 105 919 105 929 200 c 1,3,4
 821 62 821 62 656 0 c 1,5,-1
 646 0 l 1,6,7
 533 68 533 68 457 165 c 0,8,9
 393 247 393 247 393 364 c 0,10,11
 393 505 393 505 481 588 c 0,12,13
 570 672 570 672 717 672 c 1,14,-1
 717 662 l 1,15,16
 524 615 524 615 524 427 c 0,17,18
 524 335 524 335 569 272 c 0,19,20
 644 167 644 167 761 167 c 0,21,22
 846 167 846 167 934 251 c 1,23,24
 946 384 946 384 946 511 c 0,25,26
 946 757 946 757 829 875 c 0,27,28
 704 1001 704 1001 489 1001 c 1,29,30
 256 776 256 776 256 431 c 0,31,32
 256 151 256 151 483 -61 c 0,33,34
 663 -228 663 -228 899 -267 c 1,35,36
 807 -334 807 -334 682 -380 c 1,37,-1
 672 -380 l 1,38,39
 443 -290 443 -290 298 -120 c 0,40,41
 120 89 120 89 120 372 c 0,42,43
 120 690 120 690 308 877 c 0,44,45
 488 1055 488 1055 702 1130 c 1,46,47
 850 1080 850 1080 955 971 c 0,48,49
 1087 834 1087 834 1087 565 c 0,50,51
 1087 319 1087 319 1129 87 c 1,52,53
 1030 69 1030 69 912 0 c 1,0,-1
EndSplineSet
Validated: 1
EndChar

StartChar: A
Encoding: 65 65 32
Width: 1285
GlyphClass: 2
Flags: W
HStem: 0 21G<5 62.5 1028 1106.5> 499 73<344.311 873.597> 1490 20G<688 766>
LayerCount: 2
Fore
SplineSet
15 0 m 1,0,-1
 5 6 l 1,1,2
 341 691 341 691 514 1418 c 1,3,4
 620 1431 620 1431 756 1510 c 1,5,-1
 766 1504 l 1,6,7
 971 735 971 735 1280 92 c 1,8,9
 1175 79 1175 79 1038 0 c 1,10,-1
 1028 6 l 1,11,12
 978 252 978 252 908 487 c 1,13,14
 759 499 759 499 608 499 c 0,15,16
 460 499 460 499 308 478 c 1,17,18
 252 281 252 281 210 83 c 1,19,20
 110 57 110 57 15 0 c 1,0,-1
340 587 m 1,21,22
 478 572 478 572 611 572 c 0,23,24
 737 572 737 572 878 585 c 1,25,26
 762 947 762 947 596 1284 c 1,27,28
 447 939 447 939 340 587 c 1,21,22
EndSplineSet
Validated: 1
EndChar

StartChar: C
Encoding: 67 67 33
Width: 1217
VWidth: 0
GlyphClass: 2
Flags: W
HStem: 0 213<617.134 785.043> 1490 20G<557.5 795.5>
VStem: 120 168<579.046 1003.62>
LayerCount: 2
Fore
SplineSet
672 0 m 1,0,1
 443 90 443 90 298 260 c 0,2,3
 120 469 120 469 120 750 c 0,4,5
 120 1021 120 1021 308 1257 c 0,6,7
 443 1427 443 1427 672 1510 c 1,8,-1
 682 1510 l 1,9,10
 909 1422 909 1422 1058 1249 c 1,11,-1
 1054 1238 l 1,12,13
 929 1226 929 1226 852 1174 c 1,14,15
 689 1326 689 1326 443 1365 c 1,16,17
 288 1111 288 1111 288 811 c 0,18,19
 288 535 288 535 502 336 c 0,20,21
 637 213 637 213 805 213 c 128,-1,22
 973 213 973 213 1108 361 c 1,23,-1
 1117 355 l 1,24,25
 970 104 970 104 682 0 c 1,26,-1
 672 0 l 1,0,1
EndSplineSet
Validated: 1
EndChar

StartChar: E
Encoding: 69 69 34
Width: 1099
GlyphClass: 2
Flags: W
HStem: 0 21G<180 293.5 870.5 964.5> 45 71<428.627 811.5> 700 73<391 639.455> 1490 20G<356.5 489.5 898.5 981>
VStem: 224 167<230.531 700 773 1231.35>
LayerCount: 2
Fore
SplineSet
190 0 m 1,0,-1
 180 6 l 1,1,2
 224 364 224 364 224 730 c 0,3,4
 224 1064 224 1064 183 1418 c 1,5,6
 288 1431 288 1431 425 1510 c 1,7,8
 554 1443 554 1443 692 1443 c 0,9,10
 822 1443 822 1443 975 1510 c 1,11,-1
 981 1500 l 1,12,13
 904 1368 904 1368 889 1258 c 1,14,15
 744 1267 744 1267 630 1321 c 0,16,17
 518 1373 518 1373 432 1478 c 1,18,19
 390 1133 390 1133 390 773 c 1,20,21
 620 773 620 773 868 898 c 1,22,-1
 874 888 l 1,23,24
 797 756 797 756 782 646 c 1,25,26
 585 700 585 700 391 700 c 1,27,28
 395 401 395 401 426 135 c 1,29,30
 510 116 510 116 603 116 c 0,31,32
 800 116 800 116 1043 252 c 1,33,-1
 1049 242 l 1,34,35
 972 110 972 110 957 0 c 1,36,37
 784 45 784 45 608 45 c 0,38,39
 397 45 397 45 190 0 c 1,0,-1
EndSplineSet
Validated: 1
EndChar

StartChar: G
Encoding: 71 71 35
Width: 1366
VWidth: 0
GlyphClass: 2
Flags: W
HStem: 0 213<617.134 785.017> 1490 20G<557.5 795.5>
VStem: 120 168<579.046 1003.62> 1012 156<252.371 683.741>
LayerCount: 2
Fore
SplineSet
682 0 m 1,0,-1
 672 0 l 1,1,2
 443 90 443 90 298 260 c 0,3,4
 120 469 120 469 120 750 c 0,5,6
 120 1021 120 1021 308 1257 c 0,7,8
 443 1427 443 1427 672 1510 c 1,9,-1
 682 1510 l 1,10,11
 909 1422 909 1422 1058 1249 c 1,12,-1
 1054 1238 l 1,13,14
 929 1226 929 1226 852 1174 c 1,15,16
 689 1326 689 1326 443 1365 c 1,17,18
 288 1111 288 1111 288 811 c 0,19,20
 288 535 288 535 502 336 c 0,21,22
 637 213 637 213 805 213 c 0,23,24
 914 213 914 213 1009 275 c 1,25,26
 1012 328 1012 328 1012 380 c 0,27,28
 1012 552 1012 552 974 688 c 1,29,30
 1078 703 1078 703 1206 778 c 1,31,-1
 1216 772 l 1,32,33
 1168 618 1168 618 1168 450 c 0,34,35
 1168 259 1168 259 1216 90 c 1,36,37
 1112 75 1112 75 984 0 c 1,38,-1
 974 6 l 1,39,40
 993 109 993 109 1003 203 c 1,41,42
 874 69 874 69 682 0 c 1,0,-1
EndSplineSet
Validated: 1
EndChar

StartChar: H
Encoding: 72 72 36
Width: 1374
GlyphClass: 2
Flags: W
HStem: 0 21G<180 256 939 1015> 721 73<395.502 978.25> 1490 20G<356.5 435 1115.5 1194>
VStem: 180 252<84.1953 593.031 911.582 1425.2> 939 252<84.1953 595.465 920.727 1425.2>
LayerCount: 2
Fore
SplineSet
190 0 m 1,0,-1
 180 6 l 1,1,2
 224 364 224 364 224 730 c 0,3,4
 224 1063 224 1063 183 1418 c 1,5,6
 288 1431 288 1431 425 1510 c 1,7,-1
 435 1504 l 1,8,9
 391 1131 391 1131 391 810 c 1,10,11
 535 794 535 794 687.5 794 c 128,-1,12
 840 794 840 794 983 815 c 1,13,14
 983 1114 983 1114 942 1418 c 1,15,16
 1047 1431 1047 1431 1184 1510 c 1,17,-1
 1194 1504 l 1,18,19
 1150 1154 1150 1154 1149 782 c 0,20,21
 1149 429 1149 429 1191 92 c 1,22,23
 1081 77 1081 77 949 0 c 1,24,-1
 939 6 l 1,25,26
 983 357 983 357 983 704 c 1,27,28
 831 721 831 721 679 721 c 128,-1,29
 527 721 527 721 390 700 c 1,30,31
 390 396 390 396 432 92 c 1,32,33
 322 77 322 77 190 0 c 1,0,-1
EndSplineSet
Validated: 1
EndChar

StartChar: I
Encoding: 73 73 37
Width: 615
GlyphClass: 2
Flags: W
HStem: 0 21G<180 256> 1490 20G<356.5 435>
VStem: 180 252<84.1953 593.031 920.727 1425.2> 224 166<282.828 1230.96>
LayerCount: 2
Fore
SplineSet
190 0 m 1,0,-1
 180 6 l 1,1,2
 224 364 224 364 224 730 c 0,3,4
 224 1063 224 1063 183 1418 c 1,5,6
 288 1431 288 1431 425 1510 c 1,7,-1
 435 1504 l 1,8,9
 391 1154 391 1154 390 782 c 0,10,11
 390 429 390 429 432 92 c 1,12,13
 322 77 322 77 190 0 c 1,0,-1
EndSplineSet
Validated: 1
EndChar

StartChar: L
Encoding: 76 76 38
Width: 1054
GlyphClass: 2
Flags: W
HStem: 0 21G<180 293.5 870.5 964.5> 45 71<428.627 811.5> 1490 20G<356.5 435>
VStem: 183 243<929.627 1426> 224 166<281.437 1231.35>
LayerCount: 2
Fore
SplineSet
190 0 m 1,0,-1
 180 6 l 1,1,2
 224 364 224 364 224 730 c 0,3,4
 224 1064 224 1064 183 1418 c 1,5,6
 288 1431 288 1431 425 1510 c 1,7,-1
 435 1504 l 1,8,9
 390 1146 390 1146 390 782 c 0,10,11
 390 444 390 444 426 135 c 1,12,13
 510 116 510 116 603 116 c 0,14,15
 800 116 800 116 1043 252 c 1,16,-1
 1049 242 l 1,17,18
 972 110 972 110 957 0 c 1,19,20
 784 45 784 45 608 45 c 0,21,22
 397 45 397 45 190 0 c 1,0,-1
EndSplineSet
Validated: 1
EndChar

StartChar: N
Encoding: 78 78 39
Width: 1374
GlyphClass: 2
Flags: W
HStem: 0 21G<180 231 939 1012> 1490 20G<264.5 342 1144.5 1194>
VStem: 222 82<268.167 1073.69> 1069 80<420.125 1193.05>
LayerCount: 2
Fore
SplineSet
190 0 m 1,0,-1
 180 6 l 1,1,2
 222 352 222 352 222 682 c 0,3,4
 222 984 222 984 198 1266 c 1,5,6
 150 1348 150 1348 90 1418 c 1,7,8
 197 1432 197 1432 332 1510 c 1,9,-1
 342 1504 l 1,10,11
 686 757 686 757 1049 278 c 1,12,13
 1069 564 1069 564 1069 836 c 0,14,15
 1069 1162 1069 1162 1029 1438 c 1,16,17
 1105 1464 1105 1464 1184 1510 c 1,18,-1
 1194 1504 l 1,19,20
 1149 1153 1149 1153 1149 782 c 0,21,22
 1149 431 1149 431 1191 92 c 1,23,24
 1075 75 1075 75 949 0 c 1,25,-1
 939 6 l 1,26,27
 579 712 579 712 317 1080 c 1,28,29
 304 878 304 878 304 686 c 0,30,31
 304 368 304 368 342 71 c 1,32,33
 272 47 272 47 190 0 c 1,0,-1
EndSplineSet
Validated: 1
EndChar

StartChar: O
Encoding: 79 79 40
Width: 1354
VWidth: 0
GlyphClass: 2
Flags: W
HStem: 0 21G<557.5 798> 1490 20G<557.5 795.5>
VStem: 120 168<579.046 1003.62> 1066 168<506.879 930.954>
LayerCount: 2
Fore
SplineSet
911 145 m 1,0,1
 1066 399 1066 399 1066 699 c 0,2,3
 1066 975 1066 975 852 1174 c 0,4,5
 689 1326 689 1326 443 1365 c 1,6,7
 288 1111 288 1111 288 811 c 0,8,9
 288 535 288 535 502 336 c 24,10,11
 665 184 665 184 911 145 c 1,0,1
672 0 m 1,12,13
 443 90 443 90 298 260 c 0,14,15
 120 469 120 469 120 750 c 0,16,17
 120 1021 120 1021 308 1257 c 0,18,19
 443 1427 443 1427 672 1510 c 1,20,-1
 682 1510 l 1,21,22
 909 1422 909 1422 1056 1250 c 0,23,24
 1234 1041 1234 1041 1234 760 c 0,25,26
 1234 491 1234 491 1046 253 c 0,27,28
 914 86 914 86 682 0 c 1,29,-1
 672 0 l 1,12,13
EndSplineSet
Validated: 1
EndChar

StartChar: T
Encoding: 84 84 41
Width: 1123
GlyphClass: 2
Flags: W
HStem: 0 21G<431 508.5> 1384 73<227.692 442.296 668.253 834.658> 1490 20G<88.5 221 976.5 1118>
VStem: 475 166<276.062 1228>
LayerCount: 2
Fore
SplineSet
441 0 m 1,0,-1
 431 6 l 1,1,2
 475 364 475 364 475 730 c 0,3,4
 475 1077 475 1077 439 1384 c 1,5,6
 216 1374 216 1374 11 1258 c 1,7,-1
 5 1268 l 1,8,9
 80 1396 80 1396 97 1510 c 1,10,11
 345 1457 345 1457 578 1457 c 0,12,13
 841 1457 841 1457 1112 1510 c 1,14,-1
 1118 1500 l 1,15,16
 1041 1367 1041 1367 1026 1258 c 1,17,18
 862 1364 862 1364 671 1384 c 1,19,20
 641 1086 641 1086 641 782 c 0,21,22
 641 439 641 439 683 92 c 1,23,24
 576 77 576 77 441 0 c 1,0,-1
EndSplineSet
Validated: 1
EndChar

StartChar: V
Encoding: 86 86 42
Width: 1285
GlyphClass: 2
Flags: W
HStem: 0 21G<519 597> 1490 20G<178.5 257 1222.5 1280>
LayerCount: 2
Fore
SplineSet
529 0 m 1,0,-1
 519 6 l 1,1,2
 314 775 314 775 5 1418 c 1,3,4
 110 1431 110 1431 247 1510 c 1,5,-1
 257 1504 l 1,6,7
 394 825 394 825 689 226 c 1,8,9
 945 817 945 817 1075 1427 c 1,10,11
 1175 1453 1175 1453 1270 1510 c 1,12,-1
 1280 1504 l 1,13,14
 944 819 944 819 771 92 c 1,15,16
 665 79 665 79 529 0 c 1,0,-1
EndSplineSet
Validated: 1
EndChar

StartChar: W
Encoding: 87 87 43
Width: 1870
GlyphClass: 2
Flags: W
HStem: 0 21G<519 597 1104 1182> 1490 20G<178.5 257 763.5 842 1222.5 1280 1807.5 1865>
LayerCount: 2
Fore
SplineSet
529 0 m 1,0,-1
 519 6 l 1,1,2
 314 775 314 775 5 1418 c 1,3,4
 110 1431 110 1431 247 1510 c 1,5,-1
 257 1504 l 1,6,7
 394 825 394 825 689 226 c 1,8,9
 806 483 806 483 894 744 c 1,10,11
 765 1100 765 1100 590 1418 c 1,12,13
 695 1431 695 1431 832 1510 c 1,14,-1
 842 1504 l 1,15,16
 886 1230 886 1230 965 970 c 1,17,18
 1031 1197 1031 1197 1075 1427 c 1,19,20
 1175 1453 1175 1453 1270 1510 c 1,21,-1
 1280 1504 l 1,22,23
 1119 1191 1119 1191 998 865 c 1,24,25
 1108 533 1108 533 1274 226 c 1,26,27
 1530 817 1530 817 1660 1427 c 1,28,29
 1760 1453 1760 1453 1855 1510 c 1,30,-1
 1865 1504 l 1,31,32
 1529 819 1529 819 1356 92 c 1,33,34
 1250 79 1250 79 1114 0 c 1,35,-1
 1104 6 l 1,36,37
 1031 345 1031 345 925 656 c 1,38,39
 834 378 834 378 771 92 c 1,40,41
 665 79 665 79 529 0 c 1,0,-1
EndSplineSet
Validated: 1
EndChar

StartChar: bracketleft
Encoding: 91 91 44
Width: 834
GlyphClass: 2
Flags: W
HStem: -249 73<411.657 620>
VStem: 212 165<301.589 1291.33>
LayerCount: 2
Fore
SplineSet
180 -290 m 1,0,-1
 170 -284 l 1,1,2
 212 309 212 309 212 788 c 0,3,4
 212 1216 212 1216 172 1713 c 1,5,6
 293 1727 293 1727 424 1802 c 1,7,8
 497 1750 497 1750 589 1750 c 0,9,10
 685 1750 685 1750 778 1802 c 1,11,-1
 784 1792 l 1,12,13
 707 1660 707 1660 692 1550 c 1,14,15
 620 1565 620 1565 550 1624 c 0,16,17
 470 1691 470 1691 421 1782 c 1,18,19
 377 1265 377 1265 377 796 c 0,20,21
 378 259 378 259 411 -168 c 1,22,23
 432 -176 432 -176 458 -176 c 0,24,25
 622 -176 622 -176 778 -38 c 1,26,-1
 784 -48 l 1,27,28
 707 -180 707 -180 692 -290 c 1,29,30
 578 -249 578 -249 449 -249 c 0,31,32
 316 -249 316 -249 180 -290 c 1,0,-1
EndSplineSet
Validated: 1
EndChar

StartChar: backslash
Encoding: 92 92 45
Width: 1076
GlyphClass: 2
Flags: W
DStem2: 210 1654 866 -144 0.391807 -0.920047<0 1911.27>
LayerCount: 2
Fore
SplineSet
866 -144 m 1,0,1
 691.751 288.327 691.751 288.327 448 777 c 0,2,3
 240 1194 240 1194 10 1578 c 1,4,5
 99 1602 99 1602 200 1660 c 1,6,-1
 210 1654 l 1,7,8
 330.857 1293.22 330.857 1293.22 558 835 c 0,9,10
 789 369 789 369 1066 -68 c 1,11,12
 977 -92 977 -92 876 -150 c 1,13,-1
 866 -144 l 1,0,1
EndSplineSet
Validated: 1
EndChar

StartChar: bracketright
Encoding: 93 93 46
Width: 834
GlyphClass: 2
Flags: W
HStem: 1688 73<214 422.343>
VStem: 457 165<220.668 1210.41>
LayerCount: 2
Fore
SplineSet
56 -290 m 1,0,-1
 50 -280 l 1,1,2
 127 -148 127 -148 142 -38 c 1,3,4
 214 -53 214 -53 284 -112 c 0,5,6
 364 -179 364 -179 413 -270 c 1,7,8
 457 247 457 247 457 716 c 0,9,10
 456 1253 456 1253 423 1680 c 1,11,12
 402 1688 402 1688 376 1688 c 0,13,14
 212 1688 212 1688 56 1550 c 1,15,-1
 50 1560 l 1,16,17
 127 1692 127 1692 142 1802 c 1,18,19
 256 1761 256 1761 385 1761 c 0,20,21
 518 1761 518 1761 654 1802 c 1,22,-1
 664 1796 l 1,23,24
 622 1203 622 1203 622 724 c 0,25,26
 622 296 622 296 662 -201 c 1,27,28
 541 -215 541 -215 410 -290 c 1,29,30
 337 -238 337 -238 245 -238 c 0,31,32
 149 -238 149 -238 56 -290 c 1,0,-1
EndSplineSet
Validated: 1
EndChar

StartChar: asciicircum
Encoding: 94 94 47
Width: 875
GlyphClass: 2
Flags: W
HStem: 955 595
LayerCount: 2
Fore
SplineSet
538 1550 m 1,0,-1
 548 1544 l 1,1,2
 620 1236 620 1236 825 1042 c 1,3,4
 725 1024 725 1024 613 955 c 1,5,-1
 603 961 l 1,6,7
 538 1192 538 1192 406 1347 c 1,8,9
 281 1213 281 1213 216 1027 c 1,10,11
 135 999 135 999 60 955 c 1,12,-1
 50 961 l 1,13,14
 240 1201 240 1201 326 1463 c 1,15,16
 420 1482 420 1482 538 1550 c 1,0,-1
EndSplineSet
Validated: 1
EndChar

StartChar: underscore
Encoding: 95 95 48
Width: 1390
GlyphClass: 2
Flags: W
HStem: -410 173<199.594 572.219 817.242 1190.3> -362 77<281.949 1108.03>
LayerCount: 2
Fore
SplineSet
210 -237 m 1,0,1
 468 -285 468 -285 695 -285 c 0,2,3
 926 -285 926 -285 1234 -237 c 1,4,-1
 1240 -247 l 1,5,6
 1192 -337 1192 -337 1180 -410 c 1,7,8
 922 -362 922 -362 694 -362 c 128,-1,9
 466 -362 466 -362 156 -410 c 1,10,-1
 150 -400 l 1,11,12
 196 -312 196 -312 210 -237 c 1,0,1
EndSplineSet
Validated: 1
EndChar

StartChar: grave
Encoding: 96 96 49
Width: 433
GlyphClass: 2
Flags: W
HStem: 1180 350
VStem: 327 56<1192.96 1224.3>
LayerCount: 2
Fore
SplineSet
250 1530 m 1,0,1
 365 1413 365 1413 383 1205 c 1,2,3
 353 1195 353 1195 337 1180 c 1,4,-1
 327 1180 l 1,5,6
 239 1360 239 1360 50 1428 c 1,7,-1
 55 1438 l 1,8,9
 140 1452 140 1452 250 1530 c 1,0,1
EndSplineSet
Validated: 1
EndChar

StartChar: a
Encoding: 97 97 50
Width: 1109
GlyphClass: 2
Flags: W
HStem: 0 176<412.518 580.917> 661 10<425.187 435> 974 156<442.656 613.745>
VStem: 100 142<336.876 536.865> 752 227<76.6846 197.03> 796 141<255.155 761.777>
LayerCount: 2
Fore
SplineSet
762 0 m 1,0,-1
 752 6 l 1,1,2
 769 105 769 105 779 200 c 1,3,4
 666 70 666 70 484 0 c 1,5,-1
 474 0 l 1,6,7
 330 48 330 48 204 170 c 0,8,9
 100 270 100 270 100 388 c 0,10,11
 100 503 100 503 182 581 c 0,12,13
 277 671 277 671 435 671 c 1,14,-1
 435 661 l 1,15,16
 242 592 242 592 242 468 c 0,17,18
 242 371 242 371 337 278 c 0,19,20
 441 176 441 176 579 176 c 0,21,22
 694 176 694 176 784 251 c 1,23,24
 796 384 796 384 796 511 c 0,25,26
 796 748 796 748 683 872 c 0,27,28
 590 974 590 974 452 974 c 0,29,30
 352 974 352 974 266 935 c 1,31,-1
 261 944 l 1,32,33
 383 1074 383 1074 542 1130 c 1,34,-1
 552 1130 l 1,35,36
 700 1080 700 1080 805 971 c 0,37,38
 937 834 937 834 937 565 c 0,39,40
 937 319 937 319 979 87 c 1,41,42
 880 69 880 69 762 0 c 1,0,-1
EndSplineSet
Validated: 1
EndChar

StartChar: b
Encoding: 98 98 51
Width: 1151
GlyphClass: 2
Flags: W
HStem: 0 21G<534 712> 1021 109<571.898 605> 1490 20G<283 352>
VStem: 171 136<451.5 1123.53> 907 144<350.813 711.783>
LayerCount: 2
Fore
SplineSet
606 0 m 1,0,1
 462 48 462 48 336 170 c 0,2,3
 171 329 171 329 171 652 c 0,4,5
 171 1066 171 1066 130 1423 c 1,6,7
 224 1442 224 1442 342 1510 c 1,8,-1
 352 1504 l 1,9,10
 308 1154 308 1154 307 705 c 0,11,12
 307 417 307 417 482 267 c 0,13,14
 608 159 608 159 793 114 c 1,15,16
 907 287 907 287 907 511 c 0,17,18
 907 726 907 726 740 863 c 0,19,20
 605 974 605 974 408 1021 c 1,21,22
 495 1088 495 1088 606 1130 c 1,23,-1
 616 1130 l 1,24,25
 759 1082 759 1082 886 960 c 0,26,27
 1051 801 1051 801 1051 565 c 0,28,29
 1051 373 1051 373 929 222 c 0,30,31
 808 73 808 73 616 0 c 1,32,-1
 606 0 l 1,0,1
EndSplineSet
Validated: 1
EndChar

StartChar: c
Encoding: 99 99 52
Width: 993
VWidth: 0
GlyphClass: 2
Flags: W
HStem: 0 176<477.243 640.469> 1110 20G<437 616.5>
VStem: 100 144<425.085 778.463>
LayerCount: 2
Fore
SplineSet
535 0 m 1,0,1
 391 48 391 48 265 170 c 0,2,3
 100 329 100 329 100 565 c 0,4,5
 100 754 100 754 222 908 c 0,6,7
 339 1056 339 1056 535 1130 c 1,8,-1
 545 1130 l 1,9,10
 688 1082 688 1082 815 960 c 1,11,-1
 812 948 l 1,12,13
 709 932 709 932 642 885 c 1,14,15
 525 976 525 976 358 1016 c 1,16,17
 244 843 244 843 244 619 c 0,18,19
 244 427 244 427 387 289 c 0,20,21
 502 176 502 176 640 176 c 0,22,23
 794 176 794 176 903 310 c 1,24,-1
 913 303 l 1,25,26
 793 96 793 96 545 0 c 1,27,-1
 535 0 l 1,0,1
EndSplineSet
Validated: 1
EndChar

StartChar: d
Encoding: 100 100 53
Width: 1165
GlyphClass: 2
Flags: W
HStem: 0 176<477.422 642.559> 1110 20G<437 607> 1490 20G<943.5 1015>
VStem: 100 144<425.085 778.463> 800 212<75.5625 174.313 955.167 1433.52> 841 129<321.169 723.5 864 1249.6>
LayerCount: 2
Fore
SplineSet
841 525 m 0,0,1
 841 739 841 739 671 891 c 0,2,3
 556 994 556 994 358 1016 c 1,4,5
 244 843 244 843 244 619 c 0,6,7
 244 427 244 427 387 289 c 0,8,9
 504 176 504 176 640 176 c 0,10,11
 742 176 742 176 824 234 c 1,12,13
 841 374 841 374 841 525 c 0,0,1
535 0 m 1,14,15
 391 48 391 48 265 170 c 0,16,17
 100 329 100 329 100 565 c 0,18,19
 100 754 100 754 222 908 c 0,20,21
 339 1056 339 1056 535 1130 c 1,22,-1
 545 1130 l 1,23,24
 669 1097 669 1097 756 1005 c 0,25,26
 809 949 809 949 842 864 c 1,27,28
 835 1141 835 1141 803 1423 c 1,29,30
 882 1439 882 1439 1005 1510 c 1,31,-1
 1015 1504 l 1,32,33
 971 1154 971 1154 970 782 c 0,34,35
 970 424 970 424 1012 87 c 1,36,37
 933 71 933 71 810 0 c 1,38,-1
 800 6 l 1,39,40
 810 91 810 91 818 177 c 1,41,42
 710 64 710 64 545 0 c 1,43,-1
 535 0 l 1,14,15
EndSplineSet
Validated: 1
EndChar

StartChar: e
Encoding: 101 101 54
Width: 1019
VWidth: 0
GlyphClass: 2
Flags: W
HStem: 0 176<477.422 640.469> 459 10<584 593.813> 1110 20G<437 616.5>
VStem: 100 144<425.085 778.463> 777 142<593.135 793.952>
LayerCount: 2
Fore
SplineSet
535 0 m 1,0,1
 391 48 391 48 265 170 c 0,2,3
 100 329 100 329 100 565 c 0,4,5
 100 754 100 754 222 908 c 0,6,7
 339 1056 339 1056 535 1130 c 1,8,-1
 545 1130 l 1,9,10
 688 1082 688 1082 815 960 c 0,11,12
 919 860 919 860 919 742 c 0,13,14
 919 627 919 627 837 549 c 0,15,16
 742 459 742 459 584 459 c 1,17,18
 584 469 l 1,19,20
 777 538 777 538 777 662 c 0,21,22
 777 772 777 772 669 863 c 0,23,24
 543 970 543 970 358 1016 c 1,25,26
 244 843 244 843 244 619 c 0,27,28
 244 427 244 427 387 289 c 0,29,30
 504 176 504 176 640 176 c 0,31,32
 794 176 794 176 903 310 c 1,33,-1
 913 303 l 1,34,35
 793 96 793 96 545 0 c 1,36,-1
 535 0 l 1,0,1
EndSplineSet
Validated: 1
EndChar

StartChar: g
Encoding: 103 103 55
Width: 1153
GlyphClass: 2
Flags: W
HStem: -380 21G<463.5 641> 0 109<546 579.102> 1110 20G<439 617>
VStem: 100 144<418.217 779.187> 839 141<94.4307 694.5>
LayerCount: 2
Fore
SplineSet
535 0 m 1,0,1
 392 48 392 48 265 170 c 0,2,3
 100 329 100 329 100 565 c 0,4,5
 100 757 100 757 222 908 c 0,6,7
 343 1057 343 1057 535 1130 c 1,8,-1
 545 1130 l 1,9,10
 689 1082 689 1082 815 960 c 0,11,12
 980 800 980 800 980 535 c 0,13,14
 980 325 980 325 1023 87 c 1,15,16
 969 -35 969 -35 863 -152 c 0,17,18
 737 -291 737 -291 545 -380 c 1,19,-1
 535 -380 l 1,20,21
 392 -332 392 -332 265 -210 c 1,22,23
 268 -198 l 1,24,25
 371 -182 371 -182 438 -135 c 1,26,27
 555 -226 555 -226 722 -266 c 1,28,29
 777 -162 777 -162 804 -35 c 0,30,31
 839 130 839 130 839 481 c 0,32,33
 839 717 839 717 669 863 c 0,34,35
 543 971 543 971 358 1016 c 1,36,37
 244 843 244 843 244 619 c 0,38,39
 244 404 244 404 411 267 c 0,40,41
 546 156 546 156 743 109 c 1,42,43
 656 42 656 42 545 0 c 1,44,-1
 535 0 l 1,0,1
EndSplineSet
Validated: 1
EndChar

StartChar: h
Encoding: 104 104 56
Width: 1170
GlyphClass: 2
Flags: W
HStem: 0 21G<150 219 813 882> 974 156<502.969 674.745> 1490 20G<306 375>
VStem: 150 222<76.3428 558.877 963.778 1432.74> 194 136<310.417 950.236 955 1201.5> 857 141<94.2534 761.777>
LayerCount: 2
Fore
SplineSet
160 0 m 1,0,-1
 150 6 l 1,1,2
 194 364 194 364 194 730 c 0,3,4
 194 1065 194 1065 153 1423 c 1,5,6
 247 1442 247 1442 365 1510 c 1,7,-1
 375 1504 l 1,8,9
 341 1236 341 1236 333 955 c 1,10,11
 452 1077 452 1077 603 1130 c 1,12,-1
 613 1130 l 1,13,14
 761 1080 761 1080 866 971 c 0,15,16
 998 834 998 834 998 565 c 0,17,18
 998 319 998 319 1040 87 c 1,19,20
 941 69 941 69 823 0 c 1,21,-1
 813 6 l 1,22,23
 857 269 857 269 857 511 c 0,24,25
 857 748 857 748 744 872 c 0,26,27
 651 974 651 974 513 974 c 0,28,29
 401 974 401 974 332 928 c 1,30,31
 330 856 330 856 330 782 c 0,32,33
 330 424 330 424 372 87 c 1,34,35
 278 68 278 68 160 0 c 1,0,-1
EndSplineSet
Validated: 1
EndChar

StartChar: i
Encoding: 105 105 57
Width: 525
GlyphClass: 2
Flags: W
HStem: 0 21G<150 219.5> 1110 20G<305.5 375> 1200 297<185.006 338.994>
VStem: 133 258<1251.27 1446.99> 150 222<75.761 531.533 548.213 583.479 599.636 1053.32> 194 136<116.16 1012.91>
LayerCount: 2
Fore
SplineSet
259 1497 m 1,0,-1
 265 1497 l 1,1,2
 312 1481 312 1481 346 1447 c 0,3,4
 391 1404 391 1404 391 1349 c 0,5,6
 391 1290 391 1290 339 1244 c 0,7,8
 307 1217 307 1217 265 1200 c 1,9,-1
 259 1200 l 1,10,11
 217 1217 217 1217 185 1244 c 0,12,13
 133 1289 133 1289 133 1349 c 0,14,15
 133 1405 133 1405 178 1447 c 0,16,17
 212 1481 212 1481 259 1497 c 1,0,-1
160 0 m 1,18,-1
 150 6 l 1,19,20
 194 269 194 269 194 540 c 0,21,22
 194 803 194 803 153 1043 c 1,23,24
 246 1061 246 1061 365 1130 c 1,25,-1
 375 1124 l 1,26,27
 330 836 330 836 330 592 c 0,28,29
 330 319 330 319 372 87 c 1,30,31
 279 69 279 69 160 0 c 1,18,-1
EndSplineSet
Validated: 1
EndChar

StartChar: j
Encoding: 106 106 58
Width: 545
GlyphClass: 2
Flags: W
HStem: -380 21G<30 105> 1110 20G<325.5 395> 1200 297<205.006 358.994>
VStem: 153 258<1251.12 1446.99> 173 219<548.213 583.479 599.636 1054.24> 214 136<116.16 1012.91>
LayerCount: 2
Fore
SplineSet
279 1497 m 1,0,-1
 285 1497 l 1,1,2
 330 1482 330 1482 366 1447 c 0,3,4
 411 1404 411 1404 411 1349 c 0,5,6
 411 1288 411 1288 359 1244 c 0,7,8
 327 1217 327 1217 285 1200 c 1,9,-1
 279 1200 l 1,10,11
 237 1217 237 1217 205 1244 c 0,12,13
 153 1289 153 1289 153 1349 c 0,14,15
 153 1405 153 1405 198 1447 c 0,16,17
 232 1481 232 1481 279 1497 c 1,0,-1
39 -380 m 1,18,-1
 30 -374 l 1,19,20
 152 -172 152 -172 186 78 c 0,21,22
 214 283 214 283 214 540 c 0,23,24
 214 803 214 803 173 1043 c 1,25,26
 266 1061 266 1061 385 1130 c 1,27,-1
 395 1124 l 1,28,29
 350 836 350 836 350 592 c 0,30,31
 350 319 350 319 392 87 c 1,32,33
 339 -36 339 -36 258 -152 c 0,34,35
 171 -276 171 -276 39 -380 c 1,18,-1
EndSplineSet
Validated: 1
EndChar

StartChar: k
Encoding: 107 107 59
Width: 1052
GlyphClass: 2
Flags: W
HStem: 0 21G<150 219 820 889> 1110 20G<717.5 836> 1490 20G<306 375>
VStem: 150 222<76.3428 422.595 943.697 1432.74> 194 136<580 1201.5>
LayerCount: 2
Fore
SplineSet
160 0 m 1,0,-1
 150 6 l 1,1,2
 194 364 194 364 194 730 c 0,3,4
 194 1065 194 1065 153 1423 c 1,5,6
 247 1442 247 1442 365 1510 c 1,7,-1
 375 1504 l 1,8,9
 331 1154 331 1154 330 782 c 0,10,11
 330 680 330 680 333 580 c 1,12,13
 609 809 609 809 826 1130 c 5,14,-1
 836 1129 l 1,15,16
 895 1070 895 1070 953 1045 c 1,17,18
 743 889 743 889 603 732 c 1,19,20
 769 390 769 390 1042 87 c 1,21,22
 948 68 948 68 830 0 c 1,23,-1
 820 6 l 1,24,25
 680 375 680 375 479 602 c 1,26,27
 419 538 419 538 341 428 c 1,28,29
 351 255 351 255 372 87 c 1,30,31
 278 68 278 68 160 0 c 1,0,-1
EndSplineSet
Validated: 1
EndChar

StartChar: l
Encoding: 108 108 60
Width: 525
GlyphClass: 2
Flags: W
HStem: 0 21G<150 219> 1490 20G<306 375>
VStem: 150 222<76.3428 558.877 943.697 1432.74> 194 136<310.417 1201.5>
LayerCount: 2
Fore
SplineSet
160 0 m 1,0,-1
 150 6 l 1,1,2
 194 364 194 364 194 730 c 0,3,4
 194 1065 194 1065 153 1423 c 1,5,6
 247 1442 247 1442 365 1510 c 1,7,-1
 375 1504 l 1,8,9
 331 1154 331 1154 330 782 c 0,10,11
 330 424 330 424 372 87 c 1,12,13
 278 68 278 68 160 0 c 1,0,-1
EndSplineSet
Validated: 1
EndChar

StartChar: m
Encoding: 109 109 61
Width: 1813
GlyphClass: 2
Flags: W
HStem: 0 21G<150 219.5 814 883 1456 1525> 974 156<503.906 674.745 1111.01 1317.63>
VStem: 150 222<75.761 531.533 548.213 583.479 978.282 1053.32> 194 136<116.16 933.286> 857 141<94.438 760.5> 1500 141<94.2534 761.777>
LayerCount: 2
Fore
SplineSet
160 0 m 1,0,-1
 150 6 l 1,1,2
 194 269 194 269 194 540 c 0,3,4
 194 803 194 803 153 1043 c 1,5,6
 246 1061 246 1061 365 1130 c 1,7,-1
 375 1124 l 1,8,9
 363 1049 363 1049 355 976 c 1,10,11
 466 1081 466 1081 603 1130 c 1,12,-1
 613 1130 l 1,13,14
 761 1080 761 1080 866 971 c 0,15,16
 881 955 881 955 894 938 c 1,17,18
 1039 1085 1039 1085 1246 1130 c 1,19,-1
 1256 1130 l 1,20,21
 1404 1080 1404 1080 1509 971 c 0,22,23
 1641 834 1641 834 1641 565 c 0,24,25
 1641 319 1641 319 1683 87 c 1,26,27
 1584 69 1584 69 1466 0 c 1,28,-1
 1456 6 l 1,29,30
 1500 269 1500 269 1500 511 c 0,31,32
 1500 748 1500 748 1387 872 c 0,33,34
 1294 974 1294 974 1155 974 c 0,35,36
 1027 974 1027 974 912 913 c 1,37,38
 998 782 998 782 998 565 c 0,39,40
 998 325 998 325 1041 87 c 1,41,42
 942 69 942 69 824 0 c 1,43,-1
 814 6 l 1,44,45
 857 269 857 269 857 511 c 0,46,47
 857 748 857 748 744 872 c 0,48,49
 651 974 651 974 513 974 c 0,50,51
 415 974 415 974 350 939 c 1,52,53
 330 756 330 756 330 592 c 0,54,55
 330 319 330 319 372 87 c 1,56,57
 279 69 279 69 160 0 c 1,0,-1
EndSplineSet
Validated: 1
EndChar

StartChar: n
Encoding: 110 110 62
Width: 1171
GlyphClass: 2
Flags: W
HStem: 0 21G<150 219.5 814 883> 974 156<503.906 674.745>
VStem: 150 222<75.761 531.533 548.213 583.479 978.282 1053.32> 194 136<116.16 933.286> 857 141<94.438 761.777>
LayerCount: 2
Fore
SplineSet
160 0 m 1,0,-1
 150 6 l 1,1,2
 194 269 194 269 194 540 c 0,3,4
 194 803 194 803 153 1043 c 1,5,6
 246 1061 246 1061 365 1130 c 1,7,-1
 375 1124 l 1,8,9
 363 1049 363 1049 355 976 c 1,10,11
 466 1081 466 1081 603 1130 c 1,12,-1
 613 1130 l 1,13,14
 761 1080 761 1080 866 971 c 0,15,16
 998 834 998 834 998 565 c 0,17,18
 998 325 998 325 1041 87 c 1,19,20
 942 69 942 69 824 0 c 1,21,-1
 814 6 l 1,22,23
 857 269 857 269 857 511 c 0,24,25
 857 748 857 748 744 872 c 0,26,27
 651 974 651 974 513 974 c 0,28,29
 415 974 415 974 350 939 c 1,30,31
 330 756 330 756 330 592 c 0,32,33
 330 319 330 319 372 87 c 1,34,35
 279 69 279 69 160 0 c 1,0,-1
EndSplineSet
Validated: 1
EndChar

StartChar: o
Encoding: 111 111 63
Width: 1080
GlyphClass: 2
Flags: W
HStem: 0 21G<463 641> 1110 20G<438.5 616.5>
VStem: 100 144<422.768 778.463> 836 144<350.813 707.232>
LayerCount: 2
Fore
SplineSet
722 114 m 1,0,1
 836 287 836 287 836 511 c 0,2,3
 836 721 836 721 669 863 c 0,4,5
 543 970 543 970 358 1016 c 1,6,7
 244 843 244 843 244 619 c 0,8,9
 244 409 244 409 411 267 c 0,10,11
 537 160 537 160 722 114 c 1,0,1
535 0 m 1,12,13
 391 48 391 48 265 170 c 0,14,15
 100 329 100 329 100 565 c 0,16,17
 100 754 100 754 222 908 c 0,18,19
 342 1057 342 1057 535 1130 c 1,20,-1
 545 1130 l 1,21,22
 688 1082 688 1082 815 960 c 0,23,24
 980 801 980 801 980 565 c 0,25,26
 980 373 980 373 858 222 c 0,27,28
 737 73 737 73 545 0 c 1,29,-1
 535 0 l 1,12,13
EndSplineSet
Validated: 1
EndChar

StartChar: p
Encoding: 112 112 64
Width: 1165
GlyphClass: 2
Flags: W
HStem: -380 21G<150 221.5> 0 21G<558 728> 954 176<522.441 687.578>
VStem: 150 212<-304.438 174.833 955.687 1053.52> 195 129<-119.596 266 406.5 808.831> 921 144<351.537 704.915>
LayerCount: 2
Fore
SplineSet
324 605 m 0,0,1
 324 391 324 391 494 239 c 0,2,3
 610 136 610 136 807 114 c 1,4,5
 921 287 921 287 921 511 c 0,6,7
 921 703 921 703 778 841 c 0,8,9
 661 954 661 954 525 954 c 0,10,11
 423 954 423 954 341 896 c 1,12,13
 324 756 324 756 324 605 c 0,0,1
620 0 m 1,14,15
 496 33 496 33 409 125 c 0,16,17
 356 181 356 181 323 266 c 1,18,19
 330 -11 330 -11 362 -293 c 1,20,21
 283 -309 283 -309 160 -380 c 1,22,-1
 150 -374 l 1,23,24
 194 -24 194 -24 195 348 c 0,25,26
 195 706 195 706 153 1043 c 1,27,28
 232 1059 232 1059 355 1130 c 1,29,-1
 365 1124 l 1,30,31
 355 1039 355 1039 347 953 c 1,32,33
 455 1066 455 1066 620 1130 c 1,34,-1
 630 1130 l 1,35,36
 774 1082 774 1082 900 960 c 0,37,38
 1065 801 1065 801 1065 565 c 0,39,40
 1065 376 1065 376 943 222 c 0,41,42
 826 74 826 74 630 0 c 1,43,-1
 620 0 l 1,14,15
EndSplineSet
Validated: 1
EndChar

StartChar: q
Encoding: 113 113 65
Width: 1151
GlyphClass: 2
Flags: W
HStem: -380 21G<799 868> 0 109<546 579.102> 1110 20G<439 617>
VStem: 100 144<418.217 779.187> 844 136<6.46973 678.5>
LayerCount: 2
Fore
SplineSet
535 0 m 1,0,1
 392 48 392 48 265 170 c 0,2,3
 100 329 100 329 100 565 c 0,4,5
 100 757 100 757 222 908 c 0,6,7
 343 1057 343 1057 535 1130 c 1,8,-1
 545 1130 l 1,9,10
 689 1082 689 1082 815 960 c 0,11,12
 980 801 980 801 980 478 c 0,13,14
 980 64 980 64 1021 -293 c 1,15,16
 927 -312 927 -312 809 -380 c 1,17,-1
 799 -374 l 1,18,19
 843 -24 843 -24 844 425 c 0,20,21
 844 713 844 713 669 863 c 0,22,23
 543 971 543 971 358 1016 c 1,24,25
 244 843 244 843 244 619 c 0,26,27
 244 404 244 404 411 267 c 0,28,29
 546 156 546 156 743 109 c 1,30,31
 656 42 656 42 545 0 c 1,32,-1
 535 0 l 1,0,1
EndSplineSet
Validated: 1
EndChar

StartChar: r
Encoding: 114 114 66
Width: 909
VWidth: 0
GlyphClass: 2
Flags: W
HStem: 0 21G<150 219.5> 974 156<503.906 671.835>
VStem: 150 222<75.761 531.533 548.213 583.479 978.282 1053.32> 194 136<116.16 933.286>
LayerCount: 2
Fore
SplineSet
160 0 m 1,0,-1
 150 6 l 1,1,2
 194 269 194 269 194 540 c 0,3,4
 194 803 194 803 153 1043 c 1,5,6
 246 1061 246 1061 365 1130 c 1,7,-1
 375 1124 l 1,8,9
 363 1049 363 1049 355 976 c 1,10,11
 466 1081 466 1081 603 1130 c 1,12,-1
 613 1130 l 1,13,14
 790 1070 790 1070 899 932 c 1,15,-1
 896 920 l 1,16,17
 805 906 805 906 747 869 c 1,18,19
 651 974 651 974 513 974 c 0,20,21
 415 974 415 974 350 939 c 1,22,23
 330 756 330 756 330 592 c 0,24,25
 330 319 330 319 372 87 c 1,26,27
 279 69 279 69 160 0 c 1,0,-1
EndSplineSet
Validated: 1
EndChar

StartChar: s
Encoding: 115 115 67
Width: 894
VWidth: 0
GlyphClass: 2
Flags: W
HStem: 0 21G<372.5 551> 1110 20G<391.5 536.5>
VStem: 142 103<812.221 953.389> 677 137<230.403 415.721>
DStem2: 417 730 331 583 0.909881 -0.414868<-193.179 355.08>
LayerCount: 2
Fore
SplineSet
445 0 m 1,0,1
 300 50 300 50 175 170 c 0,2,3
 114 228 114 228 80 291 c 1,4,-1
 83 303 l 1,5,6
 190 319 190 319 238 356 c 1,7,8
 275 306 275 306 321 267 c 0,9,10
 447 160 447 160 632 114 c 1,11,12
 677 201 677 201 677 290 c 0,13,14
 677 425 677 425 524 495 c 2,15,-1
 331 583 l 2,16,17
 142 669 142 669 142 823 c 0,18,19
 142 934 142 934 262 1031 c 0,20,21
 338 1092 338 1092 445 1130 c 1,22,-1
 455 1130 l 1,23,24
 618 1092 618 1092 744 930 c 1,25,-1
 741 918 l 1,26,27
 639 901 639 901 581 862 c 1,28,29
 488 991 488 991 296 1029 c 1,30,31
 245 973 245 973 245 898 c 0,32,33
 245 808 245 808 417 730 c 2,34,-1
 593 650 l 2,35,36
 814 550 814 550 814 380 c 0,37,38
 814 282 814 282 743 192 c 0,39,40
 647 72 647 72 455 0 c 1,41,-1
 445 0 l 1,0,1
EndSplineSet
Validated: 1
EndChar

StartChar: t
Encoding: 116 116 68
Width: 731
GlyphClass: 2
Flags: W
HStem: 0 21G<258 329.5> 984 146<57.3936 286.493 441.221 673.606> 1490 20G<401.5 473>
VStem: 258 212<75.5625 558.877 1101.5 1433.52> 302 126<321.169 1019>
LayerCount: 2
Fore
SplineSet
268 0 m 1,0,-1
 258 6 l 1,1,2
 302 364 302 364 302 730 c 0,3,4
 302 873 302 873 295 1019 c 1,5,6
 159 1013 159 1013 16 984 c 1,7,-1
 10 994 l 1,8,9
 53 1066 53 1066 75 1130 c 1,10,11
 182 1104 182 1104 290 1096 c 1,12,13
 280 1257 280 1257 261 1423 c 1,14,15
 340 1439 340 1439 463 1510 c 1,16,-1
 473 1504 l 1,17,18
 448 1303 448 1303 437 1095 c 1,19,20
 572 1101 572 1101 715 1130 c 1,21,-1
 721 1120 l 1,22,23
 678 1048 678 1048 656 984 c 1,24,25
 546 1011 546 1011 433 1019 c 1,26,27
 428 902 428 902 428 782 c 0,28,29
 428 424 428 424 470 87 c 1,30,31
 391 71 391 71 268 0 c 1,0,-1
EndSplineSet
Validated: 1
EndChar

StartChar: u
Encoding: 117 117 69
Width: 1171
GlyphClass: 2
Flags: W
HStem: 0 156<496.255 667.094> 1110 20G<288 357 951.5 1021>
VStem: 173 141<368.223 1035.56> 796 222<75.761 151.718 546.521 581.787 598.467 1053.32> 841 136<196.714 1013.84>
LayerCount: 2
Fore
SplineSet
558 0 m 1,0,1
 410 50 410 50 305 159 c 0,2,3
 173 296 173 296 173 565 c 0,4,5
 173 805 173 805 130 1043 c 1,6,7
 229 1061 229 1061 347 1130 c 1,8,-1
 357 1124 l 1,9,10
 314 861 314 861 314 619 c 0,11,12
 314 382 314 382 427 258 c 0,13,14
 520 156 520 156 658 156 c 0,15,16
 756 156 756 156 821 191 c 1,17,18
 841 374 841 374 841 538 c 0,19,20
 841 811 841 811 799 1043 c 1,21,22
 892 1061 892 1061 1011 1130 c 1,23,-1
 1021 1124 l 1,24,25
 977 861 977 861 977 590 c 0,26,27
 977 327 977 327 1018 87 c 1,28,29
 925 69 925 69 806 0 c 1,30,-1
 796 6 l 1,31,32
 808 81 808 81 816 154 c 1,33,34
 705 49 705 49 568 0 c 1,35,-1
 558 0 l 1,0,1
EndSplineSet
Validated: 1
EndChar

StartChar: v
Encoding: 118 118 70
Width: 1027
GlyphClass: 2
Flags: W
HStem: 0 21G<403 472> 1110 20G<154.5 227 974.5 1022>
LayerCount: 2
Fore
SplineSet
413 0 m 1,0,-1
 403 6 l 1,1,2
 274 590 274 590 5 1043 c 1,3,4
 92 1059 92 1059 217 1130 c 1,5,-1
 227 1124 l 1,6,7
 338 578 338 578 549 195 c 1,8,9
 746 611 746 611 856 1058 c 1,10,11
 937 1086 937 1086 1012 1130 c 1,12,-1
 1022 1124 l 1,13,14
 754 584 754 584 625 87 c 1,15,16
 531 68 531 68 413 0 c 1,0,-1
EndSplineSet
Validated: 1
EndChar

StartChar: w
Encoding: 119 119 71
Width: 1813
GlyphClass: 2
Flags: W
HStem: 0 156<495.373 701.986 1138.25 1309.09> 1110 20G<288 357 930 999 1593.5 1663>
VStem: 172 141<368.223 1035.75> 815 141<369.5 1035.56> 1438 222<75.761 151.718 546.521 581.787 598.467 1053.32> 1483 136<196.714 1013.84>
LayerCount: 2
Fore
SplineSet
1653 1130 m 1,0,-1
 1663 1124 l 1,1,2
 1619 861 1619 861 1619 590 c 0,3,4
 1619 327 1619 327 1660 87 c 1,5,6
 1567 69 1567 69 1448 0 c 1,7,-1
 1438 6 l 1,8,9
 1450 81 1450 81 1458 154 c 1,10,11
 1347 49 1347 49 1210 0 c 1,12,-1
 1200 0 l 1,13,14
 1052 50 1052 50 947 159 c 0,15,16
 932 175 932 175 919 192 c 1,17,18
 774 45 774 45 567 0 c 1,19,-1
 557 0 l 1,20,21
 409 50 409 50 304 159 c 0,22,23
 172 296 172 296 172 565 c 0,24,25
 172 811 172 811 130 1043 c 1,26,27
 229 1061 229 1061 347 1130 c 1,28,-1
 357 1124 l 1,29,30
 313 861 313 861 313 619 c 0,31,32
 313 382 313 382 426 258 c 0,33,34
 519 156 519 156 658 156 c 0,35,36
 786 156 786 156 901 217 c 1,37,38
 815 348 815 348 815 565 c 0,39,40
 815 805 815 805 772 1043 c 1,41,42
 871 1061 871 1061 989 1130 c 1,43,-1
 999 1124 l 1,44,45
 956 861 956 861 956 619 c 0,46,47
 956 382 956 382 1069 258 c 0,48,49
 1162 156 1162 156 1300 156 c 0,50,51
 1398 156 1398 156 1463 191 c 1,52,53
 1483 374 1483 374 1483 538 c 0,54,55
 1483 811 1483 811 1441 1043 c 1,56,57
 1534 1061 1534 1061 1653 1130 c 1,0,-1
EndSplineSet
Validated: 1
EndChar

StartChar: x
Encoding: 120 120 72
Width: 978
GlyphClass: 2
Flags: W
HStem: 0 21G<10 85 721 796> 1110 20G<187 263 882 958>
LayerCount: 2
Fore
SplineSet
20 0 m 1,0,-1
 10 6 l 1,1,2
 267 291 267 291 418 536 c 1,3,4
 250 809 250 809 18 1038 c 1,5,6
 121 1053 121 1053 253 1130 c 1,7,-1
 263 1124 l 1,8,9
 347 883 347 883 502 646 c 1,10,11
 635 846 635 846 713 1038 c 1,12,13
 816 1053 816 1053 948 1130 c 1,14,-1
 958 1124 l 1,15,16
 702 834 702 834 547 583 c 1,17,18
 736 298 736 298 968 91 c 1,19,20
 861 77 861 77 731 0 c 1,21,-1
 721 6 l 1,22,23
 618 249 618 249 464 468 c 1,24,25
 339 285 339 285 257 91 c 1,26,27
 150 77 150 77 20 0 c 1,0,-1
EndSplineSet
Validated: 1
EndChar

StartChar: y
Encoding: 121 121 73
Width: 1170
GlyphClass: 2
Flags: W
HStem: -380 21G<795 864> 0 156<495.255 667.031> 1110 20G<288 357 951 1020>
VStem: 172 141<368.223 1035.75> 795 222<-303.657 166.222 571.123 1052.74> 840 136<-71.4961 175 179.764 819.583>
LayerCount: 2
Fore
SplineSet
557 0 m 1,0,1
 409 50 409 50 304 159 c 0,2,3
 172 296 172 296 172 565 c 0,4,5
 172 811 172 811 130 1043 c 1,6,7
 229 1061 229 1061 347 1130 c 1,8,-1
 357 1124 l 1,9,10
 313 861 313 861 313 619 c 0,11,12
 313 382 313 382 426 258 c 0,13,14
 519 156 519 156 657 156 c 0,15,16
 769 156 769 156 838 202 c 1,17,18
 840 274 840 274 840 348 c 0,19,20
 840 706 840 706 798 1043 c 1,21,22
 892 1062 892 1062 1010 1130 c 1,23,-1
 1020 1124 l 1,24,25
 976 766 976 766 976 400 c 0,26,27
 976 65 976 65 1017 -293 c 1,28,29
 923 -312 923 -312 805 -380 c 1,30,-1
 795 -374 l 1,31,32
 829 -106 829 -106 837 175 c 1,33,34
 718 53 718 53 567 0 c 1,35,-1
 557 0 l 1,0,1
EndSplineSet
Validated: 1
EndChar

StartChar: z
Encoding: 122 122 74
Width: 969
GlyphClass: 2
Flags: W
HStem: 0 21G<50 159.5 756 856.5> 45 72<349.345 785.003> 1014 72<229.866 601.65> 1110 20G<160.5 259 790.5 898>
LayerCount: 2
Fore
SplineSet
56 0 m 1,0,-1
 50 10 l 1,1,2
 416 522 416 522 604 999 c 1,3,4
 529 1014 529 1014 428 1014 c 0,5,6
 263 1014 263 1014 104 918 c 1,7,-1
 98 928 l 1,8,9
 154 1036 154 1036 167 1130 c 1,10,11
 351 1086 351 1086 522 1086 c 0,12,13
 689 1086 689 1086 892 1130 c 1,14,-1
 898 1120 l 1,15,16
 550 632 550 632 346 139 c 1,17,18
 453 117 453 117 564 117 c 0,19,20
 756 117 756 117 913 212 c 1,21,-1
 919 202 l 1,22,23
 863 94 863 94 850 0 c 1,24,25
 662 45 662 45 486 45 c 0,26,27
 263 45 263 45 56 0 c 1,0,-1
EndSplineSet
Validated: 1
EndChar

StartChar: braceleft
Encoding: 123 123 75
Width: 997
GlyphClass: 2
Flags: W
HStem: 672 152<144.403 284>
VStem: 284 146<429.418 672 824 1275.27>
LayerCount: 2
Fore
SplineSet
719 -345 m 1,0,1
 569 -217 569 -217 453 -13 c 0,2,3
 284 284 284 284 284 672 c 1,4,5
 159 672 159 672 56 642 c 1,6,-1
 50 652 l 1,7,8
 123 774 123 774 142 854 c 1,9,10
 219 824 219 824 284 824 c 1,11,12
 284 1130 284 1130 355 1392 c 0,13,14
 459 1774 459 1774 779 1927 c 1,15,16
 842 1887 842 1887 887 1824 c 128,-1,17
 932 1761 932 1761 947 1689 c 1,18,19
 876 1631 876 1631 825 1515 c 1,20,-1
 815 1515 l 1,21,22
 794 1618 794 1618 753 1688 c 0,23,24
 707 1765 707 1765 638 1796 c 1,25,26
 519 1648 519 1648 475 1399 c 0,27,28
 430 1143 430 1143 430 832 c 0,29,30
 430 413 430 413 590 105 c 0,31,32
 685 -79 685 -79 842 -198 c 1,33,34
 855 -155 855 -155 855 -99 c 0,35,36
 855 -46 855 -46 820 0 c 1,37,-1
 826 6 l 1,38,39
 881 -51 881 -51 947 -69 c 1,40,41
 911 -167 911 -167 866 -223 c 0,42,43
 801 -303 801 -303 719 -345 c 1,0,1
EndSplineSet
Validated: 1
EndChar

StartChar: bar
Encoding: 124 124 76
Width: 620
GlyphClass: 2
Flags: W
VStem: 200 220<-72.0947 408.064 1104.65 1582.94> 244 132<350.064 1184.42>
LayerCount: 2
Fore
SplineSet
410 1660 m 1,0,-1
 420 1654 l 1,1,2
 376 1265 376 1265 376 817 c 0,3,4
 376 377 376 377 420 -61 c 1,5,6
 324 -81 324 -81 210 -150 c 1,7,-1
 200 -144 l 1,8,9
 244 288 244 288 244 716.5 c 128,-1,10
 244 1145 244 1145 200 1571 c 1,11,12
 285 1588 285 1588 410 1660 c 1,0,-1
EndSplineSet
Validated: 1
EndChar

StartChar: braceright
Encoding: 125 125 77
Width: 997
GlyphClass: 2
Flags: W
HStem: 758 152<713 852.597>
VStem: 567 146<306.73 758 910 1152.58>
LayerCount: 2
Fore
SplineSet
278 1927 m 1,0,1
 428 1799 428 1799 544 1595 c 0,2,3
 713 1298 713 1298 713 910 c 1,4,5
 838 910 838 910 941 940 c 1,6,-1
 947 930 l 1,7,8
 874 808 874 808 855 728 c 1,9,10
 778 758 778 758 713 758 c 1,11,12
 713 452 713 452 642 190 c 0,13,14
 538 -192 538 -192 218 -345 c 1,15,16
 155 -305 155 -305 110 -242 c 128,-1,17
 65 -179 65 -179 50 -107 c 1,18,19
 121 -49 121 -49 172 67 c 1,20,-1
 182 67 l 1,21,22
 203 -36 203 -36 244 -106 c 0,23,24
 290 -183 290 -183 359 -214 c 1,25,26
 478 -66 478 -66 522 183 c 0,27,28
 567 439 567 439 567 750 c 0,29,30
 567 1169 567 1169 407 1477 c 0,31,32
 312 1661 312 1661 155 1780 c 1,33,34
 142 1737 142 1737 142 1681 c 0,35,36
 142 1628 142 1628 177 1582 c 1,37,-1
 171 1576 l 1,38,39
 116 1633 116 1633 50 1651 c 1,40,41
 86 1749 86 1749 131 1805 c 0,42,43
 196 1885 196 1885 278 1927 c 1,0,1
EndSplineSet
Validated: 1
EndChar

StartChar: asciitilde
Encoding: 126 126 78
Width: 1236
GlyphClass: 2
Flags: W
HStem: 529 173<716.917 938.004> 692 173<297.996 519.083>
LayerCount: 2
Fore
SplineSet
393 865 m 0,0,1
 483 865 483 865 553 790 c 0,2,3
 636 702 636 702 763 702 c 0,4,5
 934 702 934 702 1080 856 c 1,6,-1
 1086 846 l 1,7,8
 1013 702 1013 702 996 592 c 1,9,10
 924 529 924 529 843 529 c 0,11,12
 753 529 753 529 683 604 c 0,13,14
 600 692 600 692 473 692 c 0,15,16
 302 692 302 692 156 538 c 1,17,-1
 150 548 l 1,18,19
 223 692 223 692 240 802 c 1,20,21
 312 865 312 865 393 865 c 0,0,1
EndSplineSet
Validated: 1
EndChar

StartChar: exclamdown
Encoding: 161 161 80
Width: 612
GlyphClass: 2
Flags: W
HStem: -380 21G<170 247> 833 297<229.006 382.994>
VStem: 177 258<884.267 1079.99> 258 96<347.821 760.75>
LayerCount: 2
Fore
SplineSet
303 1130 m 1,0,-1
 309 1130 l 1,1,2
 356 1114 356 1114 390 1080 c 0,3,4
 435 1037 435 1037 435 982 c 0,5,6
 435 923 435 923 383 877 c 0,7,8
 351 850 351 850 309 833 c 1,9,-1
 303 833 l 1,10,11
 261 850 261 850 229 877 c 0,12,13
 177 922 177 922 177 982 c 0,14,15
 177 1038 177 1038 222 1080 c 0,16,17
 256 1114 256 1114 303 1130 c 1,0,-1
180 -380 m 1,18,-1
 170 -374 l 1,19,20
 215 -87 215 -87 237 212 c 0,21,22
 258 497 258 497 258 743 c 1,23,24
 304 755 304 755 343 790 c 1,25,-1
 354 784 l 1,26,27
 354 498 354 498 376 215 c 0,28,29
 399 -75 399 -75 442 -288 c 1,30,31
 314 -301 314 -301 180 -380 c 1,18,-1
EndSplineSet
Validated: 1
EndChar

StartChar: sterling
Encoding: 163 163 81
Width: 1169
GlyphClass: 2
Flags: W
HStem: 0 21G<200 313.5 899.5 984.5> 45 72<448.012 849.955> 695 72<411 751.373> 1490 20G<587 793.5>
VStem: 243 168<192.188 690 778 1021.08>
LayerCount: 2
Fore
SplineSet
210 0 m 1,0,-1
 200 6 l 1,1,2
 240 333 240 333 243 690 c 1,3,4
 176 681 176 681 106 658 c 1,5,-1
 100 668 l 1,6,7
 143 740 143 740 165 804 c 1,8,9
 206 786 206 786 244 778 c 1,10,11
 240 931 240 931 220 1024 c 1,12,13
 246 1131 246 1131 377 1288 c 0,14,15
 504 1441 504 1441 670 1510 c 1,16,-1
 680 1510 l 1,17,18
 907 1422 907 1422 1056 1249 c 1,19,-1
 1052 1238 l 1,20,21
 927 1226 927 1226 850 1174 c 1,22,23
 683 1329 683 1329 482 1368 c 1,24,25
 414 1054 414 1054 410 768 c 1,26,27
 449 767 449 767 468 767 c 0,28,29
 636 767 636 767 815 804 c 1,30,-1
 821 794 l 1,31,32
 778 722 778 722 756 658 c 1,33,34
 608 695 608 695 453 695 c 0,35,36
 440 695 440 695 411 694 c 1,37,38
 416 388 416 388 446 126 c 1,39,40
 510 117 510 117 623 117 c 0,41,42
 851 117 851 117 1063 252 c 1,43,-1
 1069 242 l 1,44,45
 992 110 992 110 977 0 c 1,46,47
 822 45 822 45 628 45 c 0,48,49
 417 45 417 45 210 0 c 1,0,-1
EndSplineSet
Validated: 1
EndChar

StartChar: currency
Encoding: 164 164 82
Width: 1261
GlyphClass: 2
Flags: W
VStem: 253 100<717.895 932.611> 900 99<584.476 799.041>
LayerCount: 2
Fore
SplineSet
418 1032 m 1,0,1
 353 964 353 964 353 841 c 0,2,3
 353 701 353 701 569 576 c 0,4,5
 676 514 676 514 835 485 c 1,6,7
 900 553 900 553 900 676 c 0,8,9
 900 816 900 816 685 941 c 0,10,11
 579 1003 579 1003 418 1032 c 1,0,1
619 1188 m 1,12,-1
 633 1188 l 1,13,14
 761 1142 761 1142 858 1053 c 1,15,16
 916 1116 916 1116 966 1187 c 1,17,18
 1027 1157 1027 1157 1108 1137 c 1,19,-1
 1111 1125 l 1,20,21
 1011 1052 1011 1052 929 975 c 1,22,23
 999 877 999 877 999 758 c 0,24,25
 999 634 999 634 920 531 c 1,26,27
 974 472 974 472 1061 416 c 1,28,29
 1031 355 1031 355 1011 274 c 1,30,-1
 999 271 l 1,31,32
 921 381 921 381 847 456 c 0,33,-1
 847 455 l 0,34,35
 753 376 753 376 633 327 c 1,36,-1
 619 327 l 1,37,38
 501 375 501 375 409 452 c 1,39,40
 356 398 356 398 295 311 c 1,41,42
 234 341 234 341 153 361 c 1,43,-1
 150 373 l 1,44,45
 259 453 259 453 335 526 c 1,46,47
 253 630 253 630 253 758 c 0,48,49
 253 876 253 876 323 974 c 1,50,51
 259 1035 259 1035 185 1086 c 1,52,53
 215 1147 215 1147 235 1228 c 1,54,-1
 247 1231 l 1,55,56
 317 1133 317 1133 394 1053 c 1,57,58
 491 1143 491 1143 619 1188 c 1,12,-1
EndSplineSet
Validated: 1
EndChar

StartChar: yen
Encoding: 165 165 83
Width: 1265
GlyphClass: 2
Flags: W
HStem: 0 21G<509 587> 365 146<197.394 526.309 736.917 1046.61> 401 75<220.184 531 732 1024.22> 579 146<195.394 436.188 817.881 1044.61> 615 73<678 694> 1490 20G<223.5 302 1157.5 1215>
VStem: 546 183<96.7815 399>
LayerCount: 2
Fore
SplineSet
519 0 m 1,0,-1
 509 6 l 1,1,2
 543 219 543 219 546 401 c 1,3,4
 354 396 354 396 156 365 c 1,5,-1
 150 375 l 1,6,7
 193 447 193 447 215 511 c 1,8,9
 381 483 381 483 531 476 c 1,10,11
 505 544 505 544 476 613 c 1,12,13
 317 605 317 605 154 579 c 1,14,-1
 148 589 l 1,15,16
 191 661 191 661 213 725 c 1,17,18
 331 705 331 705 440 696 c 1,19,20
 278 1063 278 1063 50 1418 c 1,21,22
 155 1431 155 1431 292 1510 c 1,23,-1
 302 1504 l 1,24,25
 424 1053 424 1053 634 688 c 1,26,27
 680 688 680 688 732 691 c 1,28,29
 908 1058 908 1058 1010 1427 c 1,30,31
 1110 1453 1110 1453 1205 1510 c 1,32,-1
 1215 1504 l 1,33,34
 979 1105 979 1105 814 696 c 1,35,36
 938 705 938 705 1086 725 c 1,37,-1
 1092 715 l 1,38,39
 1049 643 1049 643 1027 579 c 1,40,41
 902 601 902 601 781 610 c 1,42,43
 756 544 756 544 732 477 c 1,44,45
 889 484 889 484 1088 511 c 1,46,-1
 1094 501 l 1,47,48
 1051 429 1051 429 1029 365 c 1,49,50
 876 392 876 392 729 399 c 1,51,52
 734 245 734 245 761 92 c 1,53,54
 655 79 655 79 519 0 c 1,0,-1
694 615 m 1,55,56
 686 615 686 615 678 615 c 1,57,58
 683 607 683 607 687 600 c 1,59,60
 690 608 690 608 694 615 c 1,55,56
EndSplineSet
Validated: 1
EndChar

StartChar: brokenbar
Encoding: 166 166 84
Width: 644
GlyphClass: 2
Flags: W
VStem: 212 220<-74.302 175.796 863.472 1079.22 1334.2 1584.3> 260 124<-47.8926 631.973 878.027 1557.89>
LayerCount: 2
Fore
SplineSet
422 1660 m 1,0,-1
 432 1654 l 1,1,2
 384 1416 384 1416 384 1240.5 c 128,-1,3
 384 1065 384 1065 420 872 c 1,4,5
 352 857 352 857 210 783 c 1,6,-1
 200 789 l 1,7,8
 260 977 260 977 260 1169 c 128,-1,9
 260 1361 260 1361 212 1571 c 1,10,11
 287 1589 287 1589 422 1660 c 1,0,-1
222 -150 m 1,12,-1
 212 -144 l 1,13,14
 260 94 260 94 260 269.5 c 128,-1,15
 260 445 260 445 224 638 c 1,16,17
 292 653 292 653 434 727 c 1,18,-1
 444 721 l 1,19,20
 384 533 384 533 384 341 c 128,-1,21
 384 149 384 149 432 -61 c 1,22,23
 357 -79 357 -79 222 -150 c 1,12,-1
EndSplineSet
Validated: 1
EndChar

StartChar: section
Encoding: 167 167 85
Width: 1028
VWidth: 0
GlyphClass: 2
Flags: W
HStem: 0 21G<427.5 572.5> 1490 20G<455.5 600.5>
VStem: 150 117<724.577 896.619> 206 103<1184.45 1333.39> 719 103<176.611 325.547> 761 117<613.381 785.423>
DStem2: 437 630 374 485 0.909881 -0.414868<-173.069 385.766> 478 1105 398 968 0.909881 -0.414868<-189.037 369.23>
LayerCount: 2
Fore
SplineSet
519 0 m 1,0,-1
 509 0 l 1,1,2
 346 38 346 38 220 200 c 1,3,-1
 223 212 l 1,4,5
 325 229 325 229 383 268 c 1,6,7
 476 139 476 139 668 101 c 1,8,9
 719 157 719 157 719 232 c 0,10,11
 719 328 719 328 550 405 c 2,12,-1
 374 485 l 2,13,14
 150 587 150 587 150 750 c 0,15,16
 150 840 150 840 221 938 c 0,17,18
 250 978 250 978 298 1015 c 1,19,-1
 305 1007 l 1,20,21
 267 930 267 930 267 851 c 0,22,23
 267 708 267 708 437 630 c 2,24,-1
 630 542 l 2,25,26
 822 454 822 454 822 307 c 0,27,28
 822 196 822 196 702 99 c 0,29,30
 626 38 626 38 519 0 c 1,0,-1
509 1510 m 1,31,-1
 519 1510 l 1,32,33
 682 1472 682 1472 808 1310 c 1,34,-1
 805 1298 l 1,35,36
 703 1281 703 1281 645 1242 c 1,37,38
 552 1371 552 1371 360 1409 c 1,39,40
 309 1353 309 1353 309 1278 c 0,41,42
 309 1182 309 1182 478 1105 c 2,43,-1
 654 1025 l 2,44,45
 878 923 878 923 878 760 c 0,46,47
 878 670 878 670 807 572 c 0,48,49
 778 532 778 532 730 495 c 1,50,-1
 723 503 l 1,51,52
 761 580 761 580 761 659 c 0,53,54
 761 802 761 802 591 880 c 2,55,-1
 398 968 l 2,56,57
 206 1056 206 1056 206 1203 c 0,58,59
 206 1314 206 1314 326 1411 c 0,60,61
 402 1472 402 1472 509 1510 c 1,31,-1
EndSplineSet
Validated: 1
EndChar

StartChar: dieresis
Encoding: 168 168 86
Width: 566
GlyphClass: 2
Flags: W
HStem: 1230 237<81.6406 224.359 341.641 484.359>
VStem: 50 206<1262.4 1435.1> 310 206<1262.4 1435.1>
LayerCount: 2
Fore
SplineSet
411 1467 m 1,0,-1
 415 1467 l 1,1,2
 453 1454 453 1454 480 1427 c 0,3,4
 516 1393 516 1393 516 1349 c 0,5,6
 516 1302 516 1302 475 1265 c 0,7,8
 449 1244 449 1244 415 1230 c 1,9,-1
 411 1230 l 1,10,11
 373 1246 373 1246 351 1265 c 0,12,13
 310 1300 310 1300 310 1349 c 0,14,15
 310 1394 310 1394 346 1427 c 0,16,17
 373 1454 373 1454 411 1467 c 1,0,-1
151 1467 m 1,18,-1
 155 1467 l 1,19,20
 193 1454 193 1454 220 1427 c 0,21,22
 256 1393 256 1393 256 1349 c 0,23,24
 256 1302 256 1302 215 1265 c 0,25,26
 189 1244 189 1244 155 1230 c 1,27,-1
 151 1230 l 1,28,29
 113 1246 113 1246 91 1265 c 0,30,31
 50 1300 50 1300 50 1349 c 0,32,33
 50 1394 50 1394 86 1427 c 0,34,35
 113 1454 113 1454 151 1467 c 1,18,-1
EndSplineSet
Validated: 1
EndChar

StartChar: copyright
Encoding: 169 169 87
Width: 1401
GlyphClass: 2
Flags: W
HStem: 386 73<514.363 878.202> 572 141<640.015 813.141> 1453 77<516.855 884.866>
VStem: 150 74<768.815 1151.31> 401 115<837.762 1115.15> 1176 75<757.376 1158.43>
LayerCount: 2
Fore
SplineSet
695 1320 m 1,0,1
 781 1299 781 1299 828 1266 c 0,2,3
 900 1215 900 1215 940 1155 c 1,4,5
 874 1145 874 1145 804 1098 c 1,6,-1
 794 1104 l 1,7,8
 765 1134 765 1134 731 1157 c 0,9,10
 667 1201 667 1201 559 1215 c 1,11,12
 516 1114 516 1114 516 990 c 0,13,14
 516 826 516 826 667 741 c 0,15,16
 717 713 717 713 787 713 c 0,17,18
 894 713 894 713 962 787 c 1,19,-1
 974 780 l 1,20,21
 959 746 959 746 938 721 c 0,22,23
 851 610 851 610 695 572 c 1,24,-1
 685 572 l 1,25,26
 586 604 586 604 510 676 c 0,27,28
 401 780 401 780 401 942 c 0,29,30
 401 1085 401 1085 503 1194 c 0,31,32
 573 1269 573 1269 685 1320 c 1,33,-1
 695 1320 l 1,0,1
701 1530 m 0,34,35
 943 1530 943 1530 1099 1357 c 0,36,37
 1251 1188 1251 1188 1251 953 c 0,38,39
 1251 701 1251 701 1090 549 c 0,40,41
 919 386 919 386 699 386 c 0,42,43
 476 386 476 386 311 549 c 0,44,45
 150 708 150 708 150 953 c 0,46,47
 150 1197 150 1197 308 1362 c 0,48,49
 469 1530 469 1530 701 1530 c 0,34,35
699 1453 m 0,50,51
 509 1453 509 1453 367 1312 c 0,52,53
 224 1170 224 1170 224 953 c 0,54,55
 224 760 224 760 364 605 c 0,56,57
 495 459 495 459 701 459 c 0,58,59
 892 459 892 459 1037 605 c 0,60,61
 1176 745 1176 745 1176 953 c 0,62,63
 1176 1174 1176 1174 1039 1309 c 0,64,65
 893 1453 893 1453 699 1453 c 0,50,51
EndSplineSet
Validated: 1
EndChar

StartChar: ordfeminine
Encoding: 170 170 88
Width: 821
GlyphClass: 2
Flags: W
HStem: 757 146<97.3936 397.778 407.996 413.035 423.191 723.176> 784 92<119.504 700.558> 959 109<330.056 400> 1288 25<347.07 412.028> 1466 84<358.773 419.819>
VStem: 168 110<1117.61 1261.62> 525 114<1070.63 1377.58>
LayerCount: 2
Fore
SplineSet
50 767 m 1,0,1
 93 839 93 839 115 903 c 1,2,3
 259 876 259 876 418 876 c 0,4,5
 584 876 584 876 765 903 c 1,6,-1
 771 893 l 1,7,8
 728 821 728 821 705 757 c 1,9,10
 563 784 563 784 403 784 c 0,11,12
 236 784 236 784 56 757 c 1,13,-1
 50 767 l 1,0,1
388 1550 m 1,14,-1
 398 1550 l 1,15,16
 476 1524 476 1524 548 1463 c 0,17,18
 639 1385 639 1385 639 1265 c 0,19,20
 639 1109 639 1109 668 1028 c 1,21,22
 596 1015 596 1015 507 959 c 1,23,-1
 498 962 l 1,24,25
 508 1005 508 1005 511 1036 c 1,26,-1
 400 959 l 1,27,-1
 387 959 l 1,28,29
 304 982 304 982 242 1028 c 0,30,31
 168 1082 168 1082 168 1163 c 128,-1,32
 168 1244 168 1244 236 1287 c 0,33,34
 277 1313 277 1313 325 1313 c 0,35,36
 378 1313 378 1313 420 1298 c 1,37,-1
 420 1288 l 1,38,39
 358 1288 358 1288 319 1261 c 0,40,41
 278 1233 278 1233 278 1190 c 0,42,43
 278 1140 278 1140 347 1102 c 0,44,45
 409 1068 409 1068 515 1068 c 1,46,47
 525 1152 525 1152 525 1246 c 128,-1,48
 525 1340 525 1340 468 1391 c 0,49,50
 392 1458 392 1458 250 1466 c 1,51,52
 308 1515 308 1515 388 1550 c 1,14,-1
EndSplineSet
Validated: 1
EndChar

StartChar: guillemotleft
Encoding: 171 171 89
Width: 1373
GlyphClass: 2
Flags: W
LayerCount: 2
Fore
SplineSet
689 1263 m 1,0,-1
 695 1253 l 1,1,2
 629 1146 629 1146 591 1041 c 1,3,4
 408 932 408 932 297 792 c 1,5,6
 421 545 421 545 689 445 c 1,7,-1
 695 435 l 1,8,9
 616 298 616 298 603 193 c 1,10,11
 412 499 412 499 156 620 c 1,12,-1
 150 630 l 1,13,14
 229 766 229 766 242 872 c 1,15,16
 465 1001 465 1001 689 1263 c 1,0,-1
1167 1263 m 1,17,-1
 1173 1253 l 1,18,19
 1107 1146 1107 1146 1069 1041 c 1,20,21
 886 932 886 932 775 792 c 1,22,23
 899 545 899 545 1167 445 c 1,24,-1
 1173 435 l 1,25,26
 1094 298 1094 298 1081 193 c 1,27,28
 890 499 890 499 634 620 c 1,29,-1
 628 630 l 1,30,31
 707 766 707 766 720 872 c 1,32,33
 943 1001 943 1001 1167 1263 c 1,17,-1
EndSplineSet
Validated: 1
EndChar

StartChar: logicalnot
Encoding: 172 172 90
Width: 1266
GlyphClass: 2
Flags: W
HStem: 693 106<293.333 958.935>
LayerCount: 2
Fore
SplineSet
237 857 m 1,0,1
 447 799 447 799 646.5 799 c 128,-1,2
 846 799 846 799 1110 857 c 1,3,-1
 1116 847 l 1,4,5
 1031 675 1031 675 1001 485 c 1,6,7
 929 464 929 464 831 408 c 1,8,-1
 821 414 l 1,9,10
 927 525 927 525 966 651 c 1,11,12
 801 693 801 693 620 693 c 0,13,14
 387 693 387 693 156 635 c 1,15,-1
 150 645 l 1,16,17
 218 763 218 763 237 857 c 1,0,1
EndSplineSet
Validated: 1
EndChar

StartChar: uni00AD
Encoding: 173 173 91
Width: 1266
GlyphClass: 2
Flags: W
HStem: 635 222<226.343 411.101 854.899 1039.66> 693 106<291.699 974.301>
LayerCount: 2
Fore
SplineSet
237 857 m 1,0,1
 447 799 447 799 646.5 799 c 128,-1,2
 846 799 846 799 1110 857 c 1,3,-1
 1116 847 l 1,4,5
 1048 729 1048 729 1029 635 c 1,6,7
 819 693 819 693 619.5 693 c 128,-1,8
 420 693 420 693 156 635 c 1,9,-1
 150 645 l 1,10,11
 218 763 218 763 237 857 c 1,0,1
EndSplineSet
Validated: 1
EndChar

StartChar: registered
Encoding: 174 174 92
Width: 1401
GlyphClass: 2
Flags: W
HStem: 386 73<514.363 878.202> 780 44<587.944 750.229> 1129 21G<345 438.5> 1244 132<475.222 788.951> 1453 77<516.855 884.866>
VStem: 150 74<768.815 1151.31> 455 127<608.508 798 848.126 1098.84> 873 132<913.67 1161.14> 1176 75<757.376 1158.43>
LayerCount: 2
Fore
SplineSet
699 1453 m 0,0,1
 509 1453 509 1453 367 1312 c 0,2,3
 224 1170 224 1170 224 953 c 0,4,5
 224 760 224 760 364 605 c 0,6,7
 495 459 495 459 701 459 c 0,8,9
 892 459 892 459 1037 605 c 0,10,11
 1176 745 1176 745 1176 953 c 0,12,13
 1176 1174 1176 1174 1039 1309 c 0,14,15
 893 1453 893 1453 699 1453 c 0,0,1
701 1530 m 0,16,17
 943 1530 943 1530 1099 1357 c 0,18,19
 1251 1188 1251 1188 1251 953 c 0,20,21
 1251 701 1251 701 1090 549 c 0,22,23
 919 386 919 386 699 386 c 0,24,25
 476 386 476 386 311 549 c 0,26,27
 150 708 150 708 150 953 c 0,28,29
 150 1197 150 1197 308 1362 c 0,30,31
 469 1530 469 1530 701 1530 c 0,16,17
402 1312 m 1,32,33
 534 1376 534 1376 657 1376 c 0,34,35
 822 1376 822 1376 915 1284 c 0,36,37
 1005 1195 1005 1195 1005 1068 c 0,38,39
 1005 980 1005 980 961 914 c 0,40,41
 923 858 923 858 867 824 c 1,42,43
 934 712 934 712 1049 624 c 1,44,45
 971 597 971 597 890 544 c 1,46,-1
 880 550 l 1,47,48
 815 695 815 695 742 782 c 1,49,50
 723 780 723 780 703 780 c 0,51,52
 635 780 635 780 587 798 c 1,53,54
 592 686 592 686 610 606 c 1,55,56
 531 596 531 596 438 542 c 1,57,-1
 428 548 l 1,58,59
 455 691 455 691 455 830.5 c 128,-1,60
 455 970 455 970 432 1103 c 1,61,62
 511 1113 511 1113 604 1167 c 1,63,-1
 614 1161 l 1,64,65
 582 1031 582 1031 582 925 c 0,66,67
 582 883 582 883 585 847 c 1,68,69
 623 824 623 824 669 824 c 0,70,71
 757 824 757 824 810 876 c 0,72,73
 873 938 873 938 873 1031 c 0,74,75
 873 1127 873 1127 802 1190 c 0,76,77
 741 1244 741 1244 651 1244 c 0,78,79
 522 1244 522 1244 355 1129 c 1,80,-1
 345 1135 l 1,81,82
 382 1212 382 1212 402 1312 c 1,32,33
EndSplineSet
Validated: 1
EndChar

StartChar: macron
Encoding: 175 175 93
Width: 620
GlyphClass: 2
Flags: W
HStem: 1303 72<118.127 502.245>
VStem: 56 508
LayerCount: 2
Fore
SplineSet
115 1412 m 5,0,1
 215 1375 215 1375 323 1375 c 132,-1,2
 431 1375 431 1375 564 1412 c 5,3,-1
 570 1402 l 5,4,5
 527 1330 527 1330 505 1266 c 5,6,7
 417 1303 417 1303 308 1303 c 4,8,9
 189 1303 189 1303 56 1266 c 5,10,-1
 50 1276 l 5,11,12
 93 1348 93 1348 115 1412 c 5,0,1
EndSplineSet
Validated: 1
EndChar

StartChar: degree
Encoding: 176 176 94
Width: 674
GlyphClass: 2
Flags: W
HStem: 887 663
VStem: 50 77<1183.2 1359.81> 548 76<1079.52 1253.96>
LayerCount: 2
Fore
SplineSet
342 1550 m 1,0,1
 446 1513 446 1513 524 1438 c 0,2,3
 624 1343 624 1343 624 1219 c 0,4,5
 624 1087 624 1087 507 986 c 0,6,7
 435 925 435 925 342 887 c 1,8,-1
 332 887 l 1,9,10
 239 925 239 925 167 986 c 0,11,12
 50 1085 50 1085 50 1219 c 0,13,14
 50 1343 50 1343 150 1438 c 0,15,16
 228 1513 228 1513 332 1550 c 1,17,-1
 342 1550 l 1,0,1
177 1430 m 1,18,19
 127 1378 127 1378 127 1283 c 0,20,21
 127 1175 127 1175 293 1079 c 24,22,23
 375 1031 375 1031 498 1009 c 1,24,25
 548 1061 548 1061 548 1156 c 0,26,27
 548 1264 548 1264 382 1360 c 24,28,29
 300 1408 300 1408 177 1430 c 1,18,19
EndSplineSet
Validated: 1
EndChar

StartChar: plusminus
Encoding: 177 177 95
Width: 1266
GlyphClass: 2
Flags: W
HStem: 162 222<226.343 411.101 854.899 1039.66> 220 106<291.699 974.301> 796 222<226.343 413.473 852.527 1039.66>
VStem: 522 222<500.343 687.473 1126.53 1313.66>
LayerCount: 2
Fore
SplineSet
734 1390 m 9,0,-1
 744 1384 l 1,1,2
 692 1146 692 1146 687 961 c 1,3,4
 872 966 872 966 1110 1018 c 1,5,-1
 1116 1008 l 1,6,7
 1048 890 1048 890 1029 796 c 1,8,9
 855 844 855 844 688 852 c 1,10,11
 696 685 696 685 744 511 c 1,12,13
 650 492 650 492 532 424 c 1,14,-1
 522 430 l 1,15,16
 574 668 574 668 579 853 c 1,17,18
 394 848 394 848 156 796 c 1,19,-1
 150 806 l 1,20,21
 218 924 218 924 237 1018 c 1,22,23
 411 970 411 970 578 962 c 1,24,25
 570 1129 570 1129 522 1303 c 1,26,27
 616 1322 616 1322 734 1390 c 9,0,-1
237 384 m 1,28,29
 447 326 447 326 646.5 326 c 128,-1,30
 846 326 846 326 1110 384 c 1,31,-1
 1116 374 l 1,32,33
 1048 256 1048 256 1029 162 c 1,34,35
 819 220 819 220 619.5 220 c 128,-1,36
 420 220 420 220 156 162 c 1,37,-1
 150 172 l 1,38,39
 218 290 218 290 237 384 c 1,28,29
EndSplineSet
Validated: 1
EndChar

StartChar: uni00B2
Encoding: 178 178 96
Width: 635
GlyphClass: 2
Flags: W
HStem: 776 83<143.449 532.792>
VStem: 52 103<1244.23 1407.58> 435 133<1166.21 1347.67>
LayerCount: 2
Fore
SplineSet
299 1550 m 1,0,-1
 309 1550 l 1,1,2
 395 1523 395 1523 472 1462 c 0,3,4
 568 1385 568 1385 568 1269 c 0,5,6
 568 1151 568 1151 397 1056 c 0,7,8
 262 981 262 981 140 879 c 1,9,10
 239 859 239 859 346 859 c 0,11,12
 464 859 464 859 580 922 c 1,13,-1
 585 915 l 1,14,15
 543 832 543 832 537 744 c 1,16,17
 417 776 417 776 306 776 c 128,-1,18
 195 776 195 776 63 744 c 1,19,-1
 55 750 l 1,20,21
 50 772 50 772 50 794 c 0,22,23
 50 894 50 894 160 984 c 0,24,25
 205 1021 205 1021 361 1139 c 0,26,27
 435 1195 435 1195 435 1258 c 128,-1,28
 435 1321 435 1321 355 1376 c 0,29,30
 274 1431 274 1431 174 1449 c 1,31,32
 155 1411 155 1411 155 1361 c 0,33,34
 155 1287 155 1287 221 1268 c 1,35,36
 160 1255 160 1255 100 1202 c 1,37,-1
 90 1208 l 1,38,39
 52 1244 52 1244 52 1289 c 0,40,41
 52 1373 52 1373 136 1452 c 0,42,43
 197 1509 197 1509 299 1550 c 1,0,-1
EndSplineSet
Validated: 1
EndChar

StartChar: uni00B3
Encoding: 179 179 97
Width: 642
GlyphClass: 2
Flags: W
VStem: 104 100<1285.29 1438.77> 426 105<1256.75 1398.72> 486 106<892.051 1071.4>
DStem2: 524 1161 411 1094 0.850672 -0.525696<-385.306 -354.385 -120.284 50.4954>
LayerCount: 2
Fore
SplineSet
313 1550 m 1,0,1
 323 1550 l 1,2,3
 384 1530 384 1530 434 1498 c 0,4,5
 531 1437 531 1437 531 1354 c 0,6,7
 531 1259 531 1259 408 1207 c 1,8,9
 471 1204 471 1204 524 1161 c 0,10,11
 592 1105 592 1105 592 1018 c 0,12,13
 592 925 592 925 508 848 c 0,14,15
 430 777 430 777 323 744 c 1,16,-1
 313 744 l 1,17,18
 229 782 229 782 179 818 c 0,19,20
 120 860 120 860 50 938 c 1,21,-1
 54 949 l 1,22,23
 112 951 112 951 187 978 c 1,24,25
 223 939 223 939 267 909 c 0,26,27
 352 851 352 851 438 825 c 1,28,29
 486 881 486 881 486 970 c 0,30,31
 486 1049 486 1049 411 1094 c 0,32,33
 346 1133 346 1133 245 1148 c 1,34,-1
 245 1156 l 1,35,36
 426 1222 426 1222 426 1310 c 0,37,38
 426 1374 426 1374 359.5 1414.5 c 128,-1,39
 293 1455 293 1455 227 1460 c 1,40,41
 204 1421 204 1421 204 1377.5 c 128,-1,42
 204 1334 204 1334 255 1310 c 1,43,44
 202 1297 202 1297 154 1253 c 1,45,-1
 144 1259 l 1,46,47
 104 1287 104 1287 104 1344 c 0,48,49
 104 1408 104 1408 189 1477 c 0,50,51
 247 1524 247 1524 313 1550 c 1,0,1
EndSplineSet
Validated: 1
EndChar

StartChar: acute
Encoding: 180 180 98
Width: 433
GlyphClass: 2
Flags: W
HStem: 1180 350
VStem: 50 56<1192.96 1224.3>
LayerCount: 2
Fore
SplineSet
183 1530 m 1,0,1
 293 1452 293 1452 378 1438 c 1,2,-1
 383 1428 l 1,3,4
 194 1360 194 1360 106 1180 c 1,5,6
 96 1180 l 1,7,8
 80 1195 80 1195 50 1205 c 1,9,10
 68 1413 68 1413 183 1530 c 1,0,1
EndSplineSet
Validated: 1
EndChar

StartChar: periodcentered
Encoding: 183 183 99
Width: 358
GlyphClass: 2
Flags: W
HStem: 607 297<102.006 255.994>
VStem: 50 258<658.267 853.991>
LayerCount: 2
Fore
SplineSet
182 904 m 1,0,1
 229 888 229 888 263 854 c 0,2,3
 308 811 308 811 308 756 c 0,4,5
 308 697 308 697 256 651 c 0,6,7
 224 624 224 624 182 607 c 1,8,-1
 176 607 l 1,9,10
 134 624 134 624 102 651 c 0,11,12
 50 696 50 696 50 756 c 0,13,14
 50 812 50 812 95 854 c 0,15,16
 129 888 129 888 176 904 c 1,17,-1
 182 904 l 1,0,1
EndSplineSet
Validated: 1
EndChar

StartChar: cedilla
Encoding: 184 184 100
Width: 406
GlyphClass: 2
Flags: W
HStem: -380 164<100.12 207.685>
VStem: 102 97<-14.8557 68> 214 142<-207.58 -64.2158>
LayerCount: 2
Fore
SplineSet
102 68 m 1,0,-1
 199 68 l 1,1,-1
 199 0 l 1,2,3
 356 -46 356 -46 356 -189 c 0,4,5
 356 -380 356 -380 56 -380 c 1,6,-1
 50 -370 l 1,7,8
 99 -290 99 -290 110 -216 c 1,9,10
 214 -216 214 -216 214 -154 c 0,11,12
 214 -75 214 -75 102 0 c 1,13,-1
 102 68 l 1,0,-1
EndSplineSet
Validated: 1
EndChar

StartChar: uni00B9
Encoding: 185 185 101
Width: 545
GlyphClass: 2
Flags: W
VStem: 280 128<829.379 1389.87>
LayerCount: 2
Fore
SplineSet
435 1550 m 1,0,-1
 445 1544 l 1,1,2
 408 1375 408 1375 408 1185.5 c 128,-1,3
 408 996 408 996 444 824 c 1,4,5
 343 803 343 803 255 744 c 1,6,-1
 245 750 l 1,7,8
 280 901 280 901 280 1127 c 0,9,10
 280 1262 280 1262 263 1394 c 1,11,12
 198 1323 198 1323 158 1237 c 1,13,14
 115 1258 115 1258 50 1267 c 1,15,16
 153 1346 153 1346 245 1473 c 1,17,18
 353 1494 353 1494 435 1550 c 1,0,-1
EndSplineSet
Validated: 1
EndChar

StartChar: ordmasculine
Encoding: 186 186 102
Width: 820
GlyphClass: 2
Flags: W
HStem: 757 146<97.3936 397.778 407.965 413.035 423.16 722.176> 784 92<119.504 699.558>
VStem: 160 108<1160.95 1403.14> 552 108<1096.56 1344.82>
LayerCount: 2
Fore
SplineSet
50 767 m 1,0,1
 93 839 93 839 115 903 c 1,2,3
 259 876 259 876 418 876 c 0,4,5
 583 876 583 876 764 903 c 1,6,-1
 770 893 l 1,7,8
 727 821 727 821 704 757 c 1,9,10
 562 784 562 784 403 784 c 0,11,12
 236 784 236 784 56 757 c 1,13,-1
 50 767 l 1,0,1
404 1550 m 1,14,-1
 415 1550 l 1,15,16
 511 1519 511 1519 572 1458 c 0,17,18
 660 1371 660 1371 660 1244 c 0,19,20
 660 1138 660 1138 582 1054 c 0,21,22
 513 980 513 980 415 942 c 1,23,-1
 405 942 l 1,24,25
 307 980 307 980 238 1054 c 0,26,27
 160 1138 160 1138 160 1244 c 0,28,29
 160 1371 160 1371 248 1458 c 0,30,31
 309 1519 309 1519 404 1550 c 1,14,-1
296 1448 m 1,32,33
 268 1378 268 1378 268 1300 c 0,34,35
 268 1195 268 1195 335 1137 c 0,36,37
 412 1070 412 1070 524 1058 c 1,38,39
 552 1128 552 1128 552 1206 c 0,40,41
 552 1311 552 1311 485 1369 c 0,42,43
 409 1436 409 1436 296 1448 c 1,32,33
EndSplineSet
Validated: 1
EndChar

StartChar: guillemotright
Encoding: 187 187 103
Width: 1373
GlyphClass: 2
Flags: W
LayerCount: 2
Fore
SplineSet
770 1263 m 1,0,1
 961 957 961 957 1217 836 c 1,2,-1
 1223 826 l 1,3,4
 1144 690 1144 690 1131 584 c 1,5,6
 908 455 908 455 684 193 c 1,7,-1
 678 203 l 1,8,9
 744 310 744 310 782 415 c 1,10,11
 965 524 965 524 1076 664 c 1,12,13
 952 911 952 911 684 1011 c 1,14,-1
 678 1021 l 1,15,16
 757 1158 757 1158 770 1263 c 1,0,1
292 1263 m 1,17,18
 483 957 483 957 739 836 c 1,19,-1
 745 826 l 1,20,21
 666 690 666 690 653 584 c 1,22,23
 430 455 430 455 206 193 c 1,24,-1
 200 203 l 1,25,26
 266 310 266 310 304 415 c 1,27,28
 487 524 487 524 598 664 c 1,29,30
 474 911 474 911 206 1011 c 1,31,-1
 200 1021 l 1,32,33
 279 1158 279 1158 292 1263 c 1,17,18
EndSplineSet
Validated: 1
EndChar

StartChar: onequarter
Encoding: 188 188 104
Width: 1477
GlyphClass: 2
Flags: W
HStem: 0 21G<393.5 454 1081 1135> 212 40<816.658 1108.47> 1490 20G<494 545 1052 1112.5>
VStem: 380 128<789.379 1349.87> 1081 195<68.0688 197.446 270.15 435.582> 1111 129<262.028 631.031>
LayerCount: 2
Fore
SplineSet
535 1510 m 1,0,-1
 545 1504 l 1,1,2
 508 1335 508 1335 508 1145.5 c 128,-1,3
 508 956 508 956 544 784 c 1,4,5
 443 763 443 763 355 704 c 1,6,-1
 345 710 l 1,7,8
 380 861 380 861 380 1087 c 0,9,10
 380 1222 380 1222 363 1354 c 1,11,12
 298 1283 298 1283 258 1197 c 1,13,14
 215 1218 215 1218 150 1227 c 1,15,16
 253 1306 253 1306 345 1433 c 1,17,18
 453 1454 453 1454 535 1510 c 1,0,-1
454 6 m 1,19,-1
 444 0 l 1,20,21
 343 58 343 58 254 82 c 1,22,23
 468 390 468 390 716 830 c 0,24,25
 902 1160 902 1160 1052 1504 c 1,26,-1
 1062 1510 l 1,27,28
 1163 1452 1163 1452 1252 1428 c 1,29,30
 991 1063 991 1063 826 772 c 0,31,32
 576 331 576 331 454 6 c 1,19,-1
1091 0 m 1,33,-1
 1081 6 l 1,34,35
 1101 87 1101 87 1111 201 c 1,36,37
 1030 212 1030 212 961 212 c 0,38,39
 854 212 854 212 736 195 c 1,40,-1
 703 250 l 1,41,42
 936 471 936 471 1081 729 c 1,43,44
 1185 750 1185 750 1267 806 c 1,45,-1
 1277 800 l 1,46,47
 1240 631 1240 631 1240 441.5 c 128,-1,48
 1240 252 1240 252 1276 80 c 1,49,50
 1179 59 1179 59 1091 0 c 1,33,-1
1087 634 m 1,51,52
 900 427 900 427 814 268 c 1,53,54
 899 252 899 252 992 252 c 0,55,56
 1058 252 1058 252 1114 267 c 1,57,58
 1114 368 1114 368 1110 443 c 0,59,60
 1106 539 1106 539 1087 634 c 1,51,52
EndSplineSet
Validated: 1
EndChar

StartChar: onehalf
Encoding: 189 189 105
Width: 1604
GlyphClass: 2
Flags: W
HStem: 0 21G<874 948 1296 1359> 32 83<962.449 1351.79> 1490 20G<494 545>
VStem: 380 128<789.379 1349.87> 871 103<500.227 663.583> 1254 133<422.21 603.669>
LayerCount: 2
Fore
SplineSet
882 0 m 1,0,-1
 874 6 l 1,1,2
 869 28 869 28 869 50 c 0,3,4
 869 150 869 150 979 240 c 0,5,6
 1024 277 1024 277 1180 395 c 0,7,8
 1254 451 1254 451 1254 514 c 128,-1,9
 1254 577 1254 577 1174 632 c 0,10,11
 1093 687 1093 687 993 705 c 1,12,13
 974 667 974 667 974 617 c 0,14,15
 974 543 974 543 1040 524 c 1,16,17
 979 511 979 511 919 458 c 1,18,-1
 909 464 l 1,19,20
 871 500 871 500 871 545 c 0,21,22
 871 629 871 629 955 708 c 0,23,24
 1016 765 1016 765 1118 806 c 1,25,-1
 1128 806 l 1,26,27
 1214 779 1214 779 1291 718 c 0,28,29
 1387 641 1387 641 1387 525 c 0,30,31
 1387 407 1387 407 1216 312 c 0,32,33
 1081 237 1081 237 959 135 c 1,34,35
 1058 115 1058 115 1165 115 c 0,36,37
 1283 115 1283 115 1399 178 c 1,38,-1
 1404 171 l 1,39,40
 1362 88 1362 88 1356 0 c 1,41,42
 1236 32 1236 32 1125 32 c 128,-1,43
 1014 32 1014 32 882 0 c 1,0,-1
535 1510 m 1,44,-1
 545 1504 l 1,45,46
 508 1335 508 1335 508 1145.5 c 128,-1,47
 508 956 508 956 544 784 c 1,48,49
 443 763 443 763 355 704 c 1,50,-1
 345 710 l 1,51,52
 380 861 380 861 380 1087 c 0,53,54
 380 1222 380 1222 363 1354 c 1,55,56
 298 1283 298 1283 258 1197 c 1,57,58
 215 1218 215 1218 150 1227 c 1,59,60
 253 1306 253 1306 345 1433 c 1,61,62
 453 1454 453 1454 535 1510 c 1,44,-1
426 3 m 1,63,-1
 416 -3 l 1,64,65
 315 55 315 55 226 79 c 1,66,67
 440 387 440 387 688 827 c 0,68,69
 874 1157 874 1157 1024 1501 c 1,70,-1
 1034 1507 l 1,71,72
 1135 1449 1135 1449 1224 1425 c 1,73,74
 963 1060 963 1060 798 769 c 0,75,76
 548 328 548 328 426 3 c 1,63,-1
EndSplineSet
Validated: 1
EndChar

StartChar: threequarters
Encoding: 190 190 106
Width: 1610
GlyphClass: 2
Flags: W
HStem: 0 21G<523.5 584 1214 1268> 212 40<949.658 1241.47> 1490 20G<380 453.5 1182 1242.5>
VStem: 204 100<1245.29 1398.77> 526 105<1216.75 1358.72> 586 106<852.051 1031.4> 1214 195<68.0688 197.446 270.15 435.582> 1244 129<262.028 631.031>
DStem2: 624 1121 511 1054 0.850672 -0.525696<-385.306 -354.385 -120.284 50.4954>
LayerCount: 2
Fore
SplineSet
413 1510 m 1,0,1
 423 1510 l 1,2,3
 484 1490 484 1490 534 1458 c 0,4,5
 631 1397 631 1397 631 1314 c 0,6,7
 631 1219 631 1219 508 1167 c 1,8,9
 571 1164 571 1164 624 1121 c 0,10,11
 692 1065 692 1065 692 978 c 0,12,13
 692 885 692 885 608 808 c 0,14,15
 530 737 530 737 423 704 c 1,16,-1
 413 704 l 1,17,18
 329 742 329 742 279 778 c 0,19,20
 220 820 220 820 150 898 c 1,21,-1
 154 909 l 1,22,23
 212 911 212 911 287 938 c 1,24,25
 323 899 323 899 367 869 c 0,26,27
 452 811 452 811 538 785 c 1,28,29
 586 841 586 841 586 930 c 0,30,31
 586 1009 586 1009 511 1054 c 0,32,33
 446 1093 446 1093 345 1108 c 1,34,-1
 345 1116 l 1,35,36
 526 1182 526 1182 526 1270 c 0,37,38
 526 1334 526 1334 459.5 1374.5 c 128,-1,39
 393 1415 393 1415 327 1420 c 1,40,41
 304 1381 304 1381 304 1337.5 c 128,-1,42
 304 1294 304 1294 355 1270 c 1,43,44
 302 1257 302 1257 254 1213 c 1,45,-1
 244 1219 l 1,46,47
 204 1247 204 1247 204 1304 c 0,48,49
 204 1368 204 1368 289 1437 c 0,50,51
 347 1484 347 1484 413 1510 c 1,0,1
1224 0 m 1,52,-1
 1214 6 l 1,53,54
 1234 87 1234 87 1244 201 c 1,55,56
 1163 212 1163 212 1094 212 c 0,57,58
 987 212 987 212 869 195 c 1,59,-1
 836 250 l 1,60,61
 1069 471 1069 471 1214 729 c 1,62,63
 1318 750 1318 750 1400 806 c 1,64,-1
 1410 800 l 1,65,66
 1373 631 1373 631 1373 441.5 c 128,-1,67
 1373 252 1373 252 1409 80 c 1,68,69
 1312 59 1312 59 1224 0 c 1,52,-1
1220 634 m 1,70,71
 1033 427 1033 427 947 268 c 1,72,73
 1032 252 1032 252 1125 252 c 0,74,75
 1191 252 1191 252 1247 267 c 1,76,77
 1247 368 1247 368 1243 443 c 0,78,79
 1239 539 1239 539 1220 634 c 1,70,71
584 6 m 1,80,-1
 574 0 l 1,81,82
 473 58 473 58 384 82 c 1,83,84
 598 390 598 390 846 830 c 0,85,86
 1032 1160 1032 1160 1182 1504 c 1,87,-1
 1192 1510 l 1,88,89
 1293 1452 1293 1452 1382 1428 c 1,90,91
 1121 1063 1121 1063 956 772 c 0,92,93
 706 331 706 331 584 6 c 1,80,-1
EndSplineSet
Validated: 1
EndChar

StartChar: questiondown
Encoding: 191 191 107
Width: 1229
GlyphClass: 2
Flags: W
HStem: -380 21G<504.5 749.5> 833 297<600.006 753.994>
VStem: 150 188<0.135742 252.273> 548 258<884.267 1079.99> 664 81<614.694 743.223> 930 149<-76.1301 103.652>
LayerCount: 2
Fore
SplineSet
674 1130 m 1,0,-1
 680 1130 l 1,1,2
 727 1114 727 1114 761 1080 c 0,3,4
 806 1037 806 1037 806 982 c 0,5,6
 806 923 806 923 754 877 c 0,7,8
 722 850 722 850 680 833 c 1,9,-1
 674 833 l 1,10,11
 632 850 632 850 600 877 c 0,12,13
 548 922 548 922 548 982 c 0,14,15
 548 1038 548 1038 593 1080 c 0,16,17
 627 1114 627 1114 674 1130 c 1,0,-1
644 -380 m 1,18,-1
 634 -380 l 1,19,20
 375 -293 375 -293 233 -127 c 0,21,22
 150 -30 150 -30 150 102 c 0,23,24
 150 277 150 277 346 413 c 2,25,-1
 555 558 l 2,26,27
 663 633 663 633 664 685 c 0,28,29
 664 706 664 706 647 727 c 1,30,31
 680 740 680 740 713 768 c 1,32,-1
 724 764 l 1,33,34
 745 733 745 733 745 696 c 0,35,36
 745 615 745 615 647 520 c 2,37,-1
 441 320 l 2,38,39
 338 220 338 220 338 126 c 128,-1,40
 338 32 338 32 427 -50 c 0,41,42
 568 -180 568 -180 849 -235 c 1,43,44
 930 -136 930 -136 930 -11 c 0,45,46
 930 111 930 111 797 156 c 1,47,48
 890 173 890 173 1022 247 c 1,49,-1
 1032 241 l 1,50,51
 1079 168 1079 168 1079 78 c 0,52,53
 1079 -35 1079 -35 992 -133 c 0,54,55
 855 -285 855 -285 644 -380 c 1,18,-1
EndSplineSet
Validated: 1
EndChar

StartChar: multiply
Encoding: 215 215 108
Width: 1132
GlyphClass: 2
Flags: W
VStem: 490 152<670 822>
LayerCount: 2
Fore
SplineSet
150 1005 m 1,0,-1
 153 1016 l 1,1,2
 284 1051 284 1051 364 1105 c 1,3,4
 453 947 453 947 566 823 c 1,5,6
 678 947 678 947 767 1105 c 1,7,8
 847 1051 847 1051 979 1016 c 1,9,-1
 982 1005 l 1,10,11
 776 874 776 874 642 746 c 1,12,13
 776 618 776 618 982 487 c 1,14,-1
 979 476 l 1,15,16
 847 441 847 441 767 387 c 1,17,18
 678 545 678 545 566 669 c 1,19,20
 453 545 453 545 364 387 c 1,21,22
 284 441 284 441 153 476 c 1,23,-1
 150 487 l 1,24,25
 355 618 355 618 490 746 c 1,26,27
 355 874 355 874 150 1005 c 1,0,-1
EndSplineSet
Validated: 1
EndChar

StartChar: divide
Encoding: 247 247 109
Width: 1266
GlyphClass: 2
Flags: W
HStem: 219 297<558.006 711.994> 635 222<226.343 411.101 854.899 1039.66> 693 106<291.699 974.301> 966 297<558.006 711.994>
VStem: 506 258<270.267 465.991 1017.27 1212.99>
LayerCount: 2
Fore
SplineSet
632 1263 m 1,0,-1
 638 1263 l 1,1,2
 685 1247 685 1247 719 1213 c 0,3,4
 764 1170 764 1170 764 1115 c 0,5,6
 764 1056 764 1056 712 1010 c 0,7,8
 680 983 680 983 638 966 c 1,9,-1
 632 966 l 1,10,11
 590 983 590 983 558 1010 c 0,12,13
 506 1055 506 1055 506 1115 c 0,14,15
 506 1171 506 1171 551 1213 c 0,16,17
 585 1247 585 1247 632 1263 c 1,0,-1
638 219 m 1,18,-1
 632 219 l 1,19,20
 590 236 590 236 558 263 c 0,21,22
 506 308 506 308 506 368 c 0,23,24
 506 424 506 424 551 466 c 0,25,26
 585 500 585 500 632 516 c 1,27,-1
 638 516 l 1,28,29
 685 500 685 500 719 466 c 0,30,31
 764 423 764 423 764 368 c 0,32,33
 764 309 764 309 712 263 c 0,34,35
 680 236 680 236 638 219 c 1,18,-1
156 635 m 1,36,-1
 150 645 l 1,37,38
 218 763 218 763 237 857 c 1,39,40
 447 799 447 799 646.5 799 c 128,-1,41
 846 799 846 799 1110 857 c 1,42,-1
 1116 847 l 1,43,44
 1048 729 1048 729 1029 635 c 1,45,46
 819 693 819 693 619.5 693 c 128,-1,47
 420 693 420 693 156 635 c 1,36,-1
EndSplineSet
Validated: 1
EndChar

StartChar: endash
Encoding: 8211 8211 110
Width: 1266
GlyphClass: 2
Flags: W
HStem: 635 222<226.343 411.101 854.899 1039.66> 693 106<291.699 974.301>
LayerCount: 2
Fore
SplineSet
237 857 m 1,0,1
 447 799 447 799 646.5 799 c 128,-1,2
 846 799 846 799 1110 857 c 1,3,-1
 1116 847 l 1,4,5
 1048 729 1048 729 1029 635 c 1,6,7
 819 693 819 693 619.5 693 c 128,-1,8
 420 693 420 693 156 635 c 1,9,-1
 150 645 l 1,10,11
 218 763 218 763 237 857 c 1,0,1
EndSplineSet
Validated: 1
EndChar

StartChar: emdash
Encoding: 8212 8212 111
Width: 1566
GlyphClass: 2
Flags: W
HStem: 635 222<226.343 498.361 1116.5 1339.66> 692 106<380.438 1241.77>
LayerCount: 2
Fore
SplineSet
237 857 m 1,0,1
 522 798 522 798 822 798 c 0,2,3
 1117 798 1117 798 1410 857 c 1,4,-1
 1416 847 l 1,5,6
 1348 729 1348 729 1329 635 c 1,7,8
 1078 692 1078 692 795 692 c 0,9,10
 483 692 483 692 156 635 c 1,11,-1
 150 645 l 1,12,13
 218 763 218 763 237 857 c 1,0,1
EndSplineSet
Validated: 1
EndChar

StartChar: afii00208
Encoding: 8213 8213 112
Width: 1566
GlyphClass: 2
Flags: W
HStem: 635 222<226.343 498.361 1116.5 1339.66> 692 106<380.438 1241.77>
LayerCount: 2
Fore
SplineSet
237 857 m 1,0,1
 522 798 522 798 822 798 c 0,2,3
 1117 798 1117 798 1410 857 c 1,4,-1
 1416 847 l 1,5,6
 1348 729 1348 729 1329 635 c 1,7,8
 1078 692 1078 692 795 692 c 0,9,10
 483 692 483 692 156 635 c 1,11,-1
 150 645 l 1,12,13
 218 763 218 763 237 857 c 1,0,1
EndSplineSet
Validated: 1
EndChar

StartChar: quoteleft
Encoding: 8216 8216 113
Width: 367
GlyphClass: 2
Flags: W
HStem: 1031 519
VStem: 50 141<1305.71 1378.48>
LayerCount: 2
Fore
SplineSet
191 1031 m 1,0,-1
 185 1031 l 1,1,2
 138 1047 138 1047 104 1081 c 0,3,4
 50 1135 50 1135 50 1224 c 0,5,6
 50 1444 50 1444 327 1550 c 1,7,-1
 327 1534 l 1,8,9
 191 1430 191 1430 191 1328 c 1,10,11
 233 1311 233 1311 265 1284 c 0,12,13
 317 1239 317 1239 317 1179 c 0,14,15
 317 1123 317 1123 272 1081 c 0,16,17
 234 1046 234 1046 191 1031 c 1,0,-1
EndSplineSet
Validated: 1
EndChar

StartChar: quoteright
Encoding: 8217 8217 114
Width: 367
GlyphClass: 2
Flags: W
HStem: 1031 519
VStem: 176 141<1202.52 1275.29>
LayerCount: 2
Fore
SplineSet
176 1550 m 1,0,-1
 182 1550 l 1,1,2
 229 1534 229 1534 263 1500 c 0,3,4
 317 1446 317 1446 317 1357 c 0,5,6
 317 1137 317 1137 40 1031 c 1,7,-1
 40 1047 l 1,8,9
 176 1151 176 1151 176 1253 c 1,10,11
 134 1270 134 1270 102 1297 c 0,12,13
 50 1342 50 1342 50 1402 c 0,14,15
 50 1458 50 1458 95 1500 c 0,16,17
 133 1535 133 1535 176 1550 c 1,0,-1
EndSplineSet
Validated: 1
EndChar

StartChar: quotesinglbase
Encoding: 8218 8218 115
Width: 367
GlyphClass: 2
Flags: W
HStem: -222 519
VStem: 176 141<-50.48 22.2891>
LayerCount: 2
Fore
SplineSet
176 297 m 1,0,-1
 182 297 l 1,1,2
 229 281 229 281 263 247 c 0,3,4
 317 193 317 193 317 104 c 0,5,6
 317 -116 317 -116 40 -222 c 1,7,-1
 40 -206 l 1,8,9
 176 -102 176 -102 176 0 c 1,10,11
 134 17 134 17 102 44 c 0,12,13
 50 89 50 89 50 149 c 0,14,15
 50 205 50 205 95 247 c 0,16,17
 133 282 133 282 176 297 c 1,0,-1
EndSplineSet
Validated: 1
EndChar

StartChar: quotereversed
Encoding: 8219 8219 116
Width: 367
GlyphClass: 2
Flags: W
HStem: 1031 519
VStem: 50 141<1202.52 1275.29>
LayerCount: 2
Fore
SplineSet
191 1550 m 1,0,1
 234 1535 234 1535 272 1500 c 0,2,3
 317 1458 317 1458 317 1402 c 0,4,5
 317 1342 317 1342 265 1297 c 0,6,7
 233 1270 233 1270 191 1253 c 1,8,9
 191 1151 191 1151 327 1047 c 1,10,-1
 327 1031 l 1,11,12
 50 1137 50 1137 50 1357 c 0,13,14
 50 1446 50 1446 104 1500 c 0,15,16
 138 1534 138 1534 185 1550 c 1,17,-1
 191 1550 l 1,0,1
EndSplineSet
Validated: 1
EndChar

StartChar: quotedblleft
Encoding: 8220 8220 117
Width: 683
GlyphClass: 2
Flags: W
HStem: 1031 519
VStem: 50 141<1305.71 1378.48> 366 141<1305.71 1378.48>
LayerCount: 2
Fore
SplineSet
191 1031 m 1,0,-1
 185 1031 l 1,1,2
 138 1047 138 1047 104 1081 c 0,3,4
 50 1135 50 1135 50 1224 c 0,5,6
 50 1444 50 1444 327 1550 c 1,7,-1
 327 1534 l 1,8,9
 191 1430 191 1430 191 1328 c 1,10,11
 233 1311 233 1311 265 1284 c 0,12,13
 317 1239 317 1239 317 1179 c 0,14,15
 317 1123 317 1123 272 1081 c 0,16,17
 234 1046 234 1046 191 1031 c 1,0,-1
507 1031 m 1,18,-1
 501 1031 l 1,19,20
 454 1047 454 1047 420 1081 c 0,21,22
 366 1135 366 1135 366 1224 c 0,23,24
 366 1444 366 1444 643 1550 c 1,25,-1
 643 1534 l 1,26,27
 507 1430 507 1430 507 1328 c 1,28,29
 549 1311 549 1311 581 1284 c 0,30,31
 633 1239 633 1239 633 1179 c 0,32,33
 633 1123 633 1123 588 1081 c 0,34,35
 550 1046 550 1046 507 1031 c 1,18,-1
EndSplineSet
Validated: 1
EndChar

StartChar: quotedblright
Encoding: 8221 8221 118
Width: 683
GlyphClass: 2
Flags: W
HStem: 1031 519
VStem: 176 141<1202.52 1275.29> 492 141<1202.52 1275.29>
LayerCount: 2
Fore
SplineSet
492 1550 m 1,0,-1
 498 1550 l 1,1,2
 545 1534 545 1534 579 1500 c 0,3,4
 633 1446 633 1446 633 1357 c 0,5,6
 633 1137 633 1137 356 1031 c 1,7,-1
 356 1047 l 1,8,9
 492 1151 492 1151 492 1253 c 1,10,11
 450 1270 450 1270 418 1297 c 0,12,13
 366 1342 366 1342 366 1402 c 0,14,15
 366 1458 366 1458 411 1500 c 0,16,17
 449 1535 449 1535 492 1550 c 1,0,-1
176 1550 m 1,18,-1
 182 1550 l 1,19,20
 229 1534 229 1534 263 1500 c 0,21,22
 317 1446 317 1446 317 1357 c 0,23,24
 317 1137 317 1137 40 1031 c 1,25,-1
 40 1047 l 1,26,27
 176 1151 176 1151 176 1253 c 1,28,29
 134 1270 134 1270 102 1297 c 0,30,31
 50 1342 50 1342 50 1402 c 0,32,33
 50 1458 50 1458 95 1500 c 0,34,35
 133 1535 133 1535 176 1550 c 1,18,-1
EndSplineSet
Validated: 1
EndChar

StartChar: quotedblbase
Encoding: 8222 8222 119
Width: 683
GlyphClass: 2
Flags: W
HStem: -222 519
VStem: 176 141<-50.48 22.2891> 492 141<-50.48 22.2891>
LayerCount: 2
Fore
SplineSet
492 297 m 1,0,-1
 498 297 l 1,1,2
 545 281 545 281 579 247 c 0,3,4
 633 193 633 193 633 104 c 0,5,6
 633 -116 633 -116 356 -222 c 1,7,-1
 356 -206 l 1,8,9
 492 -102 492 -102 492 0 c 1,10,11
 450 17 450 17 418 44 c 0,12,13
 366 89 366 89 366 149 c 0,14,15
 366 205 366 205 411 247 c 0,16,17
 449 282 449 282 492 297 c 1,0,-1
176 297 m 1,18,-1
 182 297 l 1,19,20
 229 281 229 281 263 247 c 0,21,22
 317 193 317 193 317 104 c 0,23,24
 317 -116 317 -116 40 -222 c 1,25,-1
 40 -206 l 1,26,27
 176 -102 176 -102 176 0 c 1,28,29
 134 17 134 17 102 44 c 0,30,31
 50 89 50 89 50 149 c 0,32,33
 50 205 50 205 95 247 c 0,34,35
 133 282 133 282 176 297 c 1,18,-1
EndSplineSet
Validated: 1
EndChar

StartChar: dagger
Encoding: 8224 8224 120
Width: 1021
GlyphClass: 2
Flags: W
HStem: 0 21G<398 467> 984 146<197.394 426.493 591.221 823.606> 1490 20G<554 623>
VStem: 398 222<76.3428 558.877 1101.5 1432.74> 442 136<310.417 1019>
LayerCount: 2
Fore
SplineSet
408 0 m 1,0,-1
 398 6 l 1,1,2
 442 364 442 364 442 730 c 0,3,4
 442 873 442 873 435 1019 c 1,5,6
 299 1013 299 1013 156 984 c 1,7,-1
 150 994 l 1,8,9
 193 1066 193 1066 215 1130 c 1,10,11
 322 1104 322 1104 430 1096 c 1,12,13
 420 1257 420 1257 401 1423 c 1,14,15
 495 1442 495 1442 613 1510 c 1,16,-1
 623 1504 l 1,17,18
 598 1303 598 1303 587 1095 c 1,19,20
 722 1101 722 1101 865 1130 c 1,21,-1
 871 1120 l 1,22,23
 828 1048 828 1048 806 984 c 1,24,25
 696 1011 696 1011 583 1019 c 1,26,27
 578 902 578 902 578 782 c 0,28,29
 578 424 578 424 620 87 c 1,30,31
 526 68 526 68 408 0 c 1,0,-1
EndSplineSet
Validated: 1
EndChar

StartChar: daggerdbl
Encoding: 8225 8225 121
Width: 1021
GlyphClass: 2
Flags: W
HStem: 0 21G<398 467> 380 146<197.394 429.779 592.468 823.606> 984 146<197.394 426.493 591.221 823.606> 1490 20G<554 623>
VStem: 398 222<76.3428 408.563 1101.5 1432.74> 442 136<491 1019>
LayerCount: 2
Fore
SplineSet
408 0 m 1,0,-1
 398 6 l 1,1,2
 423 209 423 209 434 415 c 1,3,4
 299 409 299 409 156 380 c 1,5,-1
 150 390 l 1,6,7
 193 462 193 462 215 526 c 1,8,9
 324 499 324 499 437 491 c 1,10,11
 442 610 442 610 442 730 c 0,12,13
 442 873 442 873 435 1019 c 1,14,15
 299 1013 299 1013 156 984 c 1,16,-1
 150 994 l 1,17,18
 193 1066 193 1066 215 1130 c 1,19,20
 322 1104 322 1104 430 1096 c 1,21,22
 420 1257 420 1257 401 1423 c 1,23,24
 495 1442 495 1442 613 1510 c 1,25,-1
 623 1504 l 1,26,27
 598 1303 598 1303 587 1095 c 1,28,29
 722 1101 722 1101 865 1130 c 1,30,-1
 871 1120 l 1,31,32
 828 1048 828 1048 806 984 c 1,33,34
 696 1011 696 1011 583 1019 c 1,35,36
 578 902 578 902 578 782 c 0,37,38
 578 635 578 635 585 491 c 1,39,40
 723 497 723 497 865 526 c 1,41,-1
 871 516 l 1,42,43
 828 444 828 444 806 380 c 1,44,45
 700 406 700 406 589 414 c 1,46,47
 599 248 599 248 620 87 c 1,48,49
 526 68 526 68 408 0 c 1,0,-1
EndSplineSet
Validated: 1
EndChar

StartChar: bullet
Encoding: 8226 8226 122
Width: 874
GlyphClass: 2
Flags: W
HStem: 427 663<344.25 529.75>
VStem: 150 574<609.636 909.261>
LayerCount: 2
Fore
SplineSet
442 1090 m 1,0,1
 546 1053 546 1053 624 978 c 0,2,3
 724 883 724 883 724 759 c 0,4,5
 724 627 724 627 607 526 c 0,6,7
 535 465 535 465 442 427 c 1,8,-1
 432 427 l 1,9,10
 339 465 339 465 267 526 c 0,11,12
 150 625 150 625 150 759 c 0,13,14
 150 883 150 883 250 978 c 0,15,16
 328 1053 328 1053 432 1090 c 1,17,-1
 442 1090 l 1,0,1
EndSplineSet
Validated: 1
EndChar

StartChar: ellipsis
Encoding: 8230 8230 123
Width: 1014
GlyphClass: 2
Flags: W
HStem: 0 297<102.006 255.994 430.006 583.994 758.006 911.994>
VStem: 50 258<51.2668 246.991> 378 258<51.2668 246.991> 706 258<51.2668 246.991>
CounterMasks: 1 70
LayerCount: 2
Fore
SplineSet
838 0 m 1,0,-1
 832 0 l 1,1,2
 790 17 790 17 758 44 c 0,3,4
 706 89 706 89 706 149 c 0,5,6
 706 205 706 205 751 247 c 0,7,8
 785 281 785 281 832 297 c 1,9,-1
 838 297 l 1,10,11
 885 281 885 281 919 247 c 0,12,13
 964 204 964 204 964 149 c 0,14,15
 964 90 964 90 912 44 c 0,16,17
 880 17 880 17 838 0 c 1,0,-1
510 0 m 1,18,-1
 504 0 l 1,19,20
 462 17 462 17 430 44 c 0,21,22
 378 89 378 89 378 149 c 0,23,24
 378 205 378 205 423 247 c 0,25,26
 457 281 457 281 504 297 c 1,27,-1
 510 297 l 1,28,29
 557 281 557 281 591 247 c 0,30,31
 636 204 636 204 636 149 c 0,32,33
 636 90 636 90 584 44 c 0,34,35
 552 17 552 17 510 0 c 1,18,-1
182 0 m 1,36,-1
 176 0 l 1,37,38
 134 17 134 17 102 44 c 0,39,40
 50 89 50 89 50 149 c 0,41,42
 50 205 50 205 95 247 c 0,43,44
 129 281 129 281 176 297 c 1,45,-1
 182 297 l 1,46,47
 229 281 229 281 263 247 c 0,48,49
 308 204 308 204 308 149 c 0,50,51
 308 90 308 90 256 44 c 0,52,53
 224 17 224 17 182 0 c 1,36,-1
EndSplineSet
Validated: 1
EndChar

StartChar: perthousand
Encoding: 8240 8240 124
Width: 2209
GlyphClass: 2
Flags: W
HStem: 0 21G<434.5 495 1058.5 1161.5 1720.5 1823.5> 1490 20G<380 494 1093 1153.5>
VStem: 150 77<1143.2 1319.81> 648 76<1039.52 1213.96> 823 77<296.196 472.811> 1321 76<192.522 366.957> 1485 77<296.196 472.811> 1983 76<192.522 366.957>
LayerCount: 2
Fore
SplineSet
1777 0 m 1,0,-1
 1767 0 l 1,1,2
 1674 38 1674 38 1602 99 c 0,3,4
 1485 198 1485 198 1485 332 c 0,5,6
 1485 456 1485 456 1585 551 c 0,7,8
 1663 626 1663 626 1767 663 c 1,9,-1
 1777 663 l 1,10,11
 1881 626 1881 626 1959 551 c 0,12,13
 2059 456 2059 456 2059 332 c 0,14,15
 2059 200 2059 200 1942 99 c 0,16,17
 1870 38 1870 38 1777 0 c 1,0,-1
1933 122 m 1,18,19
 1983 174 1983 174 1983 269 c 0,20,21
 1983 377 1983 377 1817 473 c 24,22,23
 1735 521 1735 521 1612 543 c 1,24,25
 1562 491 1562 491 1562 396 c 0,26,27
 1562 288 1562 288 1728 192 c 24,28,29
 1810 144 1810 144 1933 122 c 1,18,19
1115 0 m 1,30,-1
 1105 0 l 1,31,32
 1012 38 1012 38 940 99 c 0,33,34
 823 198 823 198 823 332 c 0,35,36
 823 456 823 456 923 551 c 0,37,38
 1001 626 1001 626 1105 663 c 1,39,-1
 1115 663 l 1,40,41
 1219 626 1219 626 1297 551 c 0,42,43
 1397 456 1397 456 1397 332 c 0,44,45
 1397 200 1397 200 1280 99 c 0,46,47
 1208 38 1208 38 1115 0 c 1,30,-1
1271 122 m 1,48,49
 1321 174 1321 174 1321 269 c 0,50,51
 1321 377 1321 377 1155 473 c 24,52,53
 1073 521 1073 521 950 543 c 1,54,55
 900 491 900 491 900 396 c 0,56,57
 900 288 900 288 1066 192 c 24,58,59
 1148 144 1148 144 1271 122 c 1,48,49
442 1510 m 1,60,61
 546 1473 546 1473 624 1398 c 0,62,63
 724 1303 724 1303 724 1179 c 0,64,65
 724 1047 724 1047 607 946 c 0,66,67
 535 885 535 885 442 847 c 1,68,-1
 432 847 l 1,69,70
 339 885 339 885 267 946 c 0,71,72
 150 1045 150 1045 150 1179 c 0,73,74
 150 1303 150 1303 250 1398 c 0,75,76
 328 1473 328 1473 432 1510 c 1,77,-1
 442 1510 l 1,60,61
277 1390 m 1,78,79
 227 1338 227 1338 227 1243 c 0,80,81
 227 1135 227 1135 393 1039 c 24,82,83
 475 991 475 991 598 969 c 1,84,85
 648 1021 648 1021 648 1116 c 0,86,87
 648 1224 648 1224 482 1320 c 24,88,89
 400 1368 400 1368 277 1390 c 1,78,79
495 6 m 1,90,-1
 485 0 l 1,91,92
 384 58 384 58 295 82 c 1,93,94
 509 390 509 390 757 830 c 0,95,96
 943 1160 943 1160 1093 1504 c 1,97,-1
 1103 1510 l 1,98,99
 1204 1452 1204 1452 1293 1428 c 1,100,101
 1032 1063 1032 1063 867 772 c 0,102,103
 617 331 617 331 495 6 c 1,90,-1
EndSplineSet
Validated: 1
EndChar

StartChar: minute
Encoding: 8242 8242 125
Width: 369
GlyphClass: 2
Flags: W
HStem: 1220 330
VStem: 55 259
LayerCount: 2
Fore
SplineSet
145 1524 m 1,0,1
 227 1524 227 1524 314 1550 c 1,2,-1
 319 1544 l 1,3,4
 262 1366 262 1366 169 1230 c 1,5,6
 107 1230 107 1230 55 1220 c 1,7,-1
 50 1227 l 1,8,9
 130 1375 130 1375 145 1524 c 1,0,1
EndSplineSet
Validated: 1
EndChar

StartChar: second
Encoding: 8243 8243 126
Width: 628
GlyphClass: 2
Flags: W
HStem: 1220 330
VStem: 55 518
LayerCount: 2
Fore
SplineSet
404 1524 m 1,0,1
 486 1524 486 1524 573 1550 c 1,2,-1
 578 1544 l 1,3,4
 521 1366 521 1366 428 1230 c 1,5,6
 366 1230 366 1230 314 1220 c 1,7,-1
 309 1227 l 1,8,9
 389 1375 389 1375 404 1524 c 1,0,1
145 1524 m 1,10,11
 227 1524 227 1524 314 1550 c 1,12,-1
 319 1544 l 1,13,14
 262 1366 262 1366 169 1230 c 1,15,16
 107 1230 107 1230 55 1220 c 1,17,-1
 50 1227 l 1,18,19
 130 1375 130 1375 145 1524 c 1,10,11
EndSplineSet
Validated: 1
EndChar

StartChar: guilsinglleft
Encoding: 8249 8249 127
Width: 895
GlyphClass: 2
Flags: W
VStem: 156 533
LayerCount: 2
Fore
SplineSet
689 1263 m 1,0,-1
 695 1253 l 1,1,2
 629 1146 629 1146 591 1041 c 1,3,4
 408 932 408 932 297 792 c 1,5,6
 421 545 421 545 689 445 c 1,7,-1
 695 435 l 1,8,9
 616 298 616 298 603 193 c 1,10,11
 412 499 412 499 156 620 c 1,12,-1
 150 630 l 1,13,14
 229 766 229 766 242 872 c 1,15,16
 465 1001 465 1001 689 1263 c 1,0,-1
EndSplineSet
Validated: 1
EndChar

StartChar: guilsinglright
Encoding: 8250 8250 128
Width: 895
GlyphClass: 2
Flags: W
VStem: 206 533
LayerCount: 2
Fore
SplineSet
292 1263 m 1,0,1
 483 957 483 957 739 836 c 1,2,-1
 745 826 l 1,3,4
 666 690 666 690 653 584 c 1,5,6
 430 455 430 455 206 193 c 1,7,-1
 200 203 l 1,8,9
 266 310 266 310 304 415 c 1,10,11
 487 524 487 524 598 664 c 1,12,13
 474 911 474 911 206 1011 c 1,14,-1
 200 1021 l 1,15,16
 279 1158 279 1158 292 1263 c 1,0,1
EndSplineSet
Validated: 1
EndChar

StartChar: fraction
Encoding: 8260 8260 129
Width: 1018
GlyphClass: 2
Flags: W
HStem: 0 21G<149.5 210> 1490 20G<808 868.5>
LayerCount: 2
Fore
SplineSet
210 6 m 1,0,-1
 200 0 l 1,1,2
 99 58 99 58 10 82 c 1,3,4
 224 390 224 390 472 830 c 0,5,6
 658 1160 658 1160 808 1504 c 1,7,-1
 818 1510 l 1,8,9
 919 1452 919 1452 1008 1428 c 1,10,11
 747 1063 747 1063 582 772 c 0,12,13
 332 331 332 331 210 6 c 1,0,-1
EndSplineSet
Validated: 1
EndChar

StartChar: Euro
Encoding: 8364 8364 130
Width: 1420
VWidth: 0
GlyphClass: 2
Flags: W
HStem: 0 213<770.134 938.043> 565 146<149.394 273.343 583.019 998.606> 602 72<476 974.377> 779 146<147.394 272.375 581.019 996.606> 816 72<444 972.377> 1490 20G<710.5 948.5>
VStem: 273 168<696.138 800.219>
LayerCount: 2
Fore
SplineSet
825 0 m 1,0,1
 596 90 596 90 451 260 c 0,2,3
 326 406 326 406 289 588 c 1,4,5
 199 579 199 579 108 565 c 1,6,-1
 102 575 l 1,7,8
 145 647 145 647 167 711 c 1,9,10
 222 702 222 702 275 695 c 1,11,12
 273 722 273 722 273 750 c 0,13,14
 273 776 273 776 275 801 c 1,15,16
 191 792 191 792 106 779 c 1,17,-1
 100 789 l 1,18,19
 143 861 143 861 165 925 c 1,20,21
 228 914 228 914 289 907 c 1,22,23
 328 1091 328 1091 461 1257 c 0,24,25
 596 1427 596 1427 825 1510 c 1,26,-1
 835 1510 l 1,27,28
 1062 1422 1062 1422 1211 1249 c 1,29,-1
 1207 1238 l 1,30,31
 1082 1226 1082 1226 1005 1174 c 1,32,33
 842 1326 842 1326 596 1365 c 1,34,35
 462 1145 462 1145 444 892 c 1,36,37
 511 888 511 888 575 888 c 0,38,39
 767 888 767 888 1038 925 c 1,40,-1
 1044 915 l 1,41,42
 1001 843 1001 843 979 779 c 1,43,44
 767 816 767 816 565 816 c 0,45,46
 503 816 503 816 441 813 c 1,47,48
 441 742 441 742 454 678 c 1,49,50
 517 674 517 674 577 674 c 0,51,52
 769 674 769 674 1040 711 c 1,53,-1
 1046 701 l 1,54,55
 1003 629 1003 629 981 565 c 1,56,57
 769 602 769 602 567 602 c 0,58,59
 522 602 522 602 476 600 c 1,60,61
 527 452 527 452 655 336 c 0,62,63
 790 213 790 213 958 213 c 128,-1,64
 1126 213 1126 213 1261 361 c 1,65,-1
 1270 355 l 1,66,67
 1123 104 1123 104 835 0 c 1,68,-1
 825 0 l 1,0,1
EndSplineSet
Validated: 1
EndChar

StartChar: afii61248
Encoding: 8453 8453 131
Width: 1563
GlyphClass: 2
Flags: W
HStem: 0 21G<434.5 495 1067.5 1179> 762 141<389.015 562.141> 1490 20G<378 487 1093 1153.5>
VStem: 150 115<1027.76 1305.15> 835 88<269.613 543.062> 1309 104<186.702 463.162>
LayerCount: 2
Fore
SplineSet
444 1510 m 1,0,1
 530 1489 530 1489 577 1456 c 0,2,3
 649 1405 649 1405 689 1345 c 1,4,5
 623 1335 623 1335 553 1288 c 1,6,-1
 543 1294 l 1,7,8
 514 1324 514 1324 480 1347 c 0,9,10
 416 1391 416 1391 308 1405 c 1,11,12
 265 1304 265 1304 265 1180 c 0,13,14
 265 1016 265 1016 416 931 c 0,15,16
 466 903 466 903 536 903 c 0,17,18
 643 903 643 903 711 977 c 1,19,-1
 723 970 l 1,20,21
 708 936 708 936 687 911 c 0,22,23
 600 800 600 800 444 762 c 1,24,-1
 434 762 l 1,25,26
 335 794 335 794 259 866 c 0,27,28
 150 970 150 970 150 1132 c 0,29,30
 150 1275 150 1275 252 1384 c 0,31,32
 322 1459 322 1459 434 1510 c 1,33,-1
 444 1510 l 1,0,1
495 6 m 1,34,-1
 485 0 l 1,35,36
 384 58 384 58 295 82 c 1,37,38
 509 390 509 390 757 830 c 0,39,40
 943 1160 943 1160 1093 1504 c 1,41,-1
 1103 1510 l 1,42,43
 1204 1452 1204 1452 1293 1428 c 1,44,45
 1032 1063 1032 1063 867 772 c 0,46,47
 617 331 617 331 495 6 c 1,34,-1
1129 0 m 1,48,-1
 1119 0 l 1,49,50
 1016 33 1016 33 944 104 c 0,51,52
 835 211 835 211 835 370 c 0,53,54
 835 513 835 513 937 622 c 0,55,56
 1007 697 1007 697 1119 748 c 1,57,-1
 1129 748 l 1,58,59
 1241 697 1241 697 1311 622 c 0,60,61
 1413 513 1413 513 1413 370 c 0,62,63
 1413 208 1413 208 1304 104 c 0,64,65
 1229 32 1229 32 1129 0 c 1,48,-1
1268 113 m 1,66,67
 1309 205 1309 205 1309 312 c 0,68,69
 1309 495 1309 495 1112 580 c 0,70,71
 1043 610 1043 610 964 617 c 1,72,73
 923 519 923 519 923 418 c 0,74,75
 923 235 923 235 1120 150 c 0,76,77
 1189 120 1189 120 1268 113 c 1,66,67
EndSplineSet
Validated: 1
EndChar

StartChar: afii61289
Encoding: 8467 8467 132
Width: 958
GlyphClass: 2
Flags: W
HStem: 0 136<451.354 569.961> 1490 20G<628 696>
VStem: 232 158<500 792.828> 655 153<1042.58 1357.17>
LayerCount: 2
Fore
SplineSet
390 500 m 1,0,1
 460 605 460 605 554 860 c 0,2,3
 655 1134 655 1134 655 1359 c 1,4,5
 583 1260 583 1260 494 1004 c 0,6,7
 390 706 390 706 390 500 c 1,0,1
502 0 m 0,8,9
 374 0 374 0 303 101 c 1,10,-1
 251 21 l 1,11,-1
 50 21 l 1,12,13
 172 168 172 168 242 292 c 1,14,15
 232 362 232 362 232 443 c 0,16,17
 232 590 232 590 261 732 c 0,18,19
 363 1228 363 1228 518 1424 c 0,20,21
 586 1510 586 1510 670 1510 c 0,22,23
 722 1510 722 1510 760 1478 c 0,24,25
 808 1439 808 1439 808 1318 c 0,26,27
 808 1226 808 1226 778 1072 c 0,28,29
 708 722 708 722 422 271 c 1,30,31
 445 136 445 136 511 136 c 0,32,33
 530 136 530 136 553 160 c 0,34,35
 584 192 584 192 616 248 c 1,36,-1
 792 248 l 1,37,38
 715 120 715 120 650.5 60 c 128,-1,39
 586 0 586 0 502 0 c 0,8,9
EndSplineSet
Validated: 1
EndChar

StartChar: trademark
Encoding: 8482 8482 133
Width: 1728
GlyphClass: 2
Flags: W
VStem: 351 123<839.115 1459.56> 724 102<797.15 945.585>
LayerCount: 2
Fore
SplineSet
155 1550 m 1,0,1
 290 1515 290 1515 424 1515 c 0,2,3
 556 1515 556 1515 721 1550 c 1,4,-1
 731 1544 l 1,5,6
 696 1466 696 1466 676 1377 c 1,7,8
 591 1444 591 1444 490 1464 c 1,9,10
 474 1322 474 1322 474 1184 c 0,11,12
 474 1029 474 1029 498 833 c 1,13,14
 419 823 419 823 326 769 c 1,15,-1
 316 775 l 1,16,17
 351 938 351 938 351 1162 c 0,18,19
 351 1327 351 1327 337 1464 c 1,20,21
 220 1452 220 1452 110 1377 c 1,22,-1
 100 1383 l 1,23,24
 135 1461 135 1461 155 1550 c 1,0,1
734 769 m 1,25,-1
 724 775 l 1,26,27
 812 1082 812 1082 831 1400 c 1,28,29
 811 1441 811 1441 774 1480 c 1,30,31
 866 1502 866 1502 937 1550 c 1,32,-1
 947 1544 l 1,33,34
 1036 1227 1036 1227 1151 935 c 1,35,36
 1241 1152 1241 1152 1313 1452 c 1,37,38
 1307 1468 1307 1468 1299 1481 c 1,39,40
 1385 1501 1385 1501 1458 1550 c 1,41,-1
 1468 1544 l 1,42,43
 1491 1158 1491 1158 1578 834 c 1,44,45
 1511 829 1511 829 1412 769 c 1,46,-1
 1402 775 l 1,47,48
 1402 1087 1402 1087 1350 1344 c 1,49,50
 1260 1129 1260 1129 1204 826 c 1,51,52
 1122 815 1122 815 1052 769 c 1,53,-1
 1042 775 l 1,54,55
 970 1101 970 1101 879 1314 c 1,56,57
 826 1065 826 1065 826 811 c 1,58,59
 781 803 781 803 734 769 c 1,25,-1
EndSplineSet
Validated: 1
EndChar

StartChar: uni2126
Encoding: 8486 8486 134
Width: 1406
VWidth: 0
GlyphClass: 2
Flags: W
HStem: 0 21G<50 120 490.5 552 854 902.5 1215.5 1271.5> 28 68<322.289 479.409 925.139 1115.74> 1490 20G<583.5 821.5>
VStem: 146 198<487.439 1002.14> 483 69<96 137.719> 854 69<96 133.678> 1092 168<493.747 930.954>
LayerCount: 2
Fore
SplineSet
56 0 m 1,0,-1
 50 10 l 1,1,2
 127 142 127 142 142 252 c 1,3,4
 300 96 300 96 483 96 c 1,5,-1
 483 114 l 1,6,7
 396 175 396 175 324 260 c 0,8,9
 146 469 146 469 146 750 c 0,10,11
 146 1021 146 1021 334 1257 c 0,12,13
 469 1427 469 1427 698 1510 c 1,14,-1
 708 1510 l 1,15,16
 935 1422 935 1422 1082 1250 c 0,17,18
 1260 1041 1260 1041 1260 760 c 0,19,20
 1260 466 1260 466 1072 253 c 0,21,22
 988 157 988 157 923 114 c 1,23,-1
 923 96 l 1,24,25
 1135 96 1135 96 1350 252 c 1,26,-1
 1356 242 l 1,27,28
 1279 110 1279 110 1264 0 c 1,29,30
 1167 28 1167 28 1059 28 c 128,-1,31
 951 28 951 28 854 0 c 1,32,-1
 854 113 l 1,33,34
 1092 330 1092 330 1092 699 c 0,35,36
 1092 975 1092 975 878 1174 c 0,37,38
 715 1326 715 1326 469 1365 c 1,39,40
 344 1170 344 1170 344 811 c 0,41,42
 344 380 344 380 552 113 c 1,43,-1
 552 0 l 1,44,45
 429 28 429 28 311 28 c 0,46,47
 184 28 184 28 56 0 c 1,0,-1
EndSplineSet
Validated: 1
EndChar

StartChar: estimated
Encoding: 8494 8494 135
Width: 1330
GlyphClass: 2
Flags: W
HStem: 0 92<451.758 852.453> 540 80<348 983> 1046 84<468.183 852.399>
VStem: 100 248<328.893 540 620 799.208> 983 247<620 785.26>
LayerCount: 2
Fore
SplineSet
665 0 m 0,0,1
 409 0 409 0 256 159 c 0,2,3
 100 321 100 321 100 565 c 0,4,5
 100 798 100 798 249 962 c 0,6,7
 402 1130 402 1130 666 1130 c 0,8,9
 915 1130 915 1130 1064 974 c 256,10,11
 1230 800 1230 800 1230 540 c 1,12,-1
 348 540 l 1,13,-1
 348 212 l 1,14,15
 459 92 459 92 666 92 c 256,16,17
 789 92 789 92 880 152 c 0,18,19
 962 206 962 206 1011 286 c 1,20,-1
 1104 224 l 1,21,22
 1032 133 1032 133 948 81 c 0,23,24
 817 0 817 0 665 0 c 0,0,1
348 620 m 1,25,-1
 983 620 l 1,26,-1
 983 913 l 1,27,28
 852 1046 852 1046 666 1046 c 0,29,30
 475 1046 475 1046 348 924 c 1,31,-1
 348 620 l 1,25,-1
EndSplineSet
Validated: 1
EndChar

StartChar: partialdiff
Encoding: 8706 8706 136
Width: 1235
GlyphClass: 2
Flags: W
HStem: 0 153<349.379 613.581> 870 170<489.513 773.335> 1358 152<442 780.299>
VStem: 100 188<218.966 618.612> 902 183<930 1212.44>
LayerCount: 2
Fore
SplineSet
462 0 m 0,0,1
 100 0 100 0 100 395 c 0,2,3
 100 633 100 633 236 815 c 0,4,5
 404 1040 404 1040 622 1040 c 0,6,7
 809 1040 809 1040 902 930 c 1,8,9
 902 1116 902 1116 857 1219 c 0,10,11
 796 1358 796 1358 628 1358 c 0,12,13
 497 1358 497 1358 370 1274 c 1,14,-1
 370 1448 l 1,15,16
 504 1510 504 1510 653 1510 c 0,17,18
 1085 1510 1085 1510 1085 934 c 0,19,20
 1085 565 1085 565 916.5 282.5 c 128,-1,21
 748 0 748 0 462 0 c 0,0,1
475 153 m 0,22,23
 613 153 613 153 722.5 306 c 128,-1,24
 832 459 832 459 870 680 c 1,25,26
 848 765 848 765 784.5 817.5 c 128,-1,27
 721 870 721 870 645 870 c 0,28,29
 485 870 485 870 386.5 720 c 128,-1,30
 288 570 288 570 288 389 c 0,31,32
 288 153 288 153 475 153 c 0,22,23
EndSplineSet
Validated: 1
EndChar

StartChar: uni2206
Encoding: 8710 8710 137
Width: 1296
GlyphClass: 2
Flags: W
HStem: 0 21G<5 163 1128.5 1291> 57 73<236.016 990.016> 1490 20G<688 766>
LayerCount: 2
Fore
SplineSet
15 0 m 1,0,-1
 5 6 l 1,1,2
 341 691 341 691 514 1418 c 1,3,4
 620 1431 620 1431 756 1510 c 1,5,-1
 766 1504 l 1,6,7
 960 691 960 691 1291 6 c 1,8,-1
 1281 0 l 1,9,10
 976 57 976 57 600 57 c 0,11,12
 311 57 311 57 15 0 c 1,0,-1
596 1284 m 1,13,14
 346 707 346 707 228 153 c 1,15,16
 416 130 416 130 630 130 c 128,-1,17
 844 130 844 130 996 165 c 1,18,19
 870 714 870 714 596 1284 c 1,13,14
EndSplineSet
Validated: 1
EndChar

StartChar: product
Encoding: 8719 8719 138
Width: 1322
GlyphClass: 2
Flags: W
HStem: -380 21G<158 234 917 993> 1382 73<400.248 921.628> 1490 20G<150 282.5 1041 1172>
VStem: 202 166<98.3716 1038> 917 252<-295.805 216.338> 961 166<94.6172 1042.35>
LayerCount: 2
Fore
SplineSet
168 -380 m 1,0,-1
 158 -374 l 1,1,2
 202 85 202 85 202 540 c 0,3,4
 201 1054 201 1054 150 1504 c 1,5,-1
 160 1510 l 1,6,7
 405 1455 405 1455 655 1455 c 0,8,9
 920 1455 920 1455 1162 1510 c 1,10,-1
 1172 1504 l 1,11,12
 1127 1077 1127 1077 1127 592 c 0,13,14
 1127 92 1127 92 1169 -288 c 1,15,16
 1059 -303 1059 -303 927 -380 c 1,17,-1
 917 -374 l 1,18,19
 961 62 961 62 961 540 c 0,20,21
 961 1029 961 1029 926 1367 c 1,22,23
 786 1382 786 1382 659 1382 c 128,-1,24
 532 1382 532 1382 396 1370 c 1,25,26
 368 975 368 975 368 592 c 0,27,28
 368 183 368 183 410 -288 c 1,29,30
 300 -303 300 -303 168 -380 c 1,0,-1
EndSplineSet
Validated: 1
EndChar

StartChar: summation
Encoding: 8721 8721 139
Width: 1169
GlyphClass: 2
Flags: W
HStem: -380 21G<50 189.5 881.5 984.5> -324 71<384.141 831.5> 1258 185<642.635 893.062> 1490 20G<257 408 893.5 981>
LayerCount: 2
Fore
SplineSet
60 -380 m 1,0,-1
 50 -374 l 1,1,2
 400 120 400 120 576 551 c 1,3,4
 432 942 432 942 83 1418 c 1,5,6
 189 1431 189 1431 325 1510 c 1,7,8
 491 1443 491 1443 642 1443 c 0,9,10
 812 1444 812 1444 975 1510 c 1,11,-1
 981 1500 l 1,12,13
 904 1368 904 1368 889 1258 c 1,14,15
 725 1266 725 1266 591.5 1322.5 c 128,-1,16
 458 1379 458 1379 338 1472 c 1,17,18
 487 1009 487 1009 824 557 c 1,19,20
 530 154 530 154 377 -235 c 1,21,22
 466 -253 466 -253 574 -253 c 0,23,24
 814 -253 814 -253 1063 -128 c 1,25,-1
 1069 -138 l 1,26,27
 992 -270 992 -270 977 -380 c 1,28,29
 786 -324 786 -324 579 -324 c 0,30,31
 319 -324 319 -324 60 -380 c 1,0,-1
EndSplineSet
Validated: 1
EndChar

StartChar: minus
Encoding: 8722 8722 140
Width: 1266
GlyphClass: 2
Flags: W
HStem: 635 222<226.343 411.101 854.899 1039.66> 693 106<291.699 974.301>
LayerCount: 2
Fore
SplineSet
237 857 m 1,0,1
 447 799 447 799 646.5 799 c 128,-1,2
 846 799 846 799 1110 857 c 1,3,-1
 1116 847 l 1,4,5
 1048 729 1048 729 1029 635 c 1,6,7
 819 693 819 693 619.5 693 c 128,-1,8
 420 693 420 693 156 635 c 1,9,-1
 150 645 l 1,10,11
 218 763 218 763 237 857 c 1,0,1
EndSplineSet
Validated: 1
EndChar

StartChar: uni2215
Encoding: 8725 8725 141
Width: 1018
GlyphClass: 2
Flags: W
HStem: 0 21G<149.5 210> 1490 20G<808 868.5>
LayerCount: 2
Fore
SplineSet
210 6 m 1,0,-1
 200 0 l 1,1,2
 99 58 99 58 10 82 c 1,3,4
 224 390 224 390 472 830 c 0,5,6
 658 1160 658 1160 808 1504 c 1,7,-1
 818 1510 l 1,8,9
 919 1452 919 1452 1008 1428 c 1,10,11
 747 1063 747 1063 582 772 c 0,12,13
 332 331 332 331 210 6 c 1,0,-1
EndSplineSet
Validated: 1
EndChar

StartChar: uni2219
Encoding: 8729 8729 142
Width: 358
GlyphClass: 2
Flags: W
HStem: 607 297<102.006 255.994>
VStem: 50 258<658.267 853.991>
LayerCount: 2
Fore
SplineSet
182 904 m 1,0,1
 229 888 229 888 263 854 c 0,2,3
 308 811 308 811 308 756 c 0,4,5
 308 697 308 697 256 651 c 0,6,7
 224 624 224 624 182 607 c 1,8,-1
 176 607 l 1,9,10
 134 624 134 624 102 651 c 0,11,12
 50 696 50 696 50 756 c 0,13,14
 50 812 50 812 95 854 c 0,15,16
 129 888 129 888 176 904 c 1,17,-1
 182 904 l 1,0,1
EndSplineSet
Validated: 1
EndChar

StartChar: radical
Encoding: 8730 8730 143
Width: 1232
GlyphClass: 2
Flags: W
HStem: 0 21G<385 457> 1490 20G<1074.5 1132>
LayerCount: 2
Fore
SplineSet
395 0 m 1,0,-1
 385 6 l 1,1,2
 316 427 316 427 100 758 c 1,3,4
 187 774 187 774 312 845 c 1,5,-1
 322 839 l 1,6,7
 374 463 374 463 535 222 c 1,8,9
 816 859 816 859 927 1427 c 1,10,11
 1027 1453 1027 1453 1122 1510 c 1,12,-1
 1132 1504 l 1,13,14
 796 819 796 819 623 92 c 1,15,16
 519 73 519 73 395 0 c 1,0,-1
EndSplineSet
Validated: 1
EndChar

StartChar: infinity
Encoding: 8734 8734 144
Width: 1374
GlyphClass: 2
Flags: W
HStem: 417 663
VStem: 150 78<709.873 889.334> 1148 76<608.666 782.692>
LayerCount: 2
Fore
SplineSet
420 1080 m 1,0,1
 430 1080 l 1,2,3
 526 1046 526 1046 608 981 c 0,4,5
 698 910 698 910 755 775 c 0,6,7
 803 661 803 661 893 609 c 0,8,9
 975 561 975 561 1098 539 c 1,10,11
 1148 591 1148 591 1148 686 c 0,12,13
 1148 791 1148 791 982 890 c 0,14,15
 886 947 886 947 749 968 c 1,16,17
 815 1031 815 1031 919 1080 c 1,18,-1
 929 1080 l 1,19,20
 1025 1046 1025 1046 1107 981 c 0,21,22
 1224 888 1224 888 1224 748 c 0,23,24
 1224 626 1224 626 1124 529 c 0,25,26
 1058 466 1058 466 954 417 c 1,27,-1
 944 417 l 1,28,29
 848 451 848 451 765 517 c 0,30,31
 680 584 680 584 621 724 c 0,32,33
 573 838 573 838 483 890 c 0,34,35
 399 938 399 938 278 960 c 1,36,37
 228 908 228 908 228 813 c 0,38,39
 228 701 228 701 394 609 c 0,40,41
 497 552 497 552 625 529 c 1,42,43
 559 466 559 466 455 417 c 1,44,-1
 445 417 l 1,45,46
 349 451 349 451 267 516 c 0,47,48
 150 609 150 609 150 749 c 0,49,50
 150 871 150 871 250 968 c 0,51,52
 316 1031 316 1031 420 1080 c 1,0,1
EndSplineSet
Validated: 1
EndChar

StartChar: approxequal
Encoding: 8776 8776 145
Width: 1236
GlyphClass: 2
Flags: W
HStem: 429 173<716.917 938.004> 592 173<297.996 519.083> 743 173<716.917 938.004> 906 173<297.996 519.083>
LayerCount: 2
Fore
SplineSet
393 765 m 0,0,1
 483 765 483 765 553 690 c 0,2,3
 636 602 636 602 763 602 c 0,4,5
 934 602 934 602 1080 756 c 1,6,-1
 1086 746 l 1,7,8
 1013 602 1013 602 996 492 c 1,9,10
 924 429 924 429 843 429 c 0,11,12
 753 429 753 429 683 504 c 0,13,14
 600 592 600 592 473 592 c 0,15,16
 302 592 302 592 156 438 c 1,17,-1
 150 448 l 1,18,19
 223 592 223 592 240 702 c 1,20,21
 312 765 312 765 393 765 c 0,0,1
393 1079 m 0,22,23
 483 1079 483 1079 553 1004 c 0,24,25
 636 916 636 916 763 916 c 0,26,27
 934 916 934 916 1080 1070 c 1,28,-1
 1086 1060 l 1,29,30
 1013 916 1013 916 996 806 c 1,31,32
 924 743 924 743 843 743 c 0,33,34
 753 743 753 743 683 818 c 0,35,36
 600 906 600 906 473 906 c 0,37,38
 302 906 302 906 156 752 c 1,39,-1
 150 762 l 1,40,41
 223 906 223 906 240 1016 c 1,42,43
 312 1079 312 1079 393 1079 c 0,22,23
EndSplineSet
Validated: 1
EndChar

StartChar: notequal
Encoding: 8800 8800 146
Width: 1266
GlyphClass: 2
Flags: W
HStem: 460 222<226.343 404.401 845.819 1039.66> 518 106<631 975.158> 810 222<226.343 421.31 858.618 1039.66> 868 106<291.124 639>
VStem: 380 157<263 340.754> 729 157<1135.74 1215>
DStem2: 551 626 631 624 0.345166 0.938542<25.7362 257.502>
LayerCount: 2
Fore
SplineSet
537 263 m 1,0,1
 470 263 470 263 387 248 c 1,2,-1
 380 257 l 1,3,4
 447 382 447 382 505 515 c 1,5,6
 356 504 356 504 156 460 c 1,7,-1
 150 470 l 1,8,9
 218 588 218 588 237 682 c 1,10,11
 405 636 405 636 551 626 c 1,12,13
 574 684 574 684 596 744 c 0,14,15
 619 808 619 808 639 868 c 1,16,17
 415 867 415 867 156 810 c 1,18,-1
 150 820 l 1,19,20
 218 938 218 938 237 1032 c 1,21,22
 446 974 446 974 672 974 c 1,23,24
 709 1102 709 1102 729 1215 c 1,25,26
 797 1215 797 1215 879 1230 c 1,27,-1
 886 1221 l 1,28,29
 823 1104 823 1104 767 978 c 1,30,31
 913 989 913 989 1110 1032 c 1,32,-1
 1116 1022 l 1,33,34
 1048 904 1048 904 1029 810 c 1,35,36
 862 856 862 856 720 866 c 1,37,38
 694 801 694 801 669 733 c 0,39,40
 649 678 649 678 631 624 c 1,41,42
 851 625 851 625 1110 682 c 1,43,-1
 1116 672 l 1,44,45
 1048 554 1048 554 1029 460 c 1,46,47
 820 518 820 518 599 518 c 1,48,49
 560 386 560 386 537 263 c 1,0,1
EndSplineSet
Validated: 1
EndChar

StartChar: lessequal
Encoding: 8804 8804 147
Width: 1316
GlyphClass: 2
Flags: W
HStem: 84 222<226.343 411.101 854.899 1039.66> 142 106<291.699 974.301>
LayerCount: 2
Fore
SplineSet
1110 1390 m 1,0,-1
 1116 1380 l 1,1,2
 1072 1305 1072 1305 1044 1224 c 1,3,4
 658 1104 658 1104 353 913 c 1,5,6
 648 670 648 670 1110 595 c 1,7,-1
 1116 585 l 1,8,9
 1047 473 1047 473 1029 373 c 1,10,11
 642 661 642 661 156 771 c 1,12,-1
 150 781 l 1,13,14
 218 899 218 899 237 993 c 1,15,16
 674 1117 674 1117 1110 1390 c 1,0,-1
237 306 m 1,17,18
 447 248 447 248 646.5 248 c 128,-1,19
 846 248 846 248 1110 306 c 1,20,-1
 1116 296 l 1,21,22
 1048 178 1048 178 1029 84 c 1,23,24
 819 142 819 142 619.5 142 c 128,-1,25
 420 142 420 142 156 84 c 1,26,-1
 150 94 l 1,27,28
 218 212 218 212 237 306 c 1,17,18
EndSplineSet
Validated: 1
EndChar

StartChar: greaterequal
Encoding: 8805 8805 148
Width: 1316
GlyphClass: 2
Flags: W
HStem: 84 222<276.343 461.101 904.899 1089.66> 142 106<341.699 1024.3>
LayerCount: 2
Fore
SplineSet
287 1390 m 1,0,1
 674 1102 674 1102 1160 992 c 1,2,-1
 1166 982 l 1,3,4
 1098 864 1098 864 1079 770 c 1,5,6
 642 646 642 646 206 373 c 1,7,-1
 200 383 l 1,8,9
 244 458 244 458 272 539 c 1,10,11
 658 659 658 659 963 850 c 1,12,13
 668 1093 668 1093 206 1168 c 1,14,-1
 200 1178 l 1,15,16
 269 1290 269 1290 287 1390 c 1,0,1
287 306 m 1,17,18
 497 248 497 248 696.5 248 c 128,-1,19
 896 248 896 248 1160 306 c 1,20,-1
 1166 296 l 1,21,22
 1098 178 1098 178 1079 84 c 1,23,24
 869 142 869 142 669.5 142 c 128,-1,25
 470 142 470 142 206 84 c 1,26,-1
 200 94 l 1,27,28
 268 212 268 212 287 306 c 1,17,18
EndSplineSet
Validated: 1
EndChar

StartChar: lozenge
Encoding: 9674 9674 149
Width: 1134
GlyphClass: 2
Flags: W
DStem2: 100 738 263 818 0.507923 0.861403<151.704 651.981> 263 818 100 738 0.524536 -0.851388<0 670.384> 567 1530 517 1249 0.509354 -0.860557<216.349 892.569> 611 245 567 -20 0.523035 0.852311<0 492.332>
LayerCount: 2
Fore
SplineSet
611 245 m 1,0,-1
 863 668 l 1,1,-1
 517 1249 l 1,2,-1
 263 818 l 1,3,-1
 611 245 l 1,0,-1
567 -20 m 1,4,-1
 100 738 l 1,5,-1
 567 1530 l 1,6,-1
 1034 741 l 1,7,-1
 567 -20 l 1,4,-1
EndSplineSet
Validated: 1
EndChar

StartChar: Y
Encoding: 89 89 150
Width: 1175
Flags: W
HStem: 0 21G<464 542> 1490 20G<178.5 257 1112.5 1170>
VStem: 501 182<97.813 545.549>
LayerCount: 2
Fore
SplineSet
474 0 m 1,0,-1
 464 6 l 1,1,2
 501 240 501 240 501 436 c 1,3,4
 314 938 314 938 5 1418 c 1,5,6
 110 1431 110 1431 247 1510 c 1,7,-1
 257 1504 l 1,8,9
 394 998 394 998 642 600 c 1,10,11
 850 1012 850 1012 965 1427 c 1,12,13
 1065 1453 1065 1453 1160 1510 c 1,14,-1
 1170 1504 l 1,15,16
 868 994 868 994 683 466 c 1,17,18
 683 278 683 278 716 92 c 1,19,20
 610 79 610 79 474 0 c 1,0,-1
EndSplineSet
Validated: 1
EndChar

StartChar: X
Encoding: 88 88 151
Width: 1185
Flags: W
HStem: 0 21G<30 107.5 903 981.5> 1490 20G<203.5 282 1075.5 1153>
LayerCount: 2
Fore
SplineSet
40 0 m 1,0,-1
 30 6 l 1,1,2
 340 384 340 384 529 699 c 1,3,4
 313 1055 313 1055 30 1418 c 1,5,6
 135 1431 135 1431 272 1510 c 1,7,-1
 282 1504 l 1,8,9
 451 1130 451 1130 624 853 c 1,10,11
 788 1099 788 1099 916 1420 c 1,12,13
 1008 1433 1008 1433 1143 1510 c 1,14,-1
 1153 1504 l 1,15,16
 833 1081 833 1081 667 788 c 1,17,18
 853 466 853 466 1155 92 c 1,19,20
 1050 79 1050 79 913 0 c 1,21,-1
 903 6 l 1,22,23
 731 372 731 372 569 632 c 1,24,25
 388 360 388 360 267 90 c 1,26,27
 175 77 175 77 40 0 c 1,0,-1
EndSplineSet
Validated: 1
EndChar

StartChar: Z
Encoding: 90 90 152
Width: 1168
Flags: W
HStem: 0 21G<80 204 886 1004.5> 45 71<401.792 840.75> 1394 71<335.75 764.901> 1490 20G<198.5 305.5 942 1068>
LayerCount: 2
Fore
SplineSet
90 0 m 1,0,-1
 80 6 l 1,1,2
 561 806 561 806 768 1380 c 1,3,4
 669 1394 669 1394 550 1394 c 0,5,6
 336 1394 336 1394 121 1258 c 1,7,-1
 115 1268 l 1,8,9
 190 1394 190 1394 207 1510 c 1,10,11
 404 1465 404 1465 594 1465 c 0,12,13
 826 1465 826 1465 1058 1510 c 1,14,-1
 1068 1504 l 1,15,16
 578 663 578 663 396 135 c 1,17,18
 487 116 487 116 603 116 c 0,19,20
 839 116 839 116 1082 252 c 1,21,-1
 1088 242 l 1,22,23
 1013 116 1013 116 996 0 c 1,24,25
 776 45 776 45 558 45 c 0,26,27
 318 45 318 45 90 0 c 1,0,-1
EndSplineSet
Validated: 1
EndChar

StartChar: J
Encoding: 74 74 153
Width: 615
Flags: W
HStem: -380 21G<45 124.5> 1490 20G<356.5 435>
VStem: 183 249<920.727 1426> 224 166<282.828 1230.96>
LayerCount: 2
Fore
SplineSet
54 -380 m 1,0,1
 45 -374 l 1,2,3
 162 -169 162 -169 191 61 c 24,4,5
 224 323 224 323 224 730 c 0,6,7
 224 1063 224 1063 183 1418 c 1,8,9
 288 1431 288 1431 425 1510 c 1,10,-1
 435 1504 l 1,11,12
 391 1154 391 1154 390 782 c 0,13,14
 390 429 390 429 432 92 c 1,15,16
 379 -37 379 -37 284 -154 c 0,17,18
 195 -264 195 -264 54 -380 c 1,0,1
EndSplineSet
Validated: 1
EndChar

StartChar: U
Encoding: 85 85 154
Width: 1409
VWidth: 0
Flags: W
HStem: 0 165<605.838 781.475> 1490 20G<352 432 1150.5 1229>
VStem: 221 166<425.086 1282.67> 974 252<84.1953 192.031 920.727 1425.2> 1018 166<282.828 1230.96>
LayerCount: 2
Fore
SplineSet
984 0 m 1,0,-1
 974 6 l 1,1,2
 986 100 986 100 994 195 c 1,3,4
 867 67 867 67 682 0 c 1,5,-1
 672 0 l 1,6,7
 503 46 503 46 386 146 c 0,8,9
 221 287 221 287 221 585 c 2,10,-1
 221 832 l 2,11,12
 221 1087 221 1087 180 1418 c 1,13,14
 282 1430 282 1430 422 1510 c 1,15,-1
 432 1504 l 1,16,17
 387 1153 387 1153 387 782 c 0,18,19
 387 426 387 426 498.5 295.5 c 128,-1,20
 610 165 610 165 796 165 c 0,21,22
 908 165 908 165 998 235 c 1,23,24
 1018 481 1018 481 1018 730 c 0,25,26
 1018 1063 1018 1063 977 1418 c 1,27,28
 1082 1431 1082 1431 1219 1510 c 1,29,-1
 1229 1504 l 1,30,31
 1185 1154 1185 1154 1184 782 c 0,32,33
 1184 429 1184 429 1226 92 c 1,34,35
 1116 77 1116 77 984 0 c 1,0,-1
EndSplineSet
Validated: 1
EndChar

StartChar: K
Encoding: 75 75 155
Width: 1252
Flags: W
HStem: 0 21G<180 256 900 969.5> 1490 20G<359.5 435 1074.5 1150>
VStem: 180 252<84.1953 380.16 916.031 1428.02> 224 166<551 1235.07>
LayerCount: 2
Fore
SplineSet
190 0 m 1,0,-1
 180 6 l 1,1,2
 224 364 224 364 224 730 c 0,3,4
 224 1068 224 1068 183 1422 c 1,5,6
 294 1434 294 1434 425 1510 c 1,7,-1
 435 1504 l 1,8,9
 390 1104 390 1104 390 782 c 0,10,11
 390 611 390 611 392 551 c 1,12,13
 711 964 711 964 898 1422 c 1,14,15
 1009 1434 1009 1434 1140 1510 c 1,16,-1
 1150 1504 l 1,17,18
 869 1147 869 1147 740 921 c 1,19,20
 898 450 898 450 1152 89 c 1,21,22
 1029 71 1029 71 910 0 c 1,23,-1
 900 6 l 1,24,25
 800 397 800 397 596 711 c 1,26,27
 488 564 488 564 403 385 c 1,28,29
 414 230 414 230 432 92 c 1,30,31
 322 77 322 77 190 0 c 1,0,-1
EndSplineSet
Validated: 19457
EndChar

StartChar: Q
Encoding: 81 81 156
Width: 1354
VWidth: 0
Flags: W
HStem: 0 21G<557.5 748.5 990 1047.5> 1490 20G<557.5 795.5>
VStem: 120 168<579.046 1003.62> 1066 168<505.368 930.954>
LayerCount: 2
Fore
SplineSet
672 0 m 1,0,1
 443 90 443 90 298 260 c 0,2,3
 120 469 120 469 120 750 c 0,4,5
 120 1021 120 1021 308 1257 c 0,6,7
 443 1427 443 1427 672 1510 c 1,8,-1
 682 1510 l 1,9,10
 909 1422 909 1422 1056 1250 c 0,11,12
 1234 1041 1234 1041 1234 760 c 0,13,14
 1234 491 1234 491 1046 253 c 0,15,16
 1036 241 1036 241 1026 228 c 1,17,18
 1095 147 1095 147 1186 80 c 1,19,20
 1095 57 1095 57 1000 0 c 1,21,-1
 990 6 l 1,22,23
 958 66 958 66 915 125 c 1,24,25
 815 49 815 49 682 0 c 1,26,-1
 672 0 l 1,0,1
697 367 m 1,27,28
 790 391 790 391 883 447 c 1,29,-1
 893 441 l 1,30,31
 929 357 929 357 983 283 c 1,32,33
 1066 478 1066 478 1066 699 c 0,34,35
 1066 975 1066 975 852 1174 c 0,36,37
 689 1326 689 1326 443 1365 c 1,38,39
 288 1111 288 1111 288 811 c 0,40,41
 288 535 288 535 502 336 c 0,42,43
 661 188 661 188 900 147 c 1,44,45
 816 258 816 258 697 367 c 1,27,28
EndSplineSet
Validated: 1
EndChar

StartChar: P
Encoding: 80 80 157
Width: 1331
VWidth: 0
Flags: W
HStem: 0 21G<226 302> 388 84<451.958 827.32> 1110 20G<402 478> 1321 189<329.738 796.75>
VStem: 226 252<84.1953 424.626 741.203 1045.8> 264 166<112.773 430 504.385 1030.53> 1032 179<719.142 1091.59>
LayerCount: 2
Fore
SplineSet
236 0 m 1,0,-1
 226 6 l 1,1,2
 264 339 264 339 264 565 c 0,3,4
 264 799 264 799 226 1038 c 1,5,6
 336 1053 336 1053 468 1130 c 1,7,-1
 478 1124 l 1,8,9
 430 838 430 838 430 627 c 0,10,11
 430 575 430 575 432 523 c 1,12,13
 532 472 532 472 650 472 c 0,14,15
 853 472 853 472 962 636 c 0,16,17
 1032 741 1032 741 1032 888 c 0,18,19
 1032 1079 1032 1079 916 1195 c 0,20,21
 790 1321 790 1321 576 1321 c 0,22,23
 333 1321 333 1321 126 1163 c 1,24,-1
 120 1173 l 1,25,26
 197 1305 197 1305 212 1415 c 1,27,28
 390 1510 390 1510 593 1510 c 0,29,30
 862 1510 862 1510 1027 1361 c 0,31,32
 1211 1194 1211 1194 1211 940 c 0,33,34
 1211 711 1211 711 1049 548 c 0,35,36
 890 388 890 388 650 388 c 0,37,38
 545 388 545 388 436 430 c 1,39,40
 447 258 447 258 478 92 c 1,41,42
 368 77 368 77 236 0 c 1,0,-1
EndSplineSet
Validated: 1
EndChar

StartChar: D
Encoding: 68 68 158
Width: 1428
VWidth: 0
Flags: W
HStem: 0 76<499.914 851.18> 1110 20G<402 478> 1321 189<336.369 799.414>
VStem: 226 244<572.314 618.725 633.612 1045.8> 264 166<131.444 1030.53> 1114 194<460.543 969.85>
LayerCount: 2
Fore
SplineSet
236 0 m 1,0,-1
 226 6 l 1,1,2
 264 339 264 339 264 565 c 0,3,4
 264 799 264 799 226 1038 c 1,5,6
 336 1053 336 1053 468 1130 c 1,7,-1
 478 1124 l 1,8,9
 430 838 430 838 430 627 c 0,10,11
 430 362 430 362 470 124 c 1,12,13
 595 76 595 76 697 76 c 0,14,15
 926 76 926 76 1038 328 c 0,16,17
 1114 500 1114 500 1114 702 c 0,18,19
 1114 980 1114 980 961 1158 c 0,20,21
 820 1321 820 1321 579 1321 c 0,22,23
 349 1321 349 1321 126 1163 c 1,24,-1
 120 1173 l 1,25,26
 197 1305 197 1305 212 1415 c 1,27,28
 385 1510 385 1510 602 1510 c 0,29,30
 906 1510 906 1510 1099 1321 c 0,31,32
 1308 1117 1308 1117 1308 765 c 0,33,34
 1308 484 1308 484 1182 284 c 0,35,36
 1003 -0 1003 -0 696 0 c 0,37,38
 634 0 634 0 534 18 c 0,39,40
 436 35 436 35 386 35 c 0,41,42
 306 35 306 35 236 0 c 1,0,-1
EndSplineSet
Validated: 1
EndChar

StartChar: R
Encoding: 82 82 159
Width: 1342
VWidth: 0
Flags: W
HStem: 0 21G<226 302 990 1062.5> 388 84<451.958 725.875> 1110 20G<402 478> 1321 189<329.738 796.75>
VStem: 226 252<84.1953 424.626 741.203 1045.8> 264 166<112.773 430 504.385 1030.53> 1032 179<719.142 1091.59>
LayerCount: 2
Fore
SplineSet
236 0 m 1,0,-1
 226 6 l 1,1,2
 264 339 264 339 264 565 c 0,3,4
 264 799 264 799 226 1038 c 1,5,6
 336 1053 336 1053 468 1130 c 1,7,-1
 478 1124 l 1,8,9
 430 838 430 838 430 627 c 0,10,11
 430 575 430 575 432 523 c 1,12,13
 532 472 532 472 650 472 c 0,14,15
 853 472 853 472 962 636 c 0,16,17
 1032 741 1032 741 1032 888 c 0,18,19
 1032 1079 1032 1079 916 1195 c 0,20,21
 790 1321 790 1321 576 1321 c 0,22,23
 333 1321 333 1321 126 1163 c 1,24,-1
 120 1173 l 1,25,26
 197 1305 197 1305 212 1415 c 1,27,28
 390 1510 390 1510 593 1510 c 0,29,30
 862 1510 862 1510 1027 1361 c 0,31,32
 1211 1194 1211 1194 1211 940 c 0,33,34
 1211 711 1211 711 1049 548 c 0,35,36
 987 485 987 485 912 447 c 1,37,38
 1014 267 1014 267 1242 92 c 1,39,40
 1125 74 1125 74 1000 0 c 1,41,-1
 990 6 l 1,42,43
 882 206 882 206 707 390 c 1,44,45
 679 388 679 388 650 388 c 0,46,47
 545 388 545 388 436 430 c 1,48,49
 447 258 447 258 478 92 c 1,50,51
 368 77 368 77 236 0 c 1,0,-1
EndSplineSet
Validated: 1
EndChar

StartChar: S
Encoding: 83 83 160
Width: 1124
VWidth: 0
Flags: W
HStem: 0 21G<431 673> 1490 20G<472 613.5>
VStem: 177 138<1089.56 1263.77> 855 169<343.188 551.888>
DStem2: 470 1008 354 844 0.893249 -0.449563<-175.05 490.4>
LayerCount: 2
Fore
SplineSet
547 0 m 1,0,1
 315 91 315 91 173 260 c 0,2,3
 130 311 130 311 100 360 c 1,4,-1
 104 371 l 1,5,6
 221 382 221 382 293 427 c 1,7,8
 328 383 328 383 377 336 c 0,9,10
 536 183 536 183 786 145 c 1,11,12
 855 267 855 267 855 396 c 0,13,14
 855 590 855 590 632 703 c 2,15,-1
 354 844 l 2,16,17
 177 934 177 934 177 1096 c 0,18,19
 177 1236 177 1236 278 1337 c 0,20,21
 397 1456 397 1456 547 1510 c 1,22,-1
 557 1510 l 1,23,24
 670 1472 670 1472 782 1381 c 0,25,26
 857 1319 857 1319 884 1247 c 1,27,-1
 881 1235 l 1,28,29
 778 1219 778 1219 711 1172 c 1,30,31
 683 1233 683 1233 613 1281 c 0,32,33
 489 1365 489 1365 365 1387 c 1,34,35
 315 1298 315 1298 315 1196 c 0,36,37
 315 1086 315 1086 470 1008 c 2,38,-1
 774 855 l 2,39,40
 1024 729 1024 729 1024 514 c 0,41,42
 1024 383 1024 383 921 253 c 0,43,44
 789 87 789 87 557 0 c 1,45,-1
 547 0 l 1,0,1
EndSplineSet
Validated: 1
EndChar

StartChar: two
Encoding: 50 50 161
Width: 1210
VWidth: 0
Flags: W
HStem: 60 142<308.183 929.245> 1490 20G<472 718.5>
VStem: 144 149<1026.35 1206.13> 870 203<847.884 1140.99>
LayerCount: 2
Fore
SplineSet
161 10 m 1,0,1
 130 42 130 42 130 84 c 0,2,3
 130 258 130 258 524 570 c 2,4,-1
 727 731 l 2,5,6
 870 844 870 844 870 997 c 0,7,8
 870 1130 870 1130 744 1225 c 0,9,10
 603 1332 603 1332 374 1365 c 1,11,12
 293 1266 293 1266 293 1141 c 0,13,14
 293 1019 293 1019 426 974 c 1,15,16
 333 957 333 957 201 883 c 1,17,-1
 191 889 l 1,18,19
 144 962 144 962 144 1052 c 0,20,21
 144 1165 144 1165 231 1263 c 0,22,23
 365 1413 365 1413 579 1510 c 1,24,-1
 589 1510 l 1,25,26
 848 1423 848 1423 990 1257 c 0,27,28
 1073 1160 1073 1160 1073 1028 c 0,29,30
 1073 816 1073 816 866 673 c 2,31,-1
 580 476 l 2,32,33
 406 356 406 356 303 238 c 1,34,35
 469 202 469 202 617 202 c 0,36,37
 828 202 828 202 1074 292 c 1,38,-1
 1080 282 l 1,39,40
 1004 154 1004 154 987 10 c 1,41,42
 782 60 782 60 572 60 c 0,43,44
 355 60 355 60 161 10 c 1,0,1
EndSplineSet
Validated: 1
EndChar

StartChar: three
Encoding: 51 51 162
Width: 1188
Flags: W
HStem: 0 21G<451 693> 800 10<454 460.509> 1490 20G<485 633.5>
VStem: 197 146<1115.28 1263.52> 746 171<1033.17 1217.29> 889 169<372.58 618.562>
LayerCount: 2
Fore
SplineSet
567 0 m 1,0,1
 335 91 335 91 193 260 c 0,2,3
 150 311 150 311 120 360 c 1,4,-1
 124 371 l 1,5,6
 241 382 241 382 313 427 c 1,7,8
 348 383 348 383 397 336 c 0,9,10
 556 183 556 183 806 145 c 1,11,12
 889 300 889 300 889 456 c 0,13,14
 889 600 889 600 782 691 c 0,15,16
 663 792 663 792 454 800 c 1,17,-1
 454 810 l 1,18,19
 746 931 746 931 746 1094 c 0,20,21
 746 1202 746 1202 633 1281 c 0,22,23
 535 1350 535 1350 385 1387 c 1,24,25
 343 1316 343 1316 343 1233 c 0,26,27
 343 1130 343 1130 443 1069 c 1,28,29
 354 1048 354 1048 252 986 c 1,30,-1
 242 992 l 1,31,32
 197 1053 197 1053 197 1126 c 0,33,34
 197 1229 197 1229 298 1337 c 0,35,36
 403 1448 403 1448 567 1510 c 1,37,-1
 577 1510 l 1,38,39
 690 1472 690 1472 802 1381 c 0,40,41
 917 1288 917 1288 917 1170 c 0,42,43
 917 1055 917 1055 815 970 c 0,44,45
 780 941 780 941 729 921 c 1,46,47
 840 904 840 904 925 838 c 0,48,49
 1058 736 1058 736 1058 574 c 0,50,51
 1058 400 1058 400 941 253 c 0,52,53
 809 87 809 87 577 0 c 1,54,-1
 567 0 l 1,0,1
EndSplineSet
Validated: 1
EndChar

StartChar: five
Encoding: 53 53 163
Width: 1178
Flags: W
HStem: 0 21G<451 693> 814 132<420.691 710.58> 1490 20G<381.5 514.5 923.5 1006>
VStem: 234 156<898.349 1413.41> 889 169<372.58 636.99>
LayerCount: 2
Fore
SplineSet
567 0 m 1,0,1
 335 91 335 91 193 260 c 0,2,3
 150 311 150 311 120 360 c 1,4,-1
 124 371 l 1,5,6
 241 382 241 382 313 427 c 1,7,8
 348 383 348 383 397 336 c 0,9,10
 556 183 556 183 806 145 c 1,11,12
 889 300 889 300 889 456 c 0,13,14
 889 601 889 601 798 701 c 0,15,16
 696 814 696 814 520 814 c 0,17,18
 361 814 361 814 214 752 c 1,19,-1
 208 760 l 1,20,21
 234 913 234 913 234 1144 c 0,22,23
 234 1271 234 1271 208 1418 c 1,24,25
 313 1431 313 1431 450 1510 c 1,26,27
 579 1443 579 1443 717 1443 c 0,28,29
 847 1443 847 1443 1000 1510 c 1,30,-1
 1006 1500 l 1,31,32
 929 1368 929 1368 914 1258 c 1,33,34
 769 1267 769 1267 655 1321 c 0,35,36
 543 1373 543 1373 457 1478 c 1,37,38
 390 1310 390 1310 390 1132 c 0,39,40
 390 1002 390 1002 427 895 c 1,41,42
 522 946 522 946 635 946 c 0,43,44
 801 946 801 946 917 856 c 0,45,46
 1058 746 1058 746 1058 574 c 0,47,48
 1058 400 1058 400 941 253 c 0,49,50
 809 87 809 87 577 0 c 1,51,-1
 567 0 l 1,0,1
EndSplineSet
Validated: 1
EndChar

StartChar: paragraph
Encoding: 182 182 164
Width: 1047
Flags: W
HStem: 0 21G<642 670.5> 714 796<307.215 655.977>
VStem: 100 638<928.828 1298.93> 642 96<20.3269 438.599> 692 46<328.384 780> 798 96<88.4219 519.5> 798 54<389.938 1171.04>
LayerCount: 2
Fore
SplineSet
652 0 m 1,0,-1
 642 6 l 1,1,2
 692 364 692 364 692 712 c 0,3,4
 692 746 692 746 692 780 c 1,5,6
 598 714 598 714 482 714 c 0,7,8
 317 714 317 714 212 831 c 0,9,10
 100 956 100 956 100 1110 c 0,11,12
 101 1283 101 1283 215 1397 c 0,13,14
 328 1510 328 1510 480 1510 c 0,15,16
 608 1510 608 1510 709 1431 c 1,17,18
 790 1454 790 1454 887 1510 c 1,19,-1
 897 1504 l 1,20,21
 853 1154 853 1154 852 782 c 0,22,23
 852 429 852 429 894 92 c 1,24,25
 840 78 840 78 798 59 c 1,26,-1
 798 1373 l 1,27,-1
 738 1373 l 1,28,-1
 738 37 l 1,29,30
 689 21 689 21 652 0 c 1,0,-1
EndSplineSet
Validated: 1
EndChar

StartChar: uni00B5
Encoding: 181 181 165
Width: 1191
Flags: W
HStem: -380 21G<152 221> 0 156<516.255 687.094> 1110 20G<308 377 971.5 1041>
VStem: 152 222<-303.657 139.404 626.568 1053.32> 193 141<-26.1582 146.415 366.891 933.372> 816 222<75.761 151.718 546.521 581.787 598.467 1053.32> 861 136<196.714 1013.84>
LayerCount: 2
Fore
SplineSet
826 0 m 1,0,1
 816 6 l 1,2,3
 828 81 828 81 836 154 c 1,4,5
 725 49 725 49 588 0 c 1,6,-1
 578 0 l 1,7,8
 439 47 439 47 337.466796875 146.415039062 c 1,9,10
 347 -78 347 -78 374 -293 c 1,11,12
 280 -312 280 -312 162 -380 c 1,13,-1
 152 -374 l 1,14,15
 193 -40 193 -40 193 452 c 0,16,17
 193 805 193 805 150 1043 c 1,18,19
 249 1061 249 1061 367 1130 c 1,20,-1
 377 1124 l 1,21,22
 334 861 334 861 334 619 c 0,23,24
 334 382 334 382 447 258 c 0,25,26
 540 156 540 156 678 156 c 0,27,28
 776 156 776 156 841 191 c 1,29,30
 861 374 861 374 861 538 c 0,31,32
 861 811 861 811 819 1043 c 1,33,34
 912 1061 912 1061 1031 1130 c 1,35,-1
 1041 1124 l 1,36,37
 997 861 997 861 997 590 c 0,38,39
 997 327 997 327 1038 87 c 1,40,41
 945 69 945 69 826 0 c 1,0,1
EndSplineSet
Validated: 1
EndChar

StartChar: M
Encoding: 77 77 166
Width: 1705
Flags: W
HStem: 0 21G<50 101 674 743.5 1410.5 1476> 1490 20G<331.5 410 1359 1436>
LayerCount: 2
Fore
SplineSet
60 0 m 1,0,-1
 50 6 l 1,1,2
 209 679 209 679 252 1255 c 1,3,4
 210 1340 210 1340 158 1418 c 1,5,6
 263 1431 263 1431 400 1510 c 1,7,-1
 410 1504 l 1,8,9
 570 800 570 800 830 265 c 1,10,11
 1045 729 1045 729 1218 1352 c 1,12,13
 1202 1392 1202 1392 1184 1418 c 1,14,15
 1292 1432 1292 1432 1426 1510 c 1,16,-1
 1436 1504 l 1,17,18
 1471 737 1471 737 1655 92 c 1,19,20
 1539 75 1539 75 1413 0 c 1,21,22
 1408 3 1408 3 1403 6 c 1,23,24
 1382 653 1382 653 1269 1160 c 1,25,26
 1062 702 1062 702 926 92 c 1,27,28
 803 72 803 72 684 0 c 1,29,-1
 674 6 l 1,30,31
 522 600 522 600 336 1066 c 1,32,33
 227 598 227 598 212 71 c 1,34,35
 142 47 142 47 60 0 c 1,0,-1
EndSplineSet
Validated: 1
EndChar

StartChar: B
Encoding: 66 66 167
Width: 1335
VWidth: 0
Flags: W
HStem: 0 76<499.914 862.563> 1110 20G<402 478> 1332 178<343.988 786.53>
VStem: 226 244<572.314 618.725 633.612 1045.8> 264 166<131.444 1030.53> 892 147<1015.64 1237.71> 1049 166<282.221 612.116>
LayerCount: 2
Fore
SplineSet
236 0 m 1,0,-1
 226 6 l 1,1,2
 264 339 264 339 264 565 c 0,3,4
 264 799 264 799 226 1038 c 1,5,6
 336 1053 336 1053 468 1130 c 1,7,-1
 478 1124 l 1,8,9
 430 838 430 838 430 627 c 0,10,11
 430 362 430 362 470 124 c 1,12,13
 595 76 595 76 697 76 c 0,14,15
 878 76 878 76 978 213 c 0,16,17
 1049 311 1049 311 1049 447 c 0,18,19
 1049 586 1049 586 958 667 c 0,20,21
 885 732 885 732 762 732 c 0,22,23
 690 732 690 732 621 710 c 1,24,-1
 615 719 l 1,25,26
 892 924 892 924 892 1103 c 0,27,28
 892 1198 892 1198 829 1257 c 0,29,30
 748 1332 748 1332 577 1332 c 0,31,32
 347 1332 347 1332 126 1163 c 1,33,-1
 120 1173 l 1,34,35
 197 1305 197 1305 212 1415 c 1,36,37
 376 1510 376 1510 577 1510 c 0,38,39
 810 1510 810 1510 929 1401 c 0,40,41
 1039 1300 1039 1300 1039 1164 c 0,42,43
 1039 1072 1039 1072 983 997 c 0,44,45
 952 956 952 956 874 898 c 1,46,47
 998 881 998 881 1084 805 c 0,48,49
 1215 691 1215 691 1215 497 c 0,50,51
 1215 286 1215 286 1076 149 c 0,52,53
 925 0 925 0 696 0 c 0,54,55
 634 0 634 0 534 18 c 0,56,57
 436 35 436 35 386 35 c 0,58,59
 306 35 306 35 236 0 c 1,0,-1
EndSplineSet
Validated: 1
EndChar

StartChar: F
Encoding: 70 70 168
Width: 1031
Flags: W
HStem: 0 21G<180 256> 700 73<391 639.455> 1490 20G<356.5 489.5 898.5 981>
LayerCount: 2
Fore
SplineSet
190 0 m 1,0,1
 180 6 l 1,2,3
 224 364 224 364 224 730 c 0,4,5
 224 1063 224 1063 183 1418 c 1,6,7
 288 1431 288 1431 425 1510 c 1,8,9
 554 1443 554 1443 692 1443 c 0,10,11
 822 1443 822 1443 975 1510 c 1,12,-1
 981 1500 l 1,13,14
 904 1368 904 1368 889 1258 c 1,15,16
 744 1267 744 1267 630 1321 c 0,17,18
 518 1373 518 1373 432 1478 c 1,19,20
 390 1133 390 1133 390 773 c 1,21,22
 620 773 620 773 868 898 c 1,23,-1
 874 888 l 1,24,25
 797 756 797 756 782 646 c 1,26,27
 585 700 585 700 391 700 c 1,28,29
 395 385 395 385 432 92 c 1,30,31
 322 77 322 77 190 0 c 1,0,1
EndSplineSet
Validated: 1
EndChar

StartChar: AE
Encoding: 198 198 169
Width: 1701
Flags: W
HStem: 0 21G<5 70 782 895.5 1472.5 1566.5> 45 71<1030.63 1413.5> 700 73<420.099 826 993 1241.46> 1490 20G<902.5 1091.5 1500.5 1583>
VStem: 826 167<199.57 700 773 1271.83>
LayerCount: 2
Fore
SplineSet
15 0 m 1,0,1
 5 6 l 1,2,3
 341 691 341 691 514 1418 c 1,4,5
 778 1434 778 1434 1027 1510 c 1,6,7
 1156 1443 1156 1443 1294 1443 c 0,8,9
 1424 1443 1424 1443 1577 1510 c 1,10,-1
 1583 1500 l 1,11,12
 1506 1368 1506 1368 1491 1258 c 1,13,14
 1346 1267 1346 1267 1232 1321 c 0,15,16
 1120 1373 1120 1373 1034 1478 c 1,17,18
 992 1133 992 1133 992 773 c 1,19,20
 1222 773 1222 773 1470 898 c 1,21,-1
 1476 888 l 1,22,23
 1399 756 1399 756 1384 646 c 1,24,25
 1187 700 1187 700 993 700 c 1,26,27
 997 401 997 401 1028 135 c 1,28,29
 1112 116 1112 116 1205 116 c 0,30,31
 1402 116 1402 116 1645 252 c 1,32,-1
 1651 242 l 1,33,34
 1574 110 1574 110 1559 0 c 1,35,36
 1386 45 1386 45 1210 45 c 0,37,38
 999 45 999 45 792 0 c 1,39,-1
 782 6 l 1,40,41
 824 349 824 349 826 700 c 1,42,43
 601 700 601 700 368 662 c 1,44,45
 272 390 272 390 210 88 c 1,46,47
 125 67 125 67 15 0 c 1,0,1
826 773 m 1,48,49
 823 1075 823 1075 785 1416 c 1,50,51
 635 1350 635 1350 414 808 c 1,52,53
 609 773 609 773 826 773 c 1,48,49
EndSplineSet
Validated: 1
EndChar

StartChar: Eth
Encoding: 208 208 170
Width: 1428
VWidth: 0
Flags: W
HStem: 0 76<499.914 851.18> 599 146<147.394 258.306 436.656 750.606> 636 72<431 728.373> 1110 20G<402 478> 1321 189<336.369 799.414>
VStem: 226 252<753.656 1045.8> 264 166<131.446 625> 1114 194<460.543 969.85>
LayerCount: 2
Fore
SplineSet
236 0 m 1,0,-1
 226 6 l 1,1,2
 264 339 264 339 264 565 c 0,3,4
 264 595 264 595 263 625 c 1,5,6
 188 616 188 616 106 599 c 1,7,-1
 100 609 l 1,8,9
 143 681 143 681 165 745 c 1,10,11
 214 733 214 733 260 725 c 1,12,13
 251 881 251 881 226 1038 c 1,14,15
 336 1053 336 1053 468 1130 c 1,16,-1
 478 1124 l 1,17,18
 438 887 438 887 431 708 c 1,19,20
 612 708 612 708 792 745 c 1,21,-1
 798 735 l 1,22,23
 755 663 755 663 733 599 c 1,24,25
 585 636 585 636 430 636 c 1,26,27
 430 362 430 362 470 124 c 1,28,29
 595 76 595 76 697 76 c 0,30,31
 926 76 926 76 1038 328 c 0,32,33
 1114 500 1114 500 1114 702 c 0,34,35
 1114 980 1114 980 961 1158 c 0,36,37
 820 1321 820 1321 579 1321 c 0,38,39
 349 1321 349 1321 126 1163 c 1,40,-1
 120 1173 l 1,41,42
 197 1305 197 1305 212 1415 c 1,43,44
 385 1510 385 1510 602 1510 c 0,45,46
 906 1510 906 1510 1099 1321 c 0,47,48
 1308 1117 1308 1117 1308 765 c 0,49,50
 1308 484 1308 484 1182 284 c 0,51,52
 1003 0 1003 0 696 0 c 0,53,54
 634 0 634 0 534 18 c 0,55,56
 436 35 436 35 386 35 c 0,57,58
 306 35 306 35 236 0 c 1,0,-1
EndSplineSet
Validated: 1
EndChar

StartChar: Dcroat
Encoding: 272 272 171
Width: 1428
VWidth: 0
Flags: W
HStem: 0 76<499.914 851.18> 599 146<147.394 258.306 436.656 750.606> 636 72<431 728.373> 1110 20G<402 478> 1321 189<336.369 799.414>
VStem: 226 252<753.656 1045.8> 264 166<131.446 625> 1114 194<460.543 969.85>
LayerCount: 2
Fore
SplineSet
236 0 m 1,0,-1
 226 6 l 1,1,2
 264 339 264 339 264 565 c 0,3,4
 264 595 264 595 263 625 c 1,5,6
 188 616 188 616 106 599 c 1,7,-1
 100 609 l 1,8,9
 143 681 143 681 165 745 c 1,10,11
 214 733 214 733 260 725 c 1,12,13
 251 881 251 881 226 1038 c 1,14,15
 336 1053 336 1053 468 1130 c 1,16,-1
 478 1124 l 1,17,18
 438 887 438 887 431 708 c 1,19,20
 612 708 612 708 792 745 c 1,21,-1
 798 735 l 1,22,23
 755 663 755 663 733 599 c 1,24,25
 585 636 585 636 430 636 c 1,26,27
 430 362 430 362 470 124 c 1,28,29
 595 76 595 76 697 76 c 0,30,31
 926 76 926 76 1038 328 c 0,32,33
 1114 500 1114 500 1114 702 c 0,34,35
 1114 980 1114 980 961 1158 c 0,36,37
 820 1321 820 1321 579 1321 c 0,38,39
 349 1321 349 1321 126 1163 c 1,40,-1
 120 1173 l 1,41,42
 197 1305 197 1305 212 1415 c 1,43,44
 385 1510 385 1510 602 1510 c 0,45,46
 906 1510 906 1510 1099 1321 c 0,47,48
 1308 1117 1308 1117 1308 765 c 0,49,50
 1308 484 1308 484 1182 284 c 0,51,52
 1003 0 1003 0 696 0 c 0,53,54
 634 0 634 0 534 18 c 0,55,56
 436 35 436 35 386 35 c 0,57,58
 306 35 306 35 236 0 c 1,0,-1
EndSplineSet
Validated: 1
EndChar

StartChar: Hbar
Encoding: 294 294 172
Width: 1374
Flags: W
HStem: 0 21G<180 256 939 1015> 721 73<395.502 978.25> 1210 146<97.3936 189.812 1178.16 1275.61> 1247 72<416 953> 1490 20G<356.5 435 1115.5 1194>
VStem: 180 252<84.1953 593.031 1348.8 1425.2> 939 252<84.1953 595.465 1344.56 1425.2>
LayerCount: 2
Fore
SplineSet
190 0 m 1,0,-1
 180 6 l 1,1,2
 224 364 224 364 224 730 c 0,3,4
 224 971 224 971 202 1224 c 1,5,6
 131 1218 131 1218 56 1210 c 1,7,-1
 50 1220 l 1,8,9
 93 1292 93 1292 115 1356 c 1,10,11
 153 1351 153 1351 191 1347 c 1,12,13
 187 1383 187 1383 183 1418 c 1,14,15
 288 1431 288 1431 425 1510 c 1,16,-1
 435 1504 l 1,17,18
 424 1414 424 1414 416 1327 c 1,19,20
 555 1319 555 1319 700 1319 c 0,21,22
 821 1319 821 1319 953 1326 c 1,23,24
 948 1372 948 1372 942 1418 c 1,25,26
 1047 1431 1047 1431 1184 1510 c 1,27,-1
 1194 1504 l 1,28,29
 1184 1424 1184 1424 1176 1342 c 1,30,31
 1245 1348 1245 1348 1317 1356 c 1,32,-1
 1323 1346 l 1,33,34
 1280 1274 1280 1274 1258 1210 c 1,35,36
 1212 1216 1212 1216 1166 1221 c 1,37,38
 1150 1006 1150 1006 1149 782 c 0,39,40
 1149 429 1149 429 1191 92 c 1,41,42
 1081 77 1081 77 949 0 c 1,43,-1
 939 6 l 1,44,45
 983 357 983 357 983 704 c 1,46,47
 831 721 831 721 679 721 c 128,-1,48
 527 721 527 721 390 700 c 1,49,50
 390 396 390 396 432 92 c 1,51,52
 322 77 322 77 190 0 c 1,0,-1
963 1238 m 1,53,54
 822 1247 822 1247 685 1247 c 0,55,56
 556 1247 556 1247 409 1239 c 1,57,58
 391 1014 391 1014 391 810 c 1,59,60
 535 794 535 794 687.5 794 c 128,-1,61
 840 794 840 794 983 815 c 1,62,63
 983 1025 983 1025 963 1238 c 1,53,54
EndSplineSet
Validated: 1
EndChar

StartChar: Lslash
Encoding: 321 321 173
Width: 1064
Flags: W
HStem: 0 21G<190 303.5 880.5 974.5> 45 71<438.627 821.5> 507 155<131 193.363> 1490 20G<366.5 445>
VStem: 232 169<194.544 583 683.95 725.289 782 1207.02>
LayerCount: 2
Fore
SplineSet
200 0 m 1,0,1
 190 6 l 1,2,3
 225 292 225 292 232 583 c 1,4,5
 186 547 186 547 141 507 c 1,6,-1
 131 512 l 1,7,8
 131 594 131 594 119 662 c 1,9,10
 178 679 178 679 234 701 c 1,11,12
 234 1064 234 1064 193 1418 c 1,13,14
 298 1431 298 1431 435 1510 c 1,15,-1
 445 1504 l 1,16,17
 400 1146 400 1146 400 782 c 1,18,19
 545 866 545 866 682 987 c 1,20,21
 692 982 l 1,22,23
 692 898 692 898 704 832 c 1,24,25
 536 784 536 784 423 712 c 0,26,27
 412 705 412 705 401 699 c 1,28,29
 405 406 405 406 436 135 c 1,30,31
 520 116 520 116 613 116 c 0,32,33
 810 116 810 116 1053 252 c 1,34,-1
 1059 242 l 1,35,36
 982 110 982 110 967 0 c 1,37,38
 794 45 794 45 618 45 c 0,39,40
 407 45 407 45 200 0 c 1,0,1
EndSplineSet
Validated: 1
EndChar

StartChar: Eng
Encoding: 330 330 174
Width: 1410
VWidth: 0
Flags: W
HStem: -380 21G<843 922.5> 0 21G<180 258.5> 1345 165<627.525 793.558>
VStem: 180 252<83.9956 589.273 1317.97 1425.8> 225 166<279.042 1227.17> 1022 166<189.58 1054.34>
LayerCount: 2
Fore
SplineSet
190 0 m 1,0,1
 180 6 l 1,2,3
 224 356 224 356 225 728 c 0,4,5
 225 1081 225 1081 183 1418 c 1,6,7
 293 1433 293 1433 425 1510 c 1,8,-1
 435 1504 l 1,9,10
 423 1410 423 1410 415 1315 c 1,11,12
 542 1443 542 1443 727 1510 c 1,13,-1
 737 1510 l 1,14,15
 906 1464 906 1464 1023 1364 c 0,16,17
 1188 1223 1188 1223 1188 925 c 2,18,-1
 1188 678 l 2,19,20
 1188 384 1188 384 1230 92 c 1,21,22
 1177 -36 1177 -36 1082 -154 c 0,23,24
 993 -264 993 -264 852 -380 c 1,25,-1
 843 -374 l 1,26,27
 960 -169 960 -169 989 61 c 0,28,29
 1022 323 1022 323 1022 690 c 0,30,31
 1022 1046 1022 1046 910.5 1195.5 c 128,-1,32
 799 1345 799 1345 613 1345 c 0,33,34
 501 1345 501 1345 411 1275 c 1,35,36
 391 1029 391 1029 391 780 c 0,37,38
 391 447 391 447 432 92 c 1,39,40
 327 79 327 79 190 0 c 1,0,1
EndSplineSet
Validated: 1
EndChar

StartChar: Oslash
Encoding: 216 216 175
Width: 1354
VWidth: 0
Flags: W
HStem: 0 21G<626 798> 1490 20G<557.5 728>
VStem: 120 168<580.612 1003.62> 1066 168<506.879 929.388>
LayerCount: 2
Fore
SplineSet
672 0 m 1,0,1
 580 36 580 36 501 86 c 1,2,3
 486 32 486 32 472 -22 c 1,4,5
 404 -22 404 -22 322 -36 c 1,6,-1
 315 -27 l 1,7,8
 358 68 358 68 399 160 c 1,9,10
 344 206 344 206 298 260 c 0,11,12
 120 469 120 469 120 750 c 0,13,14
 120 1021 120 1021 308 1257 c 0,15,16
 443 1427 443 1427 672 1510 c 1,17,-1
 682 1510 l 1,18,19
 774 1474 774 1474 853 1425 c 1,20,21
 868 1478 868 1478 882 1532 c 1,22,23
 950 1532 950 1532 1032 1546 c 1,24,-1
 1039 1537 l 1,25,26
 996 1443 996 1443 955 1350 c 1,27,28
 1009 1304 1009 1304 1056 1250 c 0,29,30
 1234 1041 1234 1041 1234 760 c 0,31,32
 1234 491 1234 491 1046 253 c 0,33,34
 914 86 914 86 682 0 c 1,35,-1
 672 0 l 1,0,1
911 145 m 1,36,37
 1066 399 1066 399 1066 699 c 0,38,39
 1066 962 1066 962 872 1155 c 1,40,41
 786 949 786 949 713 749 c 0,42,43
 631 524 631 524 560 288 c 1,44,45
 707 177 707 177 911 145 c 1,36,37
482 355 m 1,46,47
 568 563 568 563 640 760 c 0,48,49
 721 984 721 984 794 1223 c 1,50,51
 647 1333 647 1333 443 1365 c 1,52,53
 288 1111 288 1111 288 811 c 0,54,55
 288 548 288 548 482 355 c 1,46,47
EndSplineSet
Validated: 1
EndChar

StartChar: OE
Encoding: 338 338 176
Width: 1779
VWidth: 0
Flags: W
HStem: 0 21G<557.5 734 860 973.5 1550.5 1644.5> 45 71<1108.63 1491.5> 1490 20G<557.5 731 1036.5 1169.5 1578.5 1661>
VStem: 120 168<579.046 1003.62> 1066 168<788 932.199>
LayerCount: 2
Fore
SplineSet
911 145 m 1,0,1
 1066 399 1066 399 1066 699 c 0,2,3
 1066 975 1066 975 852 1174 c 0,4,5
 689 1326 689 1326 443 1365 c 1,6,7
 288 1111 288 1111 288 811 c 0,8,9
 288 535 288 535 502 336 c 24,10,11
 665 184 665 184 911 145 c 1,0,1
672 0 m 1,12,13
 443 90 443 90 298 260 c 0,14,15
 120 469 120 469 120 750 c 0,16,17
 120 1021 120 1021 308 1257 c 0,18,19
 443 1427 443 1427 672 1510 c 1,20,-1
 682 1510 l 1,21,22
 780 1472 780 1472 864 1418 c 1,23,24
 968 1431 968 1431 1105 1510 c 1,25,26
 1234 1443 1234 1443 1372 1443 c 0,27,28
 1502 1443 1502 1443 1655 1510 c 1,29,-1
 1661 1500 l 1,30,31
 1584 1368 1584 1368 1569 1258 c 1,32,33
 1427 1267 1427 1267 1310 1321 c 0,34,35
 1198 1373 1198 1373 1112 1478 c 1,36,37
 1096 1346 1096 1346 1086 1213 c 1,38,39
 1226 1027 1226 1027 1234 788 c 1,40,41
 1387 817 1387 817 1548 898 c 1,42,-1
 1554 888 l 1,43,44
 1477 756 1477 756 1462 646 c 1,45,46
 1346 678 1346 678 1231 691 c 1,47,48
 1213 492 1213 492 1089 311 c 1,49,50
 1096 221 1096 221 1106 135 c 1,51,52
 1190 116 1190 116 1283 116 c 0,53,54
 1480 116 1480 116 1723 252 c 1,55,-1
 1729 242 l 1,56,57
 1652 110 1652 110 1637 0 c 1,58,59
 1464 45 1464 45 1288 45 c 0,60,61
 1077 45 1077 45 870 0 c 1,62,-1
 860 6 l 1,63,64
 865 50 865 50 870 93 c 1,65,66
 786 39 786 39 682 0 c 1,67,-1
 672 0 l 1,12,13
EndSplineSet
Validated: 1
EndChar

StartChar: Scommaaccent
Encoding: 536 536 177
Width: 1124
VWidth: 0
Flags: W
HStem: 0 21G<431 673> 1490 20G<472 613.5>
VStem: 177 138<1089.56 1263.77> 423 56<-387.036 -355.7> 855 169<343.188 551.888>
DStem2: 470 1008 354 844 0.893249 -0.449563<-175.05 490.4>
LayerCount: 2
Fore
SplineSet
547 0 m 1,0,1
 315 91 315 91 173 260 c 0,2,3
 130 311 130 311 100 360 c 1,4,-1
 104 371 l 1,5,6
 221 382 221 382 293 427 c 1,7,8
 328 383 328 383 377 336 c 0,9,10
 536 183 536 183 786 145 c 1,11,12
 855 267 855 267 855 396 c 0,13,14
 855 590 855 590 632 703 c 2,15,-1
 354 844 l 2,16,17
 177 934 177 934 177 1096 c 0,18,19
 177 1236 177 1236 278 1337 c 0,20,21
 397 1456 397 1456 547 1510 c 1,22,-1
 557 1510 l 1,23,24
 670 1472 670 1472 782 1381 c 0,25,26
 857 1319 857 1319 884 1247 c 1,27,-1
 881 1235 l 1,28,29
 778 1219 778 1219 711 1172 c 1,30,31
 683 1233 683 1233 613 1281 c 0,32,33
 489 1365 489 1365 365 1387 c 1,34,35
 315 1298 315 1298 315 1196 c 0,36,37
 315 1086 315 1086 470 1008 c 2,38,-1
 774 855 l 2,39,40
 1024 729 1024 729 1024 514 c 0,41,42
 1024 383 1024 383 921 253 c 0,43,44
 789 87 789 87 557 0 c 1,45,-1
 547 0 l 1,0,1
556 -50 m 1,46,47
 666 -128 666 -128 751 -142 c 1,48,-1
 756 -152 l 1,49,50
 567 -220 567 -220 479 -400 c 1,51,-1
 469 -400 l 1,52,53
 453 -385 453 -385 423 -375 c 1,54,55
 441 -167 441 -167 556 -50 c 1,46,47
EndSplineSet
Validated: 1
EndChar

StartChar: Tbar
Encoding: 358 358 178
Width: 1123
Flags: W
HStem: 0 21G<431 508.5> 658 146<248.394 470.905 645.406 874.606> 1384 73<227.692 443.125 668.253 834.658> 1490 20G<88.5 221 976.5 1118>
VStem: 475 167<187.596 692 771 1271.58>
LayerCount: 2
Fore
SplineSet
441 0 m 1,0,-1
 431 6 l 1,1,2
 473 346 473 346 475 693 c 1,3,4
 344 686 344 686 207 658 c 1,5,-1
 201 668 l 1,6,7
 244 740 244 740 266 804 c 1,8,9
 370 778 370 778 475 771 c 1,10,11
 473 1095 473 1095 439 1384 c 1,12,13
 216 1374 216 1374 11 1258 c 1,14,-1
 5 1268 l 1,15,16
 80 1396 80 1396 97 1510 c 1,17,18
 345 1457 345 1457 578 1457 c 0,19,20
 841 1457 841 1457 1112 1510 c 1,21,-1
 1118 1500 l 1,22,23
 1041 1367 1041 1367 1026 1258 c 1,24,25
 862 1364 862 1364 671 1384 c 1,26,27
 641 1086 641 1086 641 769 c 1,28,29
 774 775 774 775 916 804 c 1,30,-1
 922 794 l 1,31,32
 879 722 879 722 857 658 c 1,33,34
 751 684 751 684 642 692 c 1,35,36
 646 399 646 399 683 92 c 1,37,38
 576 77 576 77 441 0 c 1,0,-1
EndSplineSet
Validated: 1
EndChar

StartChar: uni021A
Encoding: 538 538 179
Width: 1123
Flags: W
HStem: 0 21G<431 508.5> 1384 73<227.692 442.296 668.253 834.658> 1490 20G<88.5 221 976.5 1118>
VStem: 427 56<-387.036 -355.7> 475 166<276.062 1228>
LayerCount: 2
Fore
SplineSet
560 -50 m 1,0,1
 670 -128 670 -128 755 -142 c 1,2,-1
 760 -152 l 1,3,4
 571 -220 571 -220 483 -400 c 1,5,6
 473 -400 l 1,7,8
 457 -385 457 -385 427 -375 c 1,9,10
 445 -167 445 -167 560 -50 c 1,0,1
441 0 m 1,11,-1
 431 6 l 1,12,13
 475 364 475 364 475 730 c 0,14,15
 475 1077 475 1077 439 1384 c 1,16,17
 216 1374 216 1374 11 1258 c 1,18,-1
 5 1268 l 1,19,20
 80 1396 80 1396 97 1510 c 1,21,22
 345 1457 345 1457 578 1457 c 0,23,24
 841 1457 841 1457 1112 1510 c 1,25,-1
 1118 1500 l 1,26,27
 1041 1367 1041 1367 1026 1258 c 1,28,29
 862 1364 862 1364 671 1384 c 1,30,31
 641 1086 641 1086 641 782 c 0,32,33
 641 439 641 439 683 92 c 1,34,35
 576 77 576 77 441 0 c 1,11,-1
EndSplineSet
Validated: 1
EndChar

StartChar: tbar
Encoding: 359 359 180
Width: 731
Flags: W
HStem: 0 21G<258 329.5> 528 146<107.394 296.313 434.534 623.606> 984 146<57.3936 286.493 441.221 673.606> 1490 20G<401.5 473>
VStem: 258 212<75.5625 554.22 1101.5 1433.52> 302 126<101.571 562 641 1019>
LayerCount: 2
Fore
SplineSet
268 0 m 1,0,-1
 258 6 l 1,1,2
 292 282 292 282 300 563 c 1,3,4
 182 556 182 556 66 528 c 1,5,-1
 60 538 l 1,6,7
 103 610 103 610 125 674 c 1,8,9
 213 649 213 649 301 641 c 1,10,11
 302 686 302 686 302 730 c 0,12,13
 302 873 302 873 295 1019 c 1,14,15
 159 1013 159 1013 16 984 c 1,16,-1
 10 994 l 1,17,18
 53 1066 53 1066 75 1130 c 1,19,20
 182 1104 182 1104 290 1096 c 1,21,22
 280 1257 280 1257 261 1423 c 1,23,24
 340 1439 340 1439 463 1510 c 1,25,-1
 473 1504 l 1,26,27
 448 1303 448 1303 437 1095 c 1,28,29
 572 1101 572 1101 715 1130 c 1,30,-1
 721 1120 l 1,31,32
 678 1048 678 1048 656 984 c 1,33,34
 546 1011 546 1011 433 1019 c 1,35,36
 428 902 428 902 428 782 c 0,37,38
 428 710 428 710 430 639 c 1,39,40
 537 645 537 645 665 674 c 1,41,-1
 671 664 l 1,42,43
 628 592 628 592 606 528 c 1,44,45
 513 554 513 554 432 562 c 1,46,47
 441 320 441 320 470 87 c 1,48,49
 391 71 391 71 268 0 c 1,0,-1
EndSplineSet
Validated: 1
EndChar

StartChar: uni021B
Encoding: 539 539 181
Width: 731
Flags: W
HStem: 0 21G<258 329.5> 984 146<57.3936 286.493 441.221 673.606> 1490 20G<401.5 473>
VStem: 231 56<-387.036 -355.7> 258 212<75.5625 558.877 1101.5 1433.52> 302 126<321.169 1019>
LayerCount: 2
Fore
SplineSet
268 0 m 1,0,-1
 258 6 l 1,1,2
 302 364 302 364 302 730 c 0,3,4
 302 873 302 873 295 1019 c 1,5,6
 159 1013 159 1013 16 984 c 1,7,-1
 10 994 l 1,8,9
 53 1066 53 1066 75 1130 c 1,10,11
 182 1104 182 1104 290 1096 c 1,12,13
 280 1257 280 1257 261 1423 c 1,14,15
 340 1439 340 1439 463 1510 c 1,16,-1
 473 1504 l 1,17,18
 448 1303 448 1303 437 1095 c 1,19,20
 572 1101 572 1101 715 1130 c 1,21,-1
 721 1120 l 1,22,23
 678 1048 678 1048 656 984 c 1,24,25
 546 1011 546 1011 433 1019 c 1,26,27
 428 902 428 902 428 782 c 0,28,29
 428 424 428 424 470 87 c 1,30,31
 391 71 391 71 268 0 c 1,0,-1
364 -50 m 1,32,33
 474 -128 474 -128 559 -142 c 1,34,-1
 564 -152 l 1,35,36
 375 -220 375 -220 287 -400 c 1,37,-1
 277 -400 l 1,38,39
 261 -385 261 -385 231 -375 c 1,40,41
 249 -167 249 -167 364 -50 c 1,32,33
EndSplineSet
Validated: 1
EndChar

StartChar: scommaaccent
Encoding: 537 537 182
Width: 894
VWidth: 0
Flags: W
HStem: 0 21G<372.5 551> 1110 20G<391.5 536.5>
VStem: 142 103<812.221 953.389> 320 56<-387.036 -355.7> 677 137<230.403 415.721>
DStem2: 417 730 331 583 0.909881 -0.414868<-193.179 355.08>
LayerCount: 2
Fore
SplineSet
445 0 m 1,0,1
 300 50 300 50 175 170 c 0,2,3
 114 228 114 228 80 291 c 1,4,-1
 83 303 l 1,5,6
 190 319 190 319 238 356 c 1,7,8
 275 306 275 306 321 267 c 0,9,10
 447 160 447 160 632 114 c 1,11,12
 677 201 677 201 677 290 c 0,13,14
 677 425 677 425 524 495 c 2,15,-1
 331 583 l 2,16,17
 142 669 142 669 142 823 c 0,18,19
 142 934 142 934 262 1031 c 0,20,21
 338 1092 338 1092 445 1130 c 1,22,-1
 455 1130 l 1,23,24
 618 1092 618 1092 744 930 c 1,25,-1
 741 918 l 1,26,27
 639 901 639 901 581 862 c 1,28,29
 488 991 488 991 296 1029 c 1,30,31
 245 973 245 973 245 898 c 0,32,33
 245 808 245 808 417 730 c 2,34,-1
 593 650 l 2,35,36
 814 550 814 550 814 380 c 0,37,38
 814 282 814 282 743 192 c 0,39,40
 647 72 647 72 455 0 c 1,41,-1
 445 0 l 1,0,1
453 -50 m 1,42,43
 563 -128 563 -128 648 -142 c 1,44,-1
 653 -152 l 1,45,46
 464 -220 464 -220 376 -400 c 1,47,-1
 366 -400 l 1,48,49
 350 -385 350 -385 320 -375 c 1,50,51
 338 -167 338 -167 453 -50 c 1,42,43
EndSplineSet
Validated: 1
EndChar

StartChar: oslash
Encoding: 248 248 183
Width: 1080
Flags: W
HStem: 0 21G<505.5 641> 1110 20G<438.5 574.5>
VStem: 100 144<423.248 778.463> 243 157<-33 48.7991> 680 157<1079.31 1163> 836 144<350.813 706.752>
LayerCount: 2
Fore
SplineSet
535 0 m 1,0,1
 476 20 476 20 421 51 c 1,2,3
 410 9 410 9 400 -33 c 1,4,5
 332 -33 332 -33 250 -48 c 1,6,-1
 243 -39 l 1,7,8
 283 41 283 41 319 122 c 1,9,10
 292 145 292 145 265 170 c 0,11,12
 100 329 100 329 100 565 c 0,13,14
 100 754 100 754 222 908 c 0,15,16
 342 1057 342 1057 535 1130 c 1,17,-1
 545 1130 l 1,18,19
 604 1110 604 1110 660 1078 c 1,20,21
 671 1120 671 1120 680 1163 c 1,22,23
 748 1163 748 1163 830 1178 c 1,24,-1
 837 1169 l 1,25,26
 797 1089 797 1089 761 1008 c 1,27,28
 788 986 788 986 815 960 c 0,29,30
 980 801 980 801 980 565 c 0,31,32
 980 373 980 373 858 222 c 0,33,34
 737 73 737 73 545 0 c 1,35,-1
 535 0 l 1,0,1
722 114 m 1,36,37
 836 287 836 287 836 511 c 0,38,39
 836 708 836 708 689 845 c 1,40,41
 629 703 629 703 576 559 c 0,42,43
 516 394 516 394 467 224 c 1,44,45
 576 150 576 150 722 114 c 1,36,37
391 285 m 1,46,47
 451 427 451 427 503 570 c 0,48,49
 564 736 564 736 613 906 c 1,50,51
 504 980 504 980 358 1016 c 1,52,53
 244 843 244 843 244 619 c 0,54,55
 244 422 244 422 391 285 c 1,46,47
EndSplineSet
Validated: 1
EndChar

StartChar: oe
Encoding: 339 339 184
Width: 1564
Flags: W
HStem: 0 176<1022.42 1185.47> 459 10<1129 1138.81> 1110 20G<438.5 616 1000.5 1161.5>
VStem: 100 144<422.768 778.463> 836 144<348.849 708.412> 1322 142<593.135 793.952>
LayerCount: 2
Fore
SplineSet
722 114 m 1,0,1
 836 287 836 287 836 511 c 0,2,3
 836 721 836 721 669 863 c 0,4,5
 543 970 543 970 358 1016 c 1,6,7
 244 843 244 843 244 619 c 0,8,9
 244 409 244 409 411 267 c 0,10,11
 537 160 537 160 722 114 c 1,0,1
535 0 m 1,12,13
 391 48 391 48 265 170 c 0,14,15
 100 329 100 329 100 565 c 0,16,17
 100 754 100 754 222 908 c 0,18,19
 342 1057 342 1057 535 1130 c 1,20,-1
 545 1130 l 1,21,22
 687 1082 687 1082 814 961 c 1,23,24
 921 1070 921 1070 1080 1130 c 1,25,-1
 1090 1130 l 1,26,27
 1233 1082 1233 1082 1360 960 c 0,28,29
 1464 860 1464 860 1464 742 c 0,30,31
 1464 627 1464 627 1382 549 c 0,32,33
 1287 459 1287 459 1129 459 c 1,34,-1
 1129 469 l 1,35,36
 1322 538 1322 538 1322 662 c 0,37,38
 1322 772 1322 772 1214 863 c 0,39,40
 1088 970 1088 970 903 1016 c 1,41,42
 873 971 873 971 851 922 c 1,43,44
 980 774 980 774 980 565 c 0,45,46
 980 425 980 425 915 306 c 1,47,48
 923 297 923 297 932 289 c 0,49,50
 1049 176 1049 176 1185 176 c 0,51,52
 1339 176 1339 176 1448 310 c 1,53,-1
 1458 303 l 1,54,55
 1338 96 1338 96 1090 0 c 1,56,-1
 1080 0 l 1,57,58
 936 48 936 48 811 169 c 1,59,60
 702 59 702 59 545 0 c 1,61,-1
 535 0 l 1,12,13
EndSplineSet
Validated: 1
EndChar

StartChar: eng
Encoding: 331 331 185
Width: 1171
Flags: W
HStem: -380 21G<679 754> 0 21G<150 219.5> 974 156<503.906 674.745>
VStem: 150 222<75.761 531.533 548.213 583.479 978.282 1053.32> 194 136<116.16 933.286> 857 141<94.438 761.777>
LayerCount: 2
Fore
SplineSet
160 0 m 1,0,1
 150 6 l 1,2,3
 194 269 194 269 194 540 c 0,4,5
 194 803 194 803 153 1043 c 1,6,7
 246 1061 246 1061 365 1130 c 1,8,-1
 375 1124 l 1,9,10
 363 1049 363 1049 355 976 c 1,11,12
 466 1081 466 1081 603 1130 c 1,13,-1
 613 1130 l 1,14,15
 761 1080 761 1080 866 971 c 0,16,17
 998 834 998 834 998 565 c 0,18,19
 998 325 998 325 1041 87 c 1,20,21
 988 -36 988 -36 907 -152 c 0,22,23
 820 -276 820 -276 688 -380 c 1,24,-1
 679 -374 l 1,25,26
 798 -177 798 -177 835 78 c 24,27,28
 857 230 857 230 857 511 c 0,29,30
 857 748 857 748 744 872 c 0,31,32
 651 974 651 974 513 974 c 0,33,34
 415 974 415 974 350 939 c 1,35,36
 330 756 330 756 330 592 c 0,37,38
 330 319 330 319 372 87 c 1,39,40
 279 69 279 69 160 0 c 1,0,1
EndSplineSet
Validated: 1
EndChar

StartChar: lslash
Encoding: 322 322 186
Width: 635
Flags: W
HStem: 0 21G<210 281.5> 1490 20G<353.5 425>
VStem: 210 212<75.5625 558.709 960.082 1433.52> 254 126<277.993 662 729.523 764.801 831 1208.27>
LayerCount: 2
Fore
SplineSet
220 0 m 1,0,-1
 210 6 l 1,1,2
 250 331 250 331 254 662 c 1,3,4
 151 594 151 594 52 507 c 1,5,-1
 42 512 l 1,6,7
 42 594 42 594 30 662 c 1,8,9
 147 696 147 696 254 751 c 1,10,11
 253 1076 253 1076 213 1423 c 1,12,13
 292 1439 292 1439 415 1510 c 1,14,-1
 425 1504 l 1,15,16
 384 1177 384 1177 380 831 c 1,17,18
 483 899 483 899 583 987 c 1,19,-1
 593 982 l 1,20,21
 593 898 593 898 605 832 c 1,22,23
 488 799 488 799 380 743 c 1,24,25
 382 406 382 406 422 87 c 1,26,27
 343 71 343 71 220 0 c 1,0,-1
EndSplineSet
Validated: 1
EndChar

StartChar: kgreenlandic
Encoding: 312 312 187
Width: 1052
Flags: W
HStem: 0 21G<150 219.5 820 889> 1110 20G<305.5 375 715.5 836>
VStem: 150 222<75.761 415.504 583.163 1053.32> 194 136<575 1012.91>
LayerCount: 2
Fore
SplineSet
160 0 m 1,0,-1
 150 6 l 1,1,2
 194 269 194 269 194 540 c 0,3,4
 194 803 194 803 153 1043 c 1,5,6
 246 1061 246 1061 365 1130 c 1,7,-1
 375 1124 l 1,8,9
 330 836 330 836 330 575 c 1,10,11
 605 810 605 810 826 1130 c 1,12,-1
 836 1129 l 1,13,14
 895 1070 895 1070 953 1045 c 1,15,16
 743 889 743 889 603 732 c 1,17,18
 769 390 769 390 1042 87 c 1,19,20
 948 68 948 68 830 0 c 1,21,-1
 820 6 l 1,22,23
 680 375 680 375 479 602 c 1,24,25
 414 532 414 532 334 421 c 1,26,27
 343 245 343 245 372 87 c 1,28,29
 279 69 279 69 160 0 c 1,0,-1
EndSplineSet
Validated: 1
EndChar

StartChar: hbar
Encoding: 295 295 188
Width: 1170
Flags: W
HStem: 0 21G<150 219 813 882> 974 156<502.969 674.745> 1247 72<355 601.938> 1490 20G<306 375>
VStem: 150 222<76.3428 558.877 1345.25 1432.74> 194 136<310.417 950.236 955 1200.8> 857 141<94.2534 761.777>
LayerCount: 2
Fore
SplineSet
160 0 m 1,0,-1
 150 6 l 1,1,2
 194 364 194 364 194 730 c 0,3,4
 194 975 194 975 172 1233 c 1,5,6
 115 1224 115 1224 56 1210 c 1,7,-1
 50 1220 l 1,8,9
 93 1292 93 1292 115 1356 c 1,10,11
 139 1349 139 1349 162 1344 c 1,12,13
 158 1384 158 1384 153 1423 c 1,14,15
 247 1442 247 1442 365 1510 c 1,16,-1
 375 1504 l 1,17,18
 363 1412 363 1412 355 1319 c 1,19,20
 503 1319 503 1319 665 1356 c 1,21,-1
 671 1346 l 1,22,23
 628 1274 628 1274 606 1210 c 1,24,25
 476 1247 476 1247 349 1247 c 1,26,27
 338 1103 338 1103 333 955 c 1,28,29
 452 1077 452 1077 603 1130 c 1,30,-1
 613 1130 l 1,31,32
 761 1080 761 1080 866 971 c 0,33,34
 998 834 998 834 998 565 c 0,35,36
 998 319 998 319 1040 87 c 1,37,38
 941 69 941 69 823 0 c 1,39,-1
 813 6 l 1,40,41
 857 269 857 269 857 511 c 0,42,43
 857 748 857 748 744 872 c 0,44,45
 651 974 651 974 513 974 c 0,46,47
 401 974 401 974 332 928 c 1,48,49
 330 856 330 856 330 782 c 0,50,51
 330 424 330 424 372 87 c 1,52,53
 278 68 278 68 160 0 c 1,0,-1
EndSplineSet
Validated: 1
EndChar

StartChar: longs
Encoding: 383 383 189
Width: 1011
Flags: W
HStem: 0 21G<242 311> 724 146<57.3936 269.875> 1490 20G<625 802.5>
VStem: 286 136<183.113 756.376 837 1039.69>
LayerCount: 2
Fore
SplineSet
252 0 m 1,0,-1
 242 6 l 1,1,2
 286 343 286 343 286 595 c 0,3,4
 286 675 286 675 280 759 c 1,5,6
 151 752 151 752 16 724 c 1,7,-1
 10 734 l 1,8,9
 53 806 53 806 75 870 c 1,10,11
 173 846 173 846 273 837 c 1,12,13
 262 937 262 937 243 1043 c 1,14,15
 297 1165 297 1165 403 1282 c 0,16,17
 529 1421 529 1421 721 1510 c 1,18,-1
 731 1510 l 1,19,20
 874 1462 874 1462 1001 1340 c 1,21,-1
 998 1328 l 1,22,23
 895 1312 895 1312 828 1265 c 1,24,25
 711 1356 711 1356 544 1396 c 1,26,27
 474 1268 474 1268 457 1165 c 0,28,29
 422 953 422 953 422 652 c 0,30,31
 422 366 422 366 464 87 c 1,32,33
 370 68 370 68 252 0 c 1,0,-1
EndSplineSet
Validated: 1
EndChar

StartChar: florin
Encoding: 402 402 190
Width: 939
Flags: W
HStem: -380 21G<30 105> 761 72<353 621.903> 1490 20G<553 730.5>
VStem: 214 136<178.841 747.532>
LayerCount: 2
Fore
SplineSet
39 -380 m 1,0,1
 30 -374 l 1,2,3
 151 -174 151 -174 186 78 c 24,4,5
 214 278 214 278 214 595 c 0,6,7
 214 671 214 671 208 750 c 1,8,9
 145 741 145 741 76 724 c 1,10,-1
 70 734 l 1,11,12
 113 806 113 806 135 870 c 1,13,14
 168 860 168 860 199 853 c 1,15,16
 189 946 189 946 171 1043 c 1,17,18
 225 1165 225 1165 331 1282 c 0,19,20
 457 1421 457 1421 649 1510 c 1,21,-1
 659 1510 l 1,22,23
 802 1462 802 1462 929 1340 c 1,24,25
 926 1328 l 1,26,27
 823 1312 823 1312 756 1265 c 1,28,29
 639 1356 639 1356 472 1396 c 1,30,31
 406 1275 406 1275 385 1165 c 0,32,33
 359 1030 359 1030 353 833 c 1,34,35
 523 833 523 833 685 870 c 1,36,-1
 691 860 l 1,37,38
 648 788 648 788 626 724 c 1,39,40
 495 761 495 761 351 761 c 1,41,42
 350 709 350 709 350 652 c 0,43,44
 350 383 350 383 392 87 c 1,45,46
 339 -36 339 -36 258 -152 c 0,47,48
 171 -276 171 -276 39 -380 c 1,0,1
EndSplineSet
Validated: 1
EndChar

StartChar: dcroat
Encoding: 273 273 191
Width: 1165
Flags: W
HStem: 0 176<477.422 642.559> 1110 20G<437 607> 1210 146<551.394 810.156 997.689 1067.61> 1247 72<572.813 814> 1490 20G<943.5 1015>
VStem: 100 144<425.085 778.463> 800 212<75.5625 174.313 1336.69 1433.52> 841 129<321.169 723.5 864 1219.19>
LayerCount: 2
Fore
SplineSet
535 0 m 1,0,1
 391 48 391 48 265 170 c 0,2,3
 100 329 100 329 100 565 c 0,4,5
 100 754 100 754 222 908 c 0,6,7
 339 1056 339 1056 535 1130 c 1,8,-1
 545 1130 l 1,9,10
 669 1097 669 1097 756 1005 c 0,11,12
 809 949 809 949 842 864 c 1,13,14
 837 1054 837 1054 821 1247 c 1,15,16
 664 1247 664 1247 510 1210 c 1,17,-1
 504 1220 l 1,18,19
 547 1292 547 1292 569 1356 c 1,20,21
 691 1321 691 1321 814 1319 c 1,22,23
 809 1371 809 1371 803 1423 c 1,24,25
 882 1439 882 1439 1005 1510 c 1,26,-1
 1015 1504 l 1,27,28
 1004 1420 1004 1420 996 1334 c 1,29,30
 1050 1343 1050 1343 1109 1356 c 1,31,-1
 1115 1346 l 1,32,33
 1072 1274 1072 1274 1050 1210 c 1,34,35
 1018 1219 1018 1219 987 1226 c 1,36,37
 971 1008 971 1008 970 782 c 0,38,39
 970 424 970 424 1012 87 c 1,40,41
 933 71 933 71 810 0 c 1,42,-1
 800 6 l 1,43,44
 810 91 810 91 818 177 c 1,45,46
 710 64 710 64 545 0 c 1,47,-1
 535 0 l 1,0,1
841 525 m 0,48,49
 841 739 841 739 671 891 c 0,50,51
 556 994 556 994 358 1016 c 1,52,53
 244 843 244 843 244 619 c 0,54,55
 244 427 244 427 387 289 c 0,56,57
 504 176 504 176 640 176 c 0,58,59
 742 176 742 176 824 234 c 1,60,61
 841 374 841 374 841 525 c 0,48,49
EndSplineSet
Validated: 1
EndChar

StartChar: ae
Encoding: 230 230 192
Width: 1651
Flags: W
HStem: 0 176<412.518 580.917 1111.4 1272.47> 459 10<1216 1225.81> 661 10<425.187 435> 974 156<442.656 611.969>
VStem: 100 142<336.876 536.865> 796 141<384.813 763.109> 1409 142<593.135 793.952>
LayerCount: 2
Fore
SplineSet
484 0 m 1,0,-1
 474 0 l 1,1,2
 330 48 330 48 204 170 c 0,3,4
 100 270 100 270 100 388 c 0,5,6
 100 503 100 503 182 581 c 0,7,8
 277 671 277 671 435 671 c 1,9,-1
 435 661 l 1,10,11
 242 592 242 592 242 468 c 0,12,13
 242 371 242 371 337 278 c 0,14,15
 441 176 441 176 579 176 c 0,16,17
 694 176 694 176 784 251 c 1,18,19
 796 384 796 384 796 511 c 0,20,21
 796 748 796 748 683 872 c 0,22,23
 590 974 590 974 452 974 c 0,24,25
 352 974 352 974 266 935 c 1,26,-1
 261 944 l 1,27,28
 383 1074 383 1074 542 1130 c 1,29,-1
 552 1130 l 1,30,31
 705 1078 705 1078 805 971 c 0,32,33
 832 942 832 942 854 908 c 1,34,35
 971 1056 971 1056 1167 1130 c 1,36,-1
 1177 1130 l 1,37,38
 1320 1082 1320 1082 1447 960 c 0,39,40
 1551 860 1551 860 1551 742 c 0,41,42
 1551 627 1551 627 1469 549 c 0,43,44
 1374 459 1374 459 1216 459 c 1,45,-1
 1216 469 l 1,46,47
 1409 538 1409 538 1409 662 c 0,48,49
 1409 772 1409 772 1301 863 c 0,50,51
 1175 970 1175 970 990 1016 c 1,52,53
 928 922 928 922 900 813 c 1,54,55
 937 707 937 707 937 565 c 0,56,57
 937 472 937 472 943 382 c 1,58,59
 974 333 974 333 1019 289 c 0,60,61
 1136 176 1136 176 1272 176 c 0,62,63
 1426 176 1426 176 1535 310 c 1,64,-1
 1545 303 l 1,65,66
 1425 96 1425 96 1177 0 c 1,67,-1
 1167 0 l 1,68,69
 1034 47 1034 47 955 152 c 1,70,71
 958 115 958 115 966 84 c 1,72,73
 874 66 874 66 762 0 c 1,74,-1
 752 6 l 1,75,76
 769 105 769 105 779 200 c 1,77,78
 666 70 666 70 484 0 c 1,0,-1
EndSplineSet
Validated: 1
EndChar

StartChar: eth
Encoding: 240 240 193
Width: 1080
Flags: W
HStem: 0 21G<463 635.5> 1146 157<349 413.875> 1334 157<793.425 860> 1490 20G<493 576.5>
VStem: 100 144<422.768 778.792> 836 144<351.408 794.012>
LayerCount: 2
Fore
SplineSet
545 0 m 1,0,-1
 535 0 l 1,1,2
 391 48 391 48 265 170 c 0,3,4
 100 329 100 329 100 565 c 0,5,6
 100 754 100 754 222 908 c 0,7,8
 282 984 282 984 363 1040 c 1,9,-1
 369 1034 l 1,10,11
 244 839 244 839 244 619 c 0,12,13
 244 409 244 409 411 267 c 0,14,15
 537 160 537 160 722 114 c 1,16,17
 836 290 836 290 836 511 c 0,18,19
 836 744 836 744 719 972 c 0,20,21
 643 1121 643 1121 537 1252 c 1,22,23
 436 1207 436 1207 343 1146 c 1,24,-1
 334 1153 l 1,25,26
 349 1230 349 1230 349 1303 c 1,27,28
 415 1307 415 1307 478 1321 c 1,29,30
 429 1376 429 1376 374 1428 c 1,31,32
 451 1482 451 1482 535 1510 c 1,33,-1
 545 1510 l 1,34,35
 608 1449 608 1449 664 1381 c 1,36,37
 759 1423 759 1423 865 1491 c 1,38,-1
 874 1484 l 1,39,40
 860 1410 860 1410 860 1334 c 1,41,42
 783 1328 783 1328 716 1314 c 1,43,44
 814 1182 814 1182 885 1028 c 0,45,46
 980 822 980 822 980 590 c 0,47,48
 980 364 980 364 858 222 c 0,49,50
 726 68 726 68 545 0 c 1,0,-1
EndSplineSet
Validated: 1
EndChar

StartChar: AEacute
Encoding: 508 508 194
Width: 1701
Flags: W
HStem: 0 21G<5 70 782 895.5 1472.5 1566.5> 45 71<1030.63 1413.5> 700 73<420.099 826 993 1241.46> 1490 20G<902.5 1091.5 1500.5 1583>
VStem: 826 167<199.57 700 773 1271.83> 868 56<1572.96 1604.3>
LayerCount: 2
Fore
SplineSet
1001 1910 m 1,0,1
 1111 1832 1111 1832 1196 1818 c 1,2,-1
 1201 1808 l 1,3,4
 1012 1740 1012 1740 924 1560 c 1,5,6
 914 1560 l 1,7,8
 898 1575 898 1575 868 1585 c 1,9,10
 886 1793 886 1793 1001 1910 c 1,0,1
15 0 m 1,11,-1
 5 6 l 1,12,13
 341 691 341 691 514 1418 c 1,14,15
 778 1434 778 1434 1027 1510 c 1,16,17
 1156 1443 1156 1443 1294 1443 c 0,18,19
 1424 1443 1424 1443 1577 1510 c 1,20,-1
 1583 1500 l 1,21,22
 1506 1368 1506 1368 1491 1258 c 1,23,24
 1346 1267 1346 1267 1232 1321 c 0,25,26
 1120 1373 1120 1373 1034 1478 c 1,27,28
 992 1133 992 1133 992 773 c 1,29,30
 1222 773 1222 773 1470 898 c 1,31,-1
 1476 888 l 1,32,33
 1399 756 1399 756 1384 646 c 1,34,35
 1187 700 1187 700 993 700 c 1,36,37
 997 401 997 401 1028 135 c 1,38,39
 1112 116 1112 116 1205 116 c 0,40,41
 1402 116 1402 116 1645 252 c 1,42,-1
 1651 242 l 1,43,44
 1574 110 1574 110 1559 0 c 1,45,46
 1386 45 1386 45 1210 45 c 0,47,48
 999 45 999 45 792 0 c 1,49,-1
 782 6 l 1,50,51
 824 349 824 349 826 700 c 1,52,53
 601 700 601 700 368 662 c 1,54,55
 272 390 272 390 210 88 c 1,56,57
 125 67 125 67 15 0 c 1,11,-1
826 773 m 1,58,59
 823 1075 823 1075 785 1416 c 1,60,61
 635 1350 635 1350 414 808 c 1,62,63
 609 773 609 773 826 773 c 1,58,59
EndSplineSet
Validated: 1
EndChar

StartChar: aeacute
Encoding: 509 509 195
Width: 1651
Flags: W
HStem: 0 176<412.518 580.917 1111.4 1272.47> 459 10<1216 1225.81> 661 10<425.187 435> 974 156<442.656 611.969>
VStem: 100 142<336.876 536.865> 796 141<384.813 763.109> 821 56<1192.96 1224.3> 1409 142<593.135 793.952>
LayerCount: 2
Fore
SplineSet
954 1530 m 1,0,1
 1064 1452 1064 1452 1149 1438 c 1,2,-1
 1154 1428 l 1,3,4
 965 1360 965 1360 877 1180 c 1,5,6
 867 1180 l 1,7,8
 851 1195 851 1195 821 1205 c 1,9,10
 839 1413 839 1413 954 1530 c 1,0,1
484 0 m 1,11,-1
 474 0 l 1,12,13
 330 48 330 48 204 170 c 0,14,15
 100 270 100 270 100 388 c 0,16,17
 100 503 100 503 182 581 c 0,18,19
 277 671 277 671 435 671 c 1,20,-1
 435 661 l 1,21,22
 242 592 242 592 242 468 c 0,23,24
 242 371 242 371 337 278 c 0,25,26
 441 176 441 176 579 176 c 0,27,28
 694 176 694 176 784 251 c 1,29,30
 796 384 796 384 796 511 c 0,31,32
 796 748 796 748 683 872 c 0,33,34
 590 974 590 974 452 974 c 0,35,36
 352 974 352 974 266 935 c 1,37,-1
 261 944 l 1,38,39
 383 1074 383 1074 542 1130 c 1,40,-1
 552 1130 l 1,41,42
 705 1078 705 1078 805 971 c 0,43,44
 832 942 832 942 854 908 c 1,45,46
 971 1056 971 1056 1167 1130 c 1,47,-1
 1177 1130 l 1,48,49
 1320 1082 1320 1082 1447 960 c 0,50,51
 1551 860 1551 860 1551 742 c 0,52,53
 1551 627 1551 627 1469 549 c 0,54,55
 1374 459 1374 459 1216 459 c 1,56,-1
 1216 469 l 1,57,58
 1409 538 1409 538 1409 662 c 0,59,60
 1409 772 1409 772 1301 863 c 0,61,62
 1175 970 1175 970 990 1016 c 1,63,64
 928 922 928 922 900 813 c 1,65,66
 937 707 937 707 937 565 c 0,67,68
 937 472 937 472 943 382 c 1,69,70
 974 333 974 333 1019 289 c 0,71,72
 1136 176 1136 176 1272 176 c 0,73,74
 1426 176 1426 176 1535 310 c 1,75,-1
 1545 303 l 1,76,77
 1425 96 1425 96 1177 0 c 1,78,-1
 1167 0 l 1,79,80
 1034 47 1034 47 955 152 c 1,81,82
 958 115 958 115 966 84 c 1,83,84
 874 66 874 66 762 0 c 1,85,-1
 752 6 l 1,86,87
 769 105 769 105 779 200 c 1,88,89
 666 70 666 70 484 0 c 1,11,-1
EndSplineSet
Validated: 1
EndChar

StartChar: thorn
Encoding: 254 254 196
Width: 1175
Flags: W
HStem: -380 21G<150 219> 0 21G<568 738> 954 176<536.81 697.578> 1490 20G<307 376>
VStem: 150 222<-303.657 187.442 946.696 1432.74> 195 136<406.25 911.275 929 1029> 931 144<351.537 704.915>
LayerCount: 2
Fore
SplineSet
640 0 m 1,0,-1
 630 0 l 1,1,2
 506 33 506 33 419 125 c 0,3,4
 366 181 366 181 333 266 c 1,5,6
 340 -11 340 -11 372 -293 c 1,7,8
 278 -312 278 -312 160 -380 c 1,9,-1
 150 -374 l 1,10,11
 194 -24 194 -24 195 563 c 0,12,13
 195 1065 195 1065 154 1423 c 1,14,15
 248 1442 248 1442 366 1510 c 1,16,-1
 376 1504 l 1,17,18
 331 1212 331 1212 331 929 c 1,19,20
 458 1063 458 1063 630 1130 c 1,21,-1
 640 1130 l 1,22,23
 784 1082 784 1082 910 960 c 0,24,25
 1075 801 1075 801 1075 565 c 0,26,27
 1075 376 1075 376 953 222 c 0,28,29
 836 74 836 74 640 0 c 1,0,-1
817 114 m 1,30,31
 931 287 931 287 931 511 c 0,32,33
 931 703 931 703 788 841 c 0,34,35
 671 954 671 954 535 954 c 0,36,37
 426 954 426 954 331 884 c 1,38,-1
 331 602 l 2,39,40
 331 392 331 392 504 239 c 0,41,42
 620 136 620 136 817 114 c 1,30,31
EndSplineSet
Validated: 1
EndChar

StartChar: Thorn
Encoding: 222 222 197
Width: 1331
Flags: W
HStem: 0 21G<226 302> 194 84<464.764 827.32> 1127 189<461.028 796.75> 1490 20G<402.5 481>
VStem: 226 252<84.1953 223.906 1308.16 1425.2> 270 166<325.127 1053> 1032 179<525.142 897.592>
LayerCount: 2
Fore
SplineSet
236 0 m 1,0,-1
 226 6 l 1,1,2
 270 364 270 364 270 730 c 0,3,4
 270 889 270 889 261 1053 c 1,5,6
 192 1019 192 1019 126 969 c 1,7,-1
 120 979 l 1,8,9
 197 1111 197 1111 212 1221 c 1,10,11
 229 1230 229 1230 247 1239 c 1,12,13
 239 1328 239 1328 229 1418 c 1,14,15
 334 1431 334 1431 471 1510 c 1,16,-1
 481 1504 l 1,17,18
 469 1406 469 1406 460 1305 c 1,19,20
 525 1316 525 1316 593 1316 c 0,21,22
 862 1316 862 1316 1027 1167 c 0,23,24
 1211 1000 1211 1000 1211 746 c 0,25,26
 1211 517 1211 517 1049 354 c 0,27,28
 890 194 890 194 650 194 c 0,29,30
 558 194 558 194 463 226 c 1,31,32
 470 159 470 159 478 92 c 1,33,34
 368 77 368 77 236 0 c 1,0,-1
455 318 m 1,35,36
 546 278 546 278 650 278 c 0,37,38
 853 278 853 278 962 442 c 0,39,40
 1032 547 1032 547 1032 694 c 0,41,42
 1032 885 1032 885 916 1001 c 0,43,44
 790 1127 790 1127 576 1127 c 0,45,46
 510 1127 510 1127 446 1115 c 1,47,48
 437 951 437 951 436 782 c 0,49,50
 436 546 436 546 455 318 c 1,35,36
EndSplineSet
Validated: 1
EndChar

StartChar: germandbls
Encoding: 223 223 198
Width: 1133
Flags: W
HStem: 0 76<512.081 652.317> 1490 20G<533 697>
VStem: 194 136<176.731 1036.28> 792 142<1014.75 1237> 853 160<270.953 592.943>
LayerCount: 2
Fore
SplineSet
160 0 m 1,0,1
 150 6 l 1,2,3
 194 320 194 320 194 595 c 0,4,5
 194 828 194 828 151 1043 c 1,6,7
 205 1165 205 1165 311 1282 c 0,8,9
 437 1421 437 1421 629 1510 c 1,10,-1
 639 1510 l 1,11,12
 755 1465 755 1465 830 1392 c 0,13,14
 934 1292 934 1292 934 1163 c 0,15,16
 934 1060 934 1060 863 976 c 0,17,18
 809 912 809 912 728 862 c 1,19,20
 826 829 826 829 902 750 c 0,21,22
 1013 636 1013 636 1013 472 c 0,23,24
 1013 310 1013 310 919 192 c 0,25,26
 766 0 766 0 498 0 c 1,27,-1
 492 10 l 1,28,29
 522 49 522 49 530 76 c 1,30,31
 691 105 691 105 776 203 c 0,32,33
 853 290 853 290 853 426 c 0,34,35
 853 563 853 563 754 663 c 0,36,37
 670 748 670 748 505 793 c 1,38,-1
 505 803 l 1,39,40
 792 920 792 920 792 1113 c 0,41,42
 792 1220 792 1220 684 1295 c 0,43,44
 591 1360 591 1360 452 1396 c 1,45,46
 381 1267 381 1267 365 1165 c 0,47,48
 330 940 330 940 330 652 c 0,49,50
 330 375 330 375 372 87 c 1,51,52
 278 68 278 68 160 0 c 1,0,1
EndSplineSet
Validated: 1
EndChar

StartChar: Oslashacute
Encoding: 510 510 199
Width: 1354
VWidth: 0
Flags: W
HStem: 0 21G<626 798> 1490 20G<557.5 728>
VStem: 120 168<580.612 1003.62> 655 56<1572.96 1604.3> 1066 168<506.879 929.388>
LayerCount: 2
Fore
SplineSet
788 1910 m 1,0,1
 898 1832 898 1832 983 1818 c 1,2,-1
 988 1808 l 1,3,4
 799 1740 799 1740 711 1560 c 1,5,6
 701 1560 l 1,7,8
 685 1575 685 1575 655 1585 c 1,9,10
 673 1793 673 1793 788 1910 c 1,0,1
672 0 m 1,11,12
 580 36 580 36 501 86 c 1,13,14
 486 32 486 32 472 -22 c 1,15,16
 404 -22 404 -22 322 -36 c 1,17,-1
 315 -27 l 1,18,19
 358 68 358 68 399 160 c 1,20,21
 344 206 344 206 298 260 c 0,22,23
 120 469 120 469 120 750 c 0,24,25
 120 1021 120 1021 308 1257 c 0,26,27
 443 1427 443 1427 672 1510 c 1,28,-1
 682 1510 l 1,29,30
 774 1474 774 1474 853 1425 c 1,31,32
 868 1478 868 1478 882 1532 c 1,33,34
 950 1532 950 1532 1032 1546 c 1,35,-1
 1039 1537 l 1,36,37
 996 1443 996 1443 955 1350 c 1,38,39
 1009 1304 1009 1304 1056 1250 c 0,40,41
 1234 1041 1234 1041 1234 760 c 0,42,43
 1234 491 1234 491 1046 253 c 0,44,45
 914 86 914 86 682 0 c 1,46,-1
 672 0 l 1,11,12
911 145 m 1,47,48
 1066 399 1066 399 1066 699 c 0,49,50
 1066 962 1066 962 872 1155 c 1,51,52
 786 949 786 949 713 749 c 0,53,54
 631 524 631 524 560 288 c 1,55,56
 707 177 707 177 911 145 c 1,47,48
482 355 m 1,57,58
 568 563 568 563 640 760 c 0,59,60
 721 984 721 984 794 1223 c 1,61,62
 647 1333 647 1333 443 1365 c 1,63,64
 288 1111 288 1111 288 811 c 0,65,66
 288 548 288 548 482 355 c 1,57,58
EndSplineSet
Validated: 1
EndChar

StartChar: oslashacute
Encoding: 511 511 200
Width: 1080
Flags: W
HStem: 0 21G<505.5 641> 1110 20G<438.5 574.5>
VStem: 100 144<423.248 778.463> 243 157<-33 48.7991> 490 56<1192.96 1224.3> 680 157<1079.31 1163> 836 144<350.813 706.752>
LayerCount: 2
Fore
SplineSet
623 1530 m 1,0,1
 733 1452 733 1452 818 1438 c 1,2,-1
 823 1428 l 1,3,4
 634 1360 634 1360 546 1180 c 1,5,6
 536 1180 l 1,7,8
 520 1195 520 1195 490 1205 c 1,9,10
 508 1413 508 1413 623 1530 c 1,0,1
535 0 m 1,11,12
 476 20 476 20 421 51 c 1,13,14
 410 9 410 9 400 -33 c 1,15,16
 332 -33 332 -33 250 -48 c 1,17,-1
 243 -39 l 1,18,19
 283 41 283 41 319 122 c 1,20,21
 292 145 292 145 265 170 c 0,22,23
 100 329 100 329 100 565 c 0,24,25
 100 754 100 754 222 908 c 0,26,27
 342 1057 342 1057 535 1130 c 1,28,-1
 545 1130 l 1,29,30
 604 1110 604 1110 660 1078 c 1,31,32
 671 1120 671 1120 680 1163 c 1,33,34
 748 1163 748 1163 830 1178 c 1,35,-1
 837 1169 l 1,36,37
 797 1089 797 1089 761 1008 c 1,38,39
 788 986 788 986 815 960 c 0,40,41
 980 801 980 801 980 565 c 0,42,43
 980 373 980 373 858 222 c 0,44,45
 737 73 737 73 545 0 c 1,46,-1
 535 0 l 1,11,12
722 114 m 1,47,48
 836 287 836 287 836 511 c 0,49,50
 836 708 836 708 689 845 c 1,51,52
 629 703 629 703 576 559 c 0,53,54
 516 394 516 394 467 224 c 1,55,56
 576 150 576 150 722 114 c 1,47,48
391 285 m 1,57,58
 451 427 451 427 503 570 c 0,59,60
 564 736 564 736 613 906 c 1,61,62
 504 980 504 980 358 1016 c 1,63,64
 244 843 244 843 244 619 c 0,65,66
 244 422 244 422 391 285 c 1,57,58
EndSplineSet
Validated: 1
EndChar

StartChar: uni1E02
Encoding: 7682 7682 201
Width: 1335
VWidth: 0
Flags: W
HStem: 0 76<499.914 862.563> 1110 20G<402 478> 1332 178<343.988 786.53> 1580 297<522.006 675.994>
VStem: 226 244<572.314 618.725 633.612 1045.8> 264 166<131.444 1030.53> 470 258<1631.27 1826.99> 892 147<1015.64 1237.71> 1049 166<282.221 612.116>
LayerCount: 2
Fore
SplineSet
602 1877 m 1,0,1
 649 1861 649 1861 683 1827 c 0,2,3
 728 1784 728 1784 728 1729 c 0,4,5
 728 1670 728 1670 676 1624 c 0,6,7
 644 1597 644 1597 602 1580 c 1,8,-1
 596 1580 l 1,9,10
 554 1597 554 1597 522 1624 c 0,11,12
 470 1669 470 1669 470 1729 c 0,13,14
 470 1785 470 1785 515 1827 c 0,15,16
 549 1861 549 1861 596 1877 c 1,17,-1
 602 1877 l 1,0,1
236 0 m 1,18,-1
 226 6 l 1,19,20
 264 339 264 339 264 565 c 0,21,22
 264 799 264 799 226 1038 c 1,23,24
 336 1053 336 1053 468 1130 c 1,25,-1
 478 1124 l 1,26,27
 430 838 430 838 430 627 c 0,28,29
 430 362 430 362 470 124 c 1,30,31
 595 76 595 76 697 76 c 0,32,33
 878 76 878 76 978 213 c 0,34,35
 1049 311 1049 311 1049 447 c 0,36,37
 1049 586 1049 586 958 667 c 0,38,39
 885 732 885 732 762 732 c 0,40,41
 690 732 690 732 621 710 c 1,42,-1
 615 719 l 1,43,44
 892 924 892 924 892 1103 c 0,45,46
 892 1198 892 1198 829 1257 c 0,47,48
 748 1332 748 1332 577 1332 c 0,49,50
 347 1332 347 1332 126 1163 c 1,51,-1
 120 1173 l 1,52,53
 197 1305 197 1305 212 1415 c 1,54,55
 376 1510 376 1510 577 1510 c 0,56,57
 810 1510 810 1510 929 1401 c 0,58,59
 1039 1300 1039 1300 1039 1164 c 0,60,61
 1039 1072 1039 1072 983 997 c 0,62,63
 952 956 952 956 874 898 c 1,64,65
 998 881 998 881 1084 805 c 0,66,67
 1215 691 1215 691 1215 497 c 0,68,69
 1215 286 1215 286 1076 149 c 0,70,71
 925 0 925 0 696 0 c 0,72,73
 634 0 634 0 534 18 c 0,74,75
 436 35 436 35 386 35 c 0,76,77
 306 35 306 35 236 0 c 1,18,-1
EndSplineSet
Validated: 1
EndChar

StartChar: uni1E03
Encoding: 7683 7683 202
Width: 1151
Flags: W
HStem: 0 21G<534 712> 1021 109<571.898 605> 1490 20G<283 352> 1580 297<162.006 315.994>
VStem: 110 258<1631.27 1826.99> 171 136<451.5 1123.53> 907 144<350.813 711.783>
LayerCount: 2
Fore
SplineSet
242 1877 m 1,0,1
 289 1861 289 1861 323 1827 c 0,2,3
 368 1784 368 1784 368 1729 c 0,4,5
 368 1670 368 1670 316 1624 c 0,6,7
 284 1597 284 1597 242 1580 c 1,8,-1
 236 1580 l 1,9,10
 194 1597 194 1597 162 1624 c 0,11,12
 110 1669 110 1669 110 1729 c 0,13,14
 110 1785 110 1785 155 1827 c 0,15,16
 189 1861 189 1861 236 1877 c 1,17,-1
 242 1877 l 1,0,1
606 0 m 1,18,19
 462 48 462 48 336 170 c 0,20,21
 171 329 171 329 171 652 c 0,22,23
 171 1066 171 1066 130 1423 c 1,24,25
 224 1442 224 1442 342 1510 c 1,26,-1
 352 1504 l 1,27,28
 308 1154 308 1154 307 705 c 0,29,30
 307 417 307 417 482 267 c 0,31,32
 608 159 608 159 793 114 c 1,33,34
 907 287 907 287 907 511 c 0,35,36
 907 726 907 726 740 863 c 0,37,38
 605 974 605 974 408 1021 c 1,39,40
 495 1088 495 1088 606 1130 c 1,41,-1
 616 1130 l 1,42,43
 759 1082 759 1082 886 960 c 0,44,45
 1051 801 1051 801 1051 565 c 0,46,47
 1051 373 1051 373 929 222 c 0,48,49
 808 73 808 73 616 0 c 1,50,-1
 606 0 l 1,18,19
EndSplineSet
Validated: 1
EndChar

StartChar: uni1E0A
Encoding: 7690 7690 203
Width: 1428
VWidth: 0
Flags: W
HStem: 0 76<499.914 851.18> 1110 20G<402 478> 1321 189<336.369 799.414> 1580 297<601.006 754.994>
VStem: 226 244<572.314 618.725 633.612 1045.8> 264 166<131.444 1030.53> 549 258<1631.27 1826.99> 1114 194<460.543 969.85>
LayerCount: 2
Fore
SplineSet
681 1877 m 1,0,1
 728 1861 728 1861 762 1827 c 0,2,3
 807 1784 807 1784 807 1729 c 0,4,5
 807 1670 807 1670 755 1624 c 0,6,7
 723 1597 723 1597 681 1580 c 1,8,-1
 675 1580 l 1,9,10
 633 1597 633 1597 601 1624 c 0,11,12
 549 1669 549 1669 549 1729 c 0,13,14
 549 1785 549 1785 594 1827 c 0,15,16
 628 1861 628 1861 675 1877 c 1,17,-1
 681 1877 l 1,0,1
236 0 m 1,18,-1
 226 6 l 1,19,20
 264 339 264 339 264 565 c 0,21,22
 264 799 264 799 226 1038 c 1,23,24
 336 1053 336 1053 468 1130 c 1,25,-1
 478 1124 l 1,26,27
 430 838 430 838 430 627 c 0,28,29
 430 362 430 362 470 124 c 1,30,31
 595 76 595 76 697 76 c 0,32,33
 926 76 926 76 1038 328 c 0,34,35
 1114 500 1114 500 1114 702 c 0,36,37
 1114 980 1114 980 961 1158 c 0,38,39
 820 1321 820 1321 579 1321 c 0,40,41
 349 1321 349 1321 126 1163 c 1,42,-1
 120 1173 l 1,43,44
 197 1305 197 1305 212 1415 c 1,45,46
 385 1510 385 1510 602 1510 c 0,47,48
 906 1510 906 1510 1099 1321 c 0,49,50
 1308 1117 1308 1117 1308 765 c 0,51,52
 1308 484 1308 484 1182 284 c 0,53,54
 1003 -0 1003 -0 696 0 c 0,55,56
 634 0 634 0 534 18 c 0,57,58
 436 35 436 35 386 35 c 0,59,60
 306 35 306 35 236 0 c 1,18,-1
EndSplineSet
Validated: 1
EndChar

StartChar: uni1E0B
Encoding: 7691 7691 204
Width: 1165
Flags: W
HStem: 0 176<477.422 642.559> 1110 20G<437 607> 1490 20G<943.5 1015> 1580 297<818.006 971.994>
VStem: 100 144<425.085 778.463> 766 258<1631.27 1826.99> 800 212<75.5625 174.313 955.167 1433.52> 841 129<321.169 723.5 864 1249.6>
LayerCount: 2
Fore
SplineSet
841 525 m 0,0,1
 841 739 841 739 671 891 c 0,2,3
 556 994 556 994 358 1016 c 1,4,5
 244 843 244 843 244 619 c 0,6,7
 244 427 244 427 387 289 c 0,8,9
 504 176 504 176 640 176 c 0,10,11
 742 176 742 176 824 234 c 1,12,13
 841 374 841 374 841 525 c 0,0,1
535 0 m 1,14,15
 391 48 391 48 265 170 c 0,16,17
 100 329 100 329 100 565 c 0,18,19
 100 754 100 754 222 908 c 0,20,21
 339 1056 339 1056 535 1130 c 1,22,-1
 545 1130 l 1,23,24
 669 1097 669 1097 756 1005 c 0,25,26
 809 949 809 949 842 864 c 1,27,28
 835 1141 835 1141 803 1423 c 1,29,30
 882 1439 882 1439 1005 1510 c 1,31,-1
 1015 1504 l 1,32,33
 971 1154 971 1154 970 782 c 0,34,35
 970 424 970 424 1012 87 c 1,36,37
 933 71 933 71 810 0 c 1,38,-1
 800 6 l 1,39,40
 810 91 810 91 818 177 c 1,41,42
 710 64 710 64 545 0 c 1,43,-1
 535 0 l 1,14,15
898 1877 m 1,44,45
 945 1861 945 1861 979 1827 c 0,46,47
 1024 1784 1024 1784 1024 1729 c 0,48,49
 1024 1670 1024 1670 972 1624 c 0,50,51
 940 1597 940 1597 898 1580 c 1,52,-1
 892 1580 l 1,53,54
 850 1597 850 1597 818 1624 c 0,55,56
 766 1669 766 1669 766 1729 c 0,57,58
 766 1785 766 1785 811 1827 c 0,59,60
 845 1861 845 1861 892 1877 c 1,61,-1
 898 1877 l 1,44,45
EndSplineSet
Validated: 1
EndChar

StartChar: uni1E1E
Encoding: 7710 7710 205
Width: 1031
Flags: W
HStem: 0 21G<180 256> 700 73<391 639.455> 1490 20G<356.5 489.5 898.5 981> 1580 297<474.006 627.994>
VStem: 422 258<1631.27 1826.99>
LayerCount: 2
Fore
SplineSet
554 1877 m 1,0,1
 601 1861 601 1861 635 1827 c 0,2,3
 680 1784 680 1784 680 1729 c 0,4,5
 680 1670 680 1670 628 1624 c 0,6,7
 596 1597 596 1597 554 1580 c 1,8,-1
 548 1580 l 1,9,10
 506 1597 506 1597 474 1624 c 0,11,12
 422 1669 422 1669 422 1729 c 0,13,14
 422 1785 422 1785 467 1827 c 0,15,16
 501 1861 501 1861 548 1877 c 1,17,-1
 554 1877 l 1,0,1
190 0 m 1,18,-1
 180 6 l 1,19,20
 224 364 224 364 224 730 c 0,21,22
 224 1063 224 1063 183 1418 c 1,23,24
 288 1431 288 1431 425 1510 c 1,25,26
 554 1443 554 1443 692 1443 c 0,27,28
 822 1443 822 1443 975 1510 c 1,29,-1
 981 1500 l 1,30,31
 904 1368 904 1368 889 1258 c 1,32,33
 744 1267 744 1267 630 1321 c 0,34,35
 518 1373 518 1373 432 1478 c 1,36,37
 390 1133 390 1133 390 773 c 1,38,39
 620 773 620 773 868 898 c 1,40,-1
 874 888 l 1,41,42
 797 756 797 756 782 646 c 1,43,44
 585 700 585 700 391 700 c 1,45,46
 395 385 395 385 432 92 c 1,47,48
 322 77 322 77 190 0 c 1,18,-1
EndSplineSet
Validated: 1
EndChar

